ISO-10303-21;
HEADER;
/* Generated by software containing ST-Developer
 * from STEP Tools, Inc. (www.steptools.com) 
 */

FILE_DESCRIPTION(
/* description */ (''),
/* implementation_level */ '2;1');

FILE_NAME(
/* name */ 'Bottom.step',
/* time_stamp */ '2026-09-14T17:56:22+05:30',
/* author */ (''),
/* organization */ (''),
/* preprocessor_version */ 'ST-DEVELOPER v20.2',
/* originating_system */ 'Autodesk Translation Framework v15.15.0.0',
/* authorisation */ '');

FILE_SCHEMA (('AUTOMOTIVE_DESIGN { 1 0 10303 214 3 1 1 }'));
ENDSEC;

DATA;
#10=MECHANICAL_DESIGN_GEOMETRIC_PRESENTATION_REPRESENTATION('',(#13,#14),
#783);
#11=SHAPE_REPRESENTATION_RELATIONSHIP('SRR','None',#790,#12);
#12=ADVANCED_BREP_SHAPE_REPRESENTATION('',(#15,#16),#782);
#13=STYLED_ITEM('',(#800),#15);
#14=STYLED_ITEM('',(#800),#16);
#15=MANIFOLD_SOLID_BREP('Body1',#472);
#16=MANIFOLD_SOLID_BREP('Body2',#473);
#17=LINE('',#661,#64);
#18=LINE('',#665,#65);
#19=LINE('',#671,#66);
#20=LINE('',#673,#67);
#21=LINE('',#675,#68);
#22=LINE('',#677,#69);
#23=LINE('',#679,#70);
#24=LINE('',#681,#71);
#25=LINE('',#683,#72);
#26=LINE('',#685,#73);
#27=LINE('',#687,#74);
#28=LINE('',#689,#75);
#29=LINE('',#691,#76);
#30=LINE('',#692,#77);
#31=LINE('',#704,#78);
#32=LINE('',#706,#79);
#33=LINE('',#708,#80);
#34=LINE('',#710,#81);
#35=LINE('',#712,#82);
#36=LINE('',#714,#83);
#37=LINE('',#716,#84);
#38=LINE('',#717,#85);
#39=LINE('',#721,#86);
#40=LINE('',#722,#87);
#41=LINE('',#724,#88);
#42=LINE('',#726,#89);
#43=LINE('',#728,#90);
#44=LINE('',#729,#91);
#45=LINE('',#731,#92);
#46=LINE('',#734,#93);
#47=LINE('',#736,#94);
#48=LINE('',#737,#95);
#49=LINE('',#739,#96);
#50=LINE('',#743,#97);
#51=LINE('',#747,#98);
#52=LINE('',#751,#99);
#53=LINE('',#755,#100);
#54=LINE('',#759,#101);
#55=LINE('',#760,#102);
#56=LINE('',#763,#103);
#57=LINE('',#764,#104);
#58=LINE('',#767,#105);
#59=LINE('',#768,#106);
#60=LINE('',#771,#107);
#61=LINE('',#772,#108);
#62=LINE('',#774,#109);
#63=LINE('',#777,#110);
#64=VECTOR('',#536,1.45);
#65=VECTOR('',#541,1.58113889369977);
#66=VECTOR('',#548,10.);
#67=VECTOR('',#549,10.);
#68=VECTOR('',#550,10.);
#69=VECTOR('',#551,10.);
#70=VECTOR('',#552,10.);
#71=VECTOR('',#553,10.);
#72=VECTOR('',#554,10.);
#73=VECTOR('',#555,10.);
#74=VECTOR('',#556,10.);
#75=VECTOR('',#557,10.);
#76=VECTOR('',#558,10.);
#77=VECTOR('',#559,10.);
#78=VECTOR('',#570,10.);
#79=VECTOR('',#571,10.);
#80=VECTOR('',#572,10.);
#81=VECTOR('',#573,10.);
#82=VECTOR('',#574,10.);
#83=VECTOR('',#575,10.);
#84=VECTOR('',#576,10.);
#85=VECTOR('',#577,10.);
#86=VECTOR('',#582,10.);
#87=VECTOR('',#583,10.);
#88=VECTOR('',#586,10.);
#89=VECTOR('',#589,10.);
#90=VECTOR('',#592,10.);
#91=VECTOR('',#593,10.);
#92=VECTOR('',#596,10.);
#93=VECTOR('',#599,10.);
#94=VECTOR('',#600,10.);
#95=VECTOR('',#601,10.);
#96=VECTOR('',#604,10.);
#97=VECTOR('',#609,1.45);
#98=VECTOR('',#614,1.45);
#99=VECTOR('',#619,1.45000000000001);
#100=VECTOR('',#624,1.45);
#101=VECTOR('',#629,10.);
#102=VECTOR('',#630,10.);
#103=VECTOR('',#633,10.);
#104=VECTOR('',#634,10.);
#105=VECTOR('',#637,10.);
#106=VECTOR('',#638,10.);
#107=VECTOR('',#641,10.);
#108=VECTOR('',#642,10.);
#109=VECTOR('',#645,10.);
#110=VECTOR('',#648,1.58113889369977);
#111=CYLINDRICAL_SURFACE('',#490,1.45);
#112=CYLINDRICAL_SURFACE('',#492,1.58113889369977);
#113=CYLINDRICAL_SURFACE('',#510,1.45);
#114=CYLINDRICAL_SURFACE('',#512,1.45);
#115=CYLINDRICAL_SURFACE('',#514,1.45000000000001);
#116=CYLINDRICAL_SURFACE('',#516,1.45);
#117=CYLINDRICAL_SURFACE('',#523,1.58113889369977);
#118=FACE_BOUND('',#156,.T.);
#119=FACE_BOUND('',#160,.T.);
#120=FACE_BOUND('',#162,.T.);
#121=FACE_BOUND('',#163,.T.);
#122=FACE_BOUND('',#164,.T.);
#123=FACE_BOUND('',#165,.T.);
#124=FACE_BOUND('',#167,.T.);
#125=FACE_BOUND('',#187,.T.);
#126=FACE_BOUND('',#188,.T.);
#127=FACE_BOUND('',#189,.T.);
#128=FACE_BOUND('',#190,.T.);
#129=FACE_BOUND('',#191,.T.);
#130=FACE_OUTER_BOUND('',#155,.T.);
#131=FACE_OUTER_BOUND('',#157,.T.);
#132=FACE_OUTER_BOUND('',#158,.T.);
#133=FACE_OUTER_BOUND('',#159,.T.);
#134=FACE_OUTER_BOUND('',#161,.T.);
#135=FACE_OUTER_BOUND('',#166,.T.);
#136=FACE_OUTER_BOUND('',#168,.T.);
#137=FACE_OUTER_BOUND('',#169,.T.);
#138=FACE_OUTER_BOUND('',#170,.T.);
#139=FACE_OUTER_BOUND('',#171,.T.);
#140=FACE_OUTER_BOUND('',#172,.T.);
#141=FACE_OUTER_BOUND('',#173,.T.);
#142=FACE_OUTER_BOUND('',#174,.T.);
#143=FACE_OUTER_BOUND('',#175,.T.);
#144=FACE_OUTER_BOUND('',#176,.T.);
#145=FACE_OUTER_BOUND('',#177,.T.);
#146=FACE_OUTER_BOUND('',#178,.T.);
#147=FACE_OUTER_BOUND('',#179,.T.);
#148=FACE_OUTER_BOUND('',#180,.T.);
#149=FACE_OUTER_BOUND('',#181,.T.);
#150=FACE_OUTER_BOUND('',#182,.T.);
#151=FACE_OUTER_BOUND('',#183,.T.);
#152=FACE_OUTER_BOUND('',#184,.T.);
#153=FACE_OUTER_BOUND('',#185,.T.);
#154=FACE_OUTER_BOUND('',#186,.T.);
#155=EDGE_LOOP('',(#307));
#156=EDGE_LOOP('',(#308));
#157=EDGE_LOOP('',(#309,#310,#311,#312));
#158=EDGE_LOOP('',(#313,#314,#315,#316));
#159=EDGE_LOOP('',(#317));
#160=EDGE_LOOP('',(#318));
#161=EDGE_LOOP('',(#319,#320,#321,#322,#323,#324,#325,#326,#327,#328,#329,
#330));
#162=EDGE_LOOP('',(#331));
#163=EDGE_LOOP('',(#332));
#164=EDGE_LOOP('',(#333));
#165=EDGE_LOOP('',(#334));
#166=EDGE_LOOP('',(#335,#336,#337,#338,#339,#340,#341,#342));
#167=EDGE_LOOP('',(#343));
#168=EDGE_LOOP('',(#344,#345,#346,#347));
#169=EDGE_LOOP('',(#348,#349,#350,#351));
#170=EDGE_LOOP('',(#352,#353,#354,#355));
#171=EDGE_LOOP('',(#356,#357,#358,#359));
#172=EDGE_LOOP('',(#360,#361,#362,#363));
#173=EDGE_LOOP('',(#364,#365,#366,#367));
#174=EDGE_LOOP('',(#368,#369,#370,#371));
#175=EDGE_LOOP('',(#372,#373,#374,#375));
#176=EDGE_LOOP('',(#376,#377,#378,#379));
#177=EDGE_LOOP('',(#380,#381,#382,#383));
#178=EDGE_LOOP('',(#384,#385,#386,#387));
#179=EDGE_LOOP('',(#388,#389,#390,#391));
#180=EDGE_LOOP('',(#392,#393,#394,#395,#396));
#181=EDGE_LOOP('',(#397,#398,#399,#400));
#182=EDGE_LOOP('',(#401,#402,#403,#404));
#183=EDGE_LOOP('',(#405,#406,#407,#408));
#184=EDGE_LOOP('',(#409,#410,#411,#412,#413));
#185=EDGE_LOOP('',(#414,#415,#416,#417));
#186=EDGE_LOOP('',(#418,#419,#420,#421,#422,#423));
#187=EDGE_LOOP('',(#424));
#188=EDGE_LOOP('',(#425));
#189=EDGE_LOOP('',(#426));
#190=EDGE_LOOP('',(#427));
#191=EDGE_LOOP('',(#428));
#192=CIRCLE('',#488,1.58113889369977);
#193=CIRCLE('',#489,1.45);
#194=CIRCLE('',#491,1.45);
#195=CIRCLE('',#493,1.58113889369977);
#196=CIRCLE('',#496,1.45);
#197=CIRCLE('',#497,1.45);
#198=CIRCLE('',#498,1.45000000000001);
#199=CIRCLE('',#499,1.45);
#200=CIRCLE('',#501,1.58113889369977);
#201=CIRCLE('',#511,1.45);
#202=CIRCLE('',#513,1.45);
#203=CIRCLE('',#515,1.45000000000001);
#204=CIRCLE('',#517,1.45);
#205=CIRCLE('',#524,1.58113889369977);
#206=VERTEX_POINT('',#655);
#207=VERTEX_POINT('',#657);
#208=VERTEX_POINT('',#660);
#209=VERTEX_POINT('',#664);
#210=VERTEX_POINT('',#669);
#211=VERTEX_POINT('',#670);
#212=VERTEX_POINT('',#672);
#213=VERTEX_POINT('',#674);
#214=VERTEX_POINT('',#676);
#215=VERTEX_POINT('',#678);
#216=VERTEX_POINT('',#680);
#217=VERTEX_POINT('',#682);
#218=VERTEX_POINT('',#684);
#219=VERTEX_POINT('',#686);
#220=VERTEX_POINT('',#688);
#221=VERTEX_POINT('',#690);
#222=VERTEX_POINT('',#693);
#223=VERTEX_POINT('',#695);
#224=VERTEX_POINT('',#697);
#225=VERTEX_POINT('',#699);
#226=VERTEX_POINT('',#702);
#227=VERTEX_POINT('',#703);
#228=VERTEX_POINT('',#705);
#229=VERTEX_POINT('',#707);
#230=VERTEX_POINT('',#709);
#231=VERTEX_POINT('',#711);
#232=VERTEX_POINT('',#713);
#233=VERTEX_POINT('',#715);
#234=VERTEX_POINT('',#718);
#235=VERTEX_POINT('',#733);
#236=VERTEX_POINT('',#735);
#237=VERTEX_POINT('',#742);
#238=VERTEX_POINT('',#746);
#239=VERTEX_POINT('',#750);
#240=VERTEX_POINT('',#754);
#241=VERTEX_POINT('',#758);
#242=VERTEX_POINT('',#762);
#243=VERTEX_POINT('',#766);
#244=VERTEX_POINT('',#770);
#245=VERTEX_POINT('',#776);
#246=EDGE_CURVE('',#206,#206,#192,.T.);
#247=EDGE_CURVE('',#207,#207,#193,.T.);
#248=EDGE_CURVE('',#207,#208,#17,.T.);
#249=EDGE_CURVE('',#208,#208,#194,.T.);
#250=EDGE_CURVE('',#206,#209,#18,.T.);
#251=EDGE_CURVE('',#209,#209,#195,.T.);
#252=EDGE_CURVE('',#210,#211,#19,.T.);
#253=EDGE_CURVE('',#212,#211,#20,.T.);
#254=EDGE_CURVE('',#213,#212,#21,.T.);
#255=EDGE_CURVE('',#214,#213,#22,.T.);
#256=EDGE_CURVE('',#215,#214,#23,.T.);
#257=EDGE_CURVE('',#216,#215,#24,.T.);
#258=EDGE_CURVE('',#216,#217,#25,.T.);
#259=EDGE_CURVE('',#217,#218,#26,.T.);
#260=EDGE_CURVE('',#218,#219,#27,.T.);
#261=EDGE_CURVE('',#219,#220,#28,.T.);
#262=EDGE_CURVE('',#220,#221,#29,.T.);
#263=EDGE_CURVE('',#221,#210,#30,.T.);
#264=EDGE_CURVE('',#222,#222,#196,.T.);
#265=EDGE_CURVE('',#223,#223,#197,.T.);
#266=EDGE_CURVE('',#224,#224,#198,.T.);
#267=EDGE_CURVE('',#225,#225,#199,.T.);
#268=EDGE_CURVE('',#226,#227,#31,.T.);
#269=EDGE_CURVE('',#227,#228,#32,.T.);
#270=EDGE_CURVE('',#228,#229,#33,.T.);
#271=EDGE_CURVE('',#229,#230,#34,.T.);
#272=EDGE_CURVE('',#230,#231,#35,.T.);
#273=EDGE_CURVE('',#231,#232,#36,.T.);
#274=EDGE_CURVE('',#233,#232,#37,.T.);
#275=EDGE_CURVE('',#226,#233,#38,.T.);
#276=EDGE_CURVE('',#234,#234,#200,.T.);
#277=EDGE_CURVE('',#226,#216,#39,.T.);
#278=EDGE_CURVE('',#233,#217,#40,.T.);
#279=EDGE_CURVE('',#227,#215,#41,.T.);
#280=EDGE_CURVE('',#214,#228,#42,.T.);
#281=EDGE_CURVE('',#211,#231,#43,.T.);
#282=EDGE_CURVE('',#232,#210,#44,.T.);
#283=EDGE_CURVE('',#212,#230,#45,.T.);
#284=EDGE_CURVE('',#235,#232,#46,.T.);
#285=EDGE_CURVE('',#236,#235,#47,.T.);
#286=EDGE_CURVE('',#236,#233,#48,.T.);
#287=EDGE_CURVE('',#213,#229,#49,.T.);
#288=EDGE_CURVE('',#222,#237,#50,.T.);
#289=EDGE_CURVE('',#237,#237,#201,.T.);
#290=EDGE_CURVE('',#223,#238,#51,.T.);
#291=EDGE_CURVE('',#238,#238,#202,.T.);
#292=EDGE_CURVE('',#224,#239,#52,.T.);
#293=EDGE_CURVE('',#239,#239,#203,.T.);
#294=EDGE_CURVE('',#225,#240,#53,.T.);
#295=EDGE_CURVE('',#240,#240,#204,.T.);
#296=EDGE_CURVE('',#235,#241,#54,.T.);
#297=EDGE_CURVE('',#241,#221,#55,.T.);
#298=EDGE_CURVE('',#241,#242,#56,.T.);
#299=EDGE_CURVE('',#242,#220,#57,.T.);
#300=EDGE_CURVE('',#242,#243,#58,.T.);
#301=EDGE_CURVE('',#243,#219,#59,.T.);
#302=EDGE_CURVE('',#243,#244,#60,.T.);
#303=EDGE_CURVE('',#244,#218,#61,.T.);
#304=EDGE_CURVE('',#244,#236,#62,.T.);
#305=EDGE_CURVE('',#234,#245,#63,.T.);
#306=EDGE_CURVE('',#245,#245,#205,.T.);
#307=ORIENTED_EDGE('',*,*,#246,.T.);
#308=ORIENTED_EDGE('',*,*,#247,.T.);
#309=ORIENTED_EDGE('',*,*,#247,.F.);
#310=ORIENTED_EDGE('',*,*,#248,.T.);
#311=ORIENTED_EDGE('',*,*,#249,.T.);
#312=ORIENTED_EDGE('',*,*,#248,.F.);
#313=ORIENTED_EDGE('',*,*,#246,.F.);
#314=ORIENTED_EDGE('',*,*,#250,.T.);
#315=ORIENTED_EDGE('',*,*,#251,.T.);
#316=ORIENTED_EDGE('',*,*,#250,.F.);
#317=ORIENTED_EDGE('',*,*,#251,.F.);
#318=ORIENTED_EDGE('',*,*,#249,.F.);
#319=ORIENTED_EDGE('',*,*,#252,.T.);
#320=ORIENTED_EDGE('',*,*,#253,.F.);
#321=ORIENTED_EDGE('',*,*,#254,.F.);
#322=ORIENTED_EDGE('',*,*,#255,.F.);
#323=ORIENTED_EDGE('',*,*,#256,.F.);
#324=ORIENTED_EDGE('',*,*,#257,.F.);
#325=ORIENTED_EDGE('',*,*,#258,.T.);
#326=ORIENTED_EDGE('',*,*,#259,.T.);
#327=ORIENTED_EDGE('',*,*,#260,.T.);
#328=ORIENTED_EDGE('',*,*,#261,.T.);
#329=ORIENTED_EDGE('',*,*,#262,.T.);
#330=ORIENTED_EDGE('',*,*,#263,.T.);
#331=ORIENTED_EDGE('',*,*,#264,.T.);
#332=ORIENTED_EDGE('',*,*,#265,.T.);
#333=ORIENTED_EDGE('',*,*,#266,.T.);
#334=ORIENTED_EDGE('',*,*,#267,.T.);
#335=ORIENTED_EDGE('',*,*,#268,.T.);
#336=ORIENTED_EDGE('',*,*,#269,.T.);
#337=ORIENTED_EDGE('',*,*,#270,.T.);
#338=ORIENTED_EDGE('',*,*,#271,.T.);
#339=ORIENTED_EDGE('',*,*,#272,.T.);
#340=ORIENTED_EDGE('',*,*,#273,.T.);
#341=ORIENTED_EDGE('',*,*,#274,.F.);
#342=ORIENTED_EDGE('',*,*,#275,.F.);
#343=ORIENTED_EDGE('',*,*,#276,.T.);
#344=ORIENTED_EDGE('',*,*,#258,.F.);
#345=ORIENTED_EDGE('',*,*,#277,.F.);
#346=ORIENTED_EDGE('',*,*,#275,.T.);
#347=ORIENTED_EDGE('',*,*,#278,.T.);
#348=ORIENTED_EDGE('',*,*,#279,.F.);
#349=ORIENTED_EDGE('',*,*,#268,.F.);
#350=ORIENTED_EDGE('',*,*,#277,.T.);
#351=ORIENTED_EDGE('',*,*,#257,.T.);
#352=ORIENTED_EDGE('',*,*,#279,.T.);
#353=ORIENTED_EDGE('',*,*,#256,.T.);
#354=ORIENTED_EDGE('',*,*,#280,.T.);
#355=ORIENTED_EDGE('',*,*,#269,.F.);
#356=ORIENTED_EDGE('',*,*,#273,.F.);
#357=ORIENTED_EDGE('',*,*,#281,.F.);
#358=ORIENTED_EDGE('',*,*,#252,.F.);
#359=ORIENTED_EDGE('',*,*,#282,.F.);
#360=ORIENTED_EDGE('',*,*,#283,.F.);
#361=ORIENTED_EDGE('',*,*,#253,.T.);
#362=ORIENTED_EDGE('',*,*,#281,.T.);
#363=ORIENTED_EDGE('',*,*,#272,.F.);
#364=ORIENTED_EDGE('',*,*,#274,.T.);
#365=ORIENTED_EDGE('',*,*,#284,.F.);
#366=ORIENTED_EDGE('',*,*,#285,.F.);
#367=ORIENTED_EDGE('',*,*,#286,.T.);
#368=ORIENTED_EDGE('',*,*,#283,.T.);
#369=ORIENTED_EDGE('',*,*,#271,.F.);
#370=ORIENTED_EDGE('',*,*,#287,.F.);
#371=ORIENTED_EDGE('',*,*,#254,.T.);
#372=ORIENTED_EDGE('',*,*,#287,.T.);
#373=ORIENTED_EDGE('',*,*,#270,.F.);
#374=ORIENTED_EDGE('',*,*,#280,.F.);
#375=ORIENTED_EDGE('',*,*,#255,.T.);
#376=ORIENTED_EDGE('',*,*,#264,.F.);
#377=ORIENTED_EDGE('',*,*,#288,.T.);
#378=ORIENTED_EDGE('',*,*,#289,.T.);
#379=ORIENTED_EDGE('',*,*,#288,.F.);
#380=ORIENTED_EDGE('',*,*,#265,.F.);
#381=ORIENTED_EDGE('',*,*,#290,.T.);
#382=ORIENTED_EDGE('',*,*,#291,.T.);
#383=ORIENTED_EDGE('',*,*,#290,.F.);
#384=ORIENTED_EDGE('',*,*,#266,.F.);
#385=ORIENTED_EDGE('',*,*,#292,.T.);
#386=ORIENTED_EDGE('',*,*,#293,.T.);
#387=ORIENTED_EDGE('',*,*,#292,.F.);
#388=ORIENTED_EDGE('',*,*,#267,.F.);
#389=ORIENTED_EDGE('',*,*,#294,.T.);
#390=ORIENTED_EDGE('',*,*,#295,.T.);
#391=ORIENTED_EDGE('',*,*,#294,.F.);
#392=ORIENTED_EDGE('',*,*,#296,.F.);
#393=ORIENTED_EDGE('',*,*,#284,.T.);
#394=ORIENTED_EDGE('',*,*,#282,.T.);
#395=ORIENTED_EDGE('',*,*,#263,.F.);
#396=ORIENTED_EDGE('',*,*,#297,.F.);
#397=ORIENTED_EDGE('',*,*,#298,.F.);
#398=ORIENTED_EDGE('',*,*,#297,.T.);
#399=ORIENTED_EDGE('',*,*,#262,.F.);
#400=ORIENTED_EDGE('',*,*,#299,.F.);
#401=ORIENTED_EDGE('',*,*,#300,.F.);
#402=ORIENTED_EDGE('',*,*,#299,.T.);
#403=ORIENTED_EDGE('',*,*,#261,.F.);
#404=ORIENTED_EDGE('',*,*,#301,.F.);
#405=ORIENTED_EDGE('',*,*,#302,.F.);
#406=ORIENTED_EDGE('',*,*,#301,.T.);
#407=ORIENTED_EDGE('',*,*,#260,.F.);
#408=ORIENTED_EDGE('',*,*,#303,.F.);
#409=ORIENTED_EDGE('',*,*,#304,.F.);
#410=ORIENTED_EDGE('',*,*,#303,.T.);
#411=ORIENTED_EDGE('',*,*,#259,.F.);
#412=ORIENTED_EDGE('',*,*,#278,.F.);
#413=ORIENTED_EDGE('',*,*,#286,.F.);
#414=ORIENTED_EDGE('',*,*,#276,.F.);
#415=ORIENTED_EDGE('',*,*,#305,.T.);
#416=ORIENTED_EDGE('',*,*,#306,.T.);
#417=ORIENTED_EDGE('',*,*,#305,.F.);
#418=ORIENTED_EDGE('',*,*,#296,.T.);
#419=ORIENTED_EDGE('',*,*,#298,.T.);
#420=ORIENTED_EDGE('',*,*,#300,.T.);
#421=ORIENTED_EDGE('',*,*,#302,.T.);
#422=ORIENTED_EDGE('',*,*,#304,.T.);
#423=ORIENTED_EDGE('',*,*,#285,.T.);
#424=ORIENTED_EDGE('',*,*,#289,.F.);
#425=ORIENTED_EDGE('',*,*,#291,.F.);
#426=ORIENTED_EDGE('',*,*,#293,.F.);
#427=ORIENTED_EDGE('',*,*,#295,.F.);
#428=ORIENTED_EDGE('',*,*,#306,.F.);
#429=PLANE('',#487);
#430=PLANE('',#494);
#431=PLANE('',#495);
#432=PLANE('',#500);
#433=PLANE('',#502);
#434=PLANE('',#503);
#435=PLANE('',#504);
#436=PLANE('',#505);
#437=PLANE('',#506);
#438=PLANE('',#507);
#439=PLANE('',#508);
#440=PLANE('',#509);
#441=PLANE('',#518);
#442=PLANE('',#519);
#443=PLANE('',#520);
#444=PLANE('',#521);
#445=PLANE('',#522);
#446=PLANE('',#525);
#447=ADVANCED_FACE('',(#130,#118),#429,.T.);
#448=ADVANCED_FACE('',(#131),#111,.F.);
#449=ADVANCED_FACE('',(#132),#112,.T.);
#450=ADVANCED_FACE('',(#133,#119),#430,.F.);
#451=ADVANCED_FACE('',(#134,#120,#121,#122,#123),#431,.T.);
#452=ADVANCED_FACE('',(#135,#124),#432,.T.);
#453=ADVANCED_FACE('',(#136),#433,.T.);
#454=ADVANCED_FACE('',(#137),#434,.T.);
#455=ADVANCED_FACE('',(#138),#435,.T.);
#456=ADVANCED_FACE('',(#139),#436,.T.);
#457=ADVANCED_FACE('',(#140),#437,.T.);
#458=ADVANCED_FACE('',(#141),#438,.T.);
#459=ADVANCED_FACE('',(#142),#439,.T.);
#460=ADVANCED_FACE('',(#143),#440,.T.);
#461=ADVANCED_FACE('',(#144),#113,.F.);
#462=ADVANCED_FACE('',(#145),#114,.F.);
#463=ADVANCED_FACE('',(#146),#115,.F.);
#464=ADVANCED_FACE('',(#147),#116,.F.);
#465=ADVANCED_FACE('',(#148),#441,.T.);
#466=ADVANCED_FACE('',(#149),#442,.T.);
#467=ADVANCED_FACE('',(#150),#443,.T.);
#468=ADVANCED_FACE('',(#151),#444,.T.);
#469=ADVANCED_FACE('',(#152),#445,.T.);
#470=ADVANCED_FACE('',(#153),#117,.F.);
#471=ADVANCED_FACE('',(#154,#125,#126,#127,#128,#129),#446,.F.);
#472=CLOSED_SHELL('',(#447,#448,#449,#450));
#473=CLOSED_SHELL('',(#451,#452,#453,#454,#455,#456,#457,#458,#459,#460,
#461,#462,#463,#464,#465,#466,#467,#468,#469,#470,#471));
#474=DERIVED_UNIT_ELEMENT(#476,1.);
#475=DERIVED_UNIT_ELEMENT(#785,-3.);
#476=(
MASS_UNIT()
NAMED_UNIT(*)
SI_UNIT(.KILO.,.GRAM.)
);
#477=DERIVED_UNIT((#474,#475));
#478=MEASURE_REPRESENTATION_ITEM('density measure',
POSITIVE_RATIO_MEASURE(7850.),#477);
#479=PROPERTY_DEFINITION_REPRESENTATION(#484,#481);
#480=PROPERTY_DEFINITION_REPRESENTATION(#485,#482);
#481=REPRESENTATION('material name',(#483),#782);
#482=REPRESENTATION('density',(#478),#782);
#483=DESCRIPTIVE_REPRESENTATION_ITEM('Steel','Steel');
#484=PROPERTY_DEFINITION('material property','material name',#792);
#485=PROPERTY_DEFINITION('material property','density of part',#792);
#486=AXIS2_PLACEMENT_3D('',#653,#526,#527);
#487=AXIS2_PLACEMENT_3D('',#654,#528,#529);
#488=AXIS2_PLACEMENT_3D('',#656,#530,#531);
#489=AXIS2_PLACEMENT_3D('',#658,#532,#533);
#490=AXIS2_PLACEMENT_3D('',#659,#534,#535);
#491=AXIS2_PLACEMENT_3D('',#662,#537,#538);
#492=AXIS2_PLACEMENT_3D('',#663,#539,#540);
#493=AXIS2_PLACEMENT_3D('',#666,#542,#543);
#494=AXIS2_PLACEMENT_3D('',#667,#544,#545);
#495=AXIS2_PLACEMENT_3D('',#668,#546,#547);
#496=AXIS2_PLACEMENT_3D('',#694,#560,#561);
#497=AXIS2_PLACEMENT_3D('',#696,#562,#563);
#498=AXIS2_PLACEMENT_3D('',#698,#564,#565);
#499=AXIS2_PLACEMENT_3D('',#700,#566,#567);
#500=AXIS2_PLACEMENT_3D('',#701,#568,#569);
#501=AXIS2_PLACEMENT_3D('',#719,#578,#579);
#502=AXIS2_PLACEMENT_3D('',#720,#580,#581);
#503=AXIS2_PLACEMENT_3D('',#723,#584,#585);
#504=AXIS2_PLACEMENT_3D('',#725,#587,#588);
#505=AXIS2_PLACEMENT_3D('',#727,#590,#591);
#506=AXIS2_PLACEMENT_3D('',#730,#594,#595);
#507=AXIS2_PLACEMENT_3D('',#732,#597,#598);
#508=AXIS2_PLACEMENT_3D('',#738,#602,#603);
#509=AXIS2_PLACEMENT_3D('',#740,#605,#606);
#510=AXIS2_PLACEMENT_3D('',#741,#607,#608);
#511=AXIS2_PLACEMENT_3D('',#744,#610,#611);
#512=AXIS2_PLACEMENT_3D('',#745,#612,#613);
#513=AXIS2_PLACEMENT_3D('',#748,#615,#616);
#514=AXIS2_PLACEMENT_3D('',#749,#617,#618);
#515=AXIS2_PLACEMENT_3D('',#752,#620,#621);
#516=AXIS2_PLACEMENT_3D('',#753,#622,#623);
#517=AXIS2_PLACEMENT_3D('',#756,#625,#626);
#518=AXIS2_PLACEMENT_3D('',#757,#627,#628);
#519=AXIS2_PLACEMENT_3D('',#761,#631,#632);
#520=AXIS2_PLACEMENT_3D('',#765,#635,#636);
#521=AXIS2_PLACEMENT_3D('',#769,#639,#640);
#522=AXIS2_PLACEMENT_3D('',#773,#643,#644);
#523=AXIS2_PLACEMENT_3D('',#775,#646,#647);
#524=AXIS2_PLACEMENT_3D('',#778,#649,#650);
#525=AXIS2_PLACEMENT_3D('',#779,#651,#652);
#526=DIRECTION('axis',(0.,0.,1.));
#527=DIRECTION('refdir',(1.,0.,0.));
#528=DIRECTION('center_axis',(0.,0.,1.));
#529=DIRECTION('ref_axis',(1.,0.,0.));
#530=DIRECTION('center_axis',(0.,0.,1.));
#531=DIRECTION('ref_axis',(1.,0.,0.));
#532=DIRECTION('center_axis',(0.,0.,-1.));
#533=DIRECTION('ref_axis',(1.,0.,0.));
#534=DIRECTION('center_axis',(0.,0.,1.));
#535=DIRECTION('ref_axis',(1.,0.,0.));
#536=DIRECTION('',(0.,0.,-1.));
#537=DIRECTION('center_axis',(0.,0.,-1.));
#538=DIRECTION('ref_axis',(1.,0.,0.));
#539=DIRECTION('center_axis',(0.,0.,1.));
#540=DIRECTION('ref_axis',(1.,0.,0.));
#541=DIRECTION('',(0.,0.,-1.));
#542=DIRECTION('center_axis',(0.,0.,1.));
#543=DIRECTION('ref_axis',(1.,0.,0.));
#544=DIRECTION('center_axis',(0.,0.,1.));
#545=DIRECTION('ref_axis',(1.,0.,0.));
#546=DIRECTION('center_axis',(0.,0.,1.));
#547=DIRECTION('ref_axis',(1.,0.,0.));
#548=DIRECTION('',(0.,-1.,0.));
#549=DIRECTION('',(-1.,0.,0.));
#550=DIRECTION('',(0.,1.,0.));
#551=DIRECTION('',(1.,0.,0.));
#552=DIRECTION('',(0.,-1.,0.));
#553=DIRECTION('',(-1.,0.,0.));
#554=DIRECTION('',(0.,1.,0.));
#555=DIRECTION('',(-1.,0.,0.));
#556=DIRECTION('',(0.,-1.,0.));
#557=DIRECTION('',(1.,0.,0.));
#558=DIRECTION('',(0.,1.,0.));
#559=DIRECTION('',(-1.,0.,0.));
#560=DIRECTION('center_axis',(0.,0.,-1.));
#561=DIRECTION('ref_axis',(1.,0.,0.));
#562=DIRECTION('center_axis',(0.,0.,-1.));
#563=DIRECTION('ref_axis',(1.,0.,0.));
#564=DIRECTION('center_axis',(0.,0.,-1.));
#565=DIRECTION('ref_axis',(1.,0.,0.));
#566=DIRECTION('center_axis',(0.,0.,-1.));
#567=DIRECTION('ref_axis',(1.,0.,0.));
#568=DIRECTION('center_axis',(0.,0.,1.));
#569=DIRECTION('ref_axis',(1.,0.,0.));
#570=DIRECTION('',(-1.,0.,0.));
#571=DIRECTION('',(0.,-1.,0.));
#572=DIRECTION('',(1.,0.,0.));
#573=DIRECTION('',(0.,1.,0.));
#574=DIRECTION('',(-1.,0.,0.));
#575=DIRECTION('',(0.,1.,0.));
#576=DIRECTION('',(1.,1.18139031901645E-8,0.));
#577=DIRECTION('',(0.,1.,0.));
#578=DIRECTION('center_axis',(0.,0.,-1.));
#579=DIRECTION('ref_axis',(1.,0.,0.));
#580=DIRECTION('center_axis',(1.,0.,0.));
#581=DIRECTION('ref_axis',(0.,0.,1.));
#582=DIRECTION('',(0.,0.,1.));
#583=DIRECTION('',(0.,0.,1.));
#584=DIRECTION('center_axis',(0.,-1.,0.));
#585=DIRECTION('ref_axis',(0.,0.,-1.));
#586=DIRECTION('',(0.,0.,1.));
#587=DIRECTION('center_axis',(1.,0.,0.));
#588=DIRECTION('ref_axis',(0.,0.,-1.));
#589=DIRECTION('',(0.,0.,-1.));
#590=DIRECTION('center_axis',(-1.,0.,0.));
#591=DIRECTION('ref_axis',(0.,0.,-1.));
#592=DIRECTION('',(0.,0.,-1.));
#593=DIRECTION('',(0.,0.,1.));
#594=DIRECTION('center_axis',(0.,-1.,0.));
#595=DIRECTION('ref_axis',(0.,0.,-1.));
#596=DIRECTION('',(0.,0.,-1.));
#597=DIRECTION('center_axis',(-1.18139031901645E-8,1.,0.));
#598=DIRECTION('ref_axis',(-1.,-1.18139031901645E-8,0.));
#599=DIRECTION('',(0.,0.,1.));
#600=DIRECTION('',(1.,1.18139031901645E-8,0.));
#601=DIRECTION('',(0.,0.,1.));
#602=DIRECTION('center_axis',(-1.,0.,0.));
#603=DIRECTION('ref_axis',(0.,0.,1.));
#604=DIRECTION('',(0.,0.,-1.));
#605=DIRECTION('center_axis',(0.,1.,0.));
#606=DIRECTION('ref_axis',(0.,0.,1.));
#607=DIRECTION('center_axis',(0.,0.,1.));
#608=DIRECTION('ref_axis',(1.,0.,0.));
#609=DIRECTION('',(0.,0.,-1.));
#610=DIRECTION('center_axis',(0.,0.,-1.));
#611=DIRECTION('ref_axis',(1.,0.,0.));
#612=DIRECTION('center_axis',(0.,0.,1.));
#613=DIRECTION('ref_axis',(1.,0.,0.));
#614=DIRECTION('',(0.,0.,-1.));
#615=DIRECTION('center_axis',(0.,0.,-1.));
#616=DIRECTION('ref_axis',(1.,0.,0.));
#617=DIRECTION('center_axis',(0.,0.,1.));
#618=DIRECTION('ref_axis',(1.,0.,0.));
#619=DIRECTION('',(0.,0.,-1.));
#620=DIRECTION('center_axis',(0.,0.,-1.));
#621=DIRECTION('ref_axis',(1.,0.,0.));
#622=DIRECTION('center_axis',(0.,0.,1.));
#623=DIRECTION('ref_axis',(1.,0.,0.));
#624=DIRECTION('',(0.,0.,-1.));
#625=DIRECTION('center_axis',(0.,0.,-1.));
#626=DIRECTION('ref_axis',(1.,0.,0.));
#627=DIRECTION('center_axis',(0.,1.,0.));
#628=DIRECTION('ref_axis',(-1.,0.,0.));
#629=DIRECTION('',(1.,0.,0.));
#630=DIRECTION('',(0.,0.,1.));
#631=DIRECTION('center_axis',(1.,0.,0.));
#632=DIRECTION('ref_axis',(0.,1.,0.));
#633=DIRECTION('',(0.,-1.,0.));
#634=DIRECTION('',(0.,0.,1.));
#635=DIRECTION('center_axis',(0.,-1.,0.));
#636=DIRECTION('ref_axis',(1.,0.,0.));
#637=DIRECTION('',(-1.,0.,0.));
#638=DIRECTION('',(0.,0.,1.));
#639=DIRECTION('center_axis',(-1.,0.,0.));
#640=DIRECTION('ref_axis',(0.,-1.,0.));
#641=DIRECTION('',(0.,1.,0.));
#642=DIRECTION('',(0.,0.,1.));
#643=DIRECTION('center_axis',(0.,1.,0.));
#644=DIRECTION('ref_axis',(-1.,0.,0.));
#645=DIRECTION('',(1.,0.,0.));
#646=DIRECTION('center_axis',(0.,0.,1.));
#647=DIRECTION('ref_axis',(1.,0.,0.));
#648=DIRECTION('',(0.,0.,-1.));
#649=DIRECTION('center_axis',(0.,0.,-1.));
#650=DIRECTION('ref_axis',(1.,0.,0.));
#651=DIRECTION('center_axis',(0.,0.,1.));
#652=DIRECTION('ref_axis',(1.,0.,0.));
#653=CARTESIAN_POINT('',(0.,0.,0.));
#654=CARTESIAN_POINT('Origin',(48.0000007152557,-30.0000004470348,6.3));
#655=CARTESIAN_POINT('',(46.418861821556,-30.0000004470348,6.3));
#656=CARTESIAN_POINT('Origin',(48.0000007152557,-30.0000004470348,6.3));
#657=CARTESIAN_POINT('',(46.5500007152557,-30.0000004470348,6.3));
#658=CARTESIAN_POINT('Origin',(48.0000007152557,-30.0000004470348,6.3));
#659=CARTESIAN_POINT('Origin',(48.0000007152557,-30.0000004470348,0.));
#660=CARTESIAN_POINT('',(46.5500007152557,-30.0000004470348,0.));
#661=CARTESIAN_POINT('',(46.5500007152557,-30.0000004470348,0.));
#662=CARTESIAN_POINT('Origin',(48.0000007152557,-30.0000004470348,0.));
#663=CARTESIAN_POINT('Origin',(48.0000007152557,-30.0000004470348,0.));
#664=CARTESIAN_POINT('',(46.418861821556,-30.0000004470348,0.));
#665=CARTESIAN_POINT('',(46.418861821556,-30.0000004470348,0.));
#666=CARTESIAN_POINT('Origin',(48.0000007152557,-30.0000004470348,0.));
#667=CARTESIAN_POINT('Origin',(48.0000007152557,-30.0000004470348,0.));
#668=CARTESIAN_POINT('Origin',(46.7499989550561,-32.7499991409419,13.));
#669=CARTESIAN_POINT('',(26.0999994166195,12.0000002093736,13.));
#670=CARTESIAN_POINT('',(26.0999994166195,2.9802322276673E-8,13.));
#671=CARTESIAN_POINT('',(26.0999994166195,2.00000002980232,13.));
#672=CARTESIAN_POINT('',(93.4999979101121,2.9802322276673E-8,13.));
#673=CARTESIAN_POINT('',(-2.,2.9802322276673E-8,13.));
#674=CARTESIAN_POINT('',(93.4999979101121,-65.4999984912574,13.));
#675=CARTESIAN_POINT('',(93.4999979101121,2.00000002980232,13.));
#676=CARTESIAN_POINT('',(7.21644966006352E-15,-65.4999984912574,13.));
#677=CARTESIAN_POINT('',(95.4999979101121,-65.4999984912574,13.));
#678=CARTESIAN_POINT('',(7.21644966006352E-15,2.9802322276673E-8,13.));
#679=CARTESIAN_POINT('',(0.,-67.4999984912574,13.));
#680=CARTESIAN_POINT('',(10.899999756366,2.9802322276673E-8,13.));
#681=CARTESIAN_POINT('',(-2.,2.9802322276673E-8,13.));
#682=CARTESIAN_POINT('',(10.899999756366,12.0000000298023,13.));
#683=CARTESIAN_POINT('',(10.899999756366,-16.3749995555698,13.));
#684=CARTESIAN_POINT('',(-12.,12.0000000298023,13.));
#685=CARTESIAN_POINT('',(-12.,12.0000000298023,13.));
#686=CARTESIAN_POINT('',(-12.,-77.4999984912574,13.));
#687=CARTESIAN_POINT('',(-12.,-77.4999984912574,13.));
#688=CARTESIAN_POINT('',(105.499997910112,-77.4999984912574,13.));
#689=CARTESIAN_POINT('',(105.499997910112,-77.4999984912574,13.));
#690=CARTESIAN_POINT('',(105.499997910112,12.0000000298023,13.));
#691=CARTESIAN_POINT('',(105.499997910112,12.0000000298023,13.));
#692=CARTESIAN_POINT('',(-12.,12.0000000298023,13.));
#693=CARTESIAN_POINT('',(-8.45000000000001,7.00000002980232,13.));
#694=CARTESIAN_POINT('Origin',(-7.,7.00000002980232,13.));
#695=CARTESIAN_POINT('',(-8.45000000000001,-72.4999984912574,13.));
#696=CARTESIAN_POINT('Origin',(-7.,-72.4999984912574,13.));
#697=CARTESIAN_POINT('',(99.0499997410923,7.00000002980232,13.));
#698=CARTESIAN_POINT('Origin',(100.499999741092,7.00000002980232,13.));
#699=CARTESIAN_POINT('',(99.0499997410923,-72.4999984912574,13.));
#700=CARTESIAN_POINT('Origin',(100.499999741092,-72.4999984912574,13.));
#701=CARTESIAN_POINT('Origin',(46.7499989550561,-32.7499992307276,3.));
#702=CARTESIAN_POINT('',(10.899999756366,2.9802322276673E-8,3.));
#703=CARTESIAN_POINT('',(7.21644966006352E-15,2.9802322276673E-8,3.));
#704=CARTESIAN_POINT('',(22.374999477528,2.98023206113385E-8,3.));
#705=CARTESIAN_POINT('',(7.21644966006352E-15,-65.4999984912574,3.));
#706=CARTESIAN_POINT('',(8.88178419700125E-15,-50.1249988609925,3.));
#707=CARTESIAN_POINT('',(93.4999979101121,-65.4999984912574,3.));
#708=CARTESIAN_POINT('',(71.1249984325841,-65.4999984912574,3.));
#709=CARTESIAN_POINT('',(93.4999979101121,2.9802322276673E-8,3.));
#710=CARTESIAN_POINT('',(93.4999979101121,-15.3749996004626,3.));
#711=CARTESIAN_POINT('',(26.0999994166195,2.9802322276673E-8,3.));
#712=CARTESIAN_POINT('',(36.4249991858378,2.98023206113385E-8,3.));
#713=CARTESIAN_POINT('',(26.0999994166195,12.0000000298023,3.));
#714=CARTESIAN_POINT('',(26.0999994166195,2.9802322276673E-8,3.));
#715=CARTESIAN_POINT('',(10.899999756366,12.0000000298023,3.));
#716=CARTESIAN_POINT('',(26.0999993457361,12.0000002093736,3.));
#717=CARTESIAN_POINT('',(10.899999756366,2.9802322276673E-8,3.));
#718=CARTESIAN_POINT('',(46.418861821556,-30.0000004470348,3.));
#719=CARTESIAN_POINT('Origin',(48.0000007152557,-30.0000004470348,3.));
#720=CARTESIAN_POINT('Origin',(10.899999756366,2.00000002980232,3.));
#721=CARTESIAN_POINT('',(10.899999756366,2.9802322276673E-8,3.));
#722=CARTESIAN_POINT('',(10.899999756366,12.0000000298023,0.));
#723=CARTESIAN_POINT('Origin',(-2.,2.9802322276673E-8,3.));
#724=CARTESIAN_POINT('',(7.21644966006352E-15,2.98023206113385E-8,3.));
#725=CARTESIAN_POINT('Origin',(7.21644966006352E-15,-67.4999984912574,3.));
#726=CARTESIAN_POINT('',(8.88178419700125E-15,-65.4999984912574,3.));
#727=CARTESIAN_POINT('Origin',(26.0999994166195,2.00000002980232,13.));
#728=CARTESIAN_POINT('',(26.0999994166195,2.9802322276673E-8,3.));
#729=CARTESIAN_POINT('',(26.0999994166195,12.0000002093736,0.));
#730=CARTESIAN_POINT('Origin',(26.0999994166195,2.9802322276673E-8,3.));
#731=CARTESIAN_POINT('',(93.4999979101121,2.9802322276673E-8,3.));
#732=CARTESIAN_POINT('Origin',(26.0999994166195,12.0000002093736,0.));
#733=CARTESIAN_POINT('',(26.0999994166195,12.0000002093736,0.));
#734=CARTESIAN_POINT('',(26.0999994166195,12.0000002093736,0.));
#735=CARTESIAN_POINT('',(10.899999756366,12.0000000298023,0.));
#736=CARTESIAN_POINT('',(10.899999756366,12.0000000298023,0.));
#737=CARTESIAN_POINT('',(10.899999756366,12.0000000298023,0.));
#738=CARTESIAN_POINT('Origin',(93.4999979101121,2.00000002980232,3.));
#739=CARTESIAN_POINT('',(93.4999979101121,-65.4999984912574,3.));
#740=CARTESIAN_POINT('Origin',(95.4999979101121,-65.4999984912574,3.));
#741=CARTESIAN_POINT('Origin',(-7.,7.00000002980232,0.));
#742=CARTESIAN_POINT('',(-8.45,7.00000002980232,0.));
#743=CARTESIAN_POINT('',(-8.45,7.00000002980232,0.));
#744=CARTESIAN_POINT('Origin',(-7.,7.00000002980232,0.));
#745=CARTESIAN_POINT('Origin',(-7.,-72.4999984912574,0.));
#746=CARTESIAN_POINT('',(-8.45,-72.4999984912574,0.));
#747=CARTESIAN_POINT('',(-8.45,-72.4999984912574,0.));
#748=CARTESIAN_POINT('Origin',(-7.,-72.4999984912574,0.));
#749=CARTESIAN_POINT('Origin',(100.499999741092,7.00000002980232,0.));
#750=CARTESIAN_POINT('',(99.0499997410923,7.00000002980232,0.));
#751=CARTESIAN_POINT('',(99.0499997410923,7.00000002980232,0.));
#752=CARTESIAN_POINT('Origin',(100.499999741092,7.00000002980232,0.));
#753=CARTESIAN_POINT('Origin',(100.499999741092,-72.4999984912574,0.));
#754=CARTESIAN_POINT('',(99.0499997410923,-72.4999984912574,0.));
#755=CARTESIAN_POINT('',(99.0499997410923,-72.4999984912574,0.));
#756=CARTESIAN_POINT('Origin',(100.499999741092,-72.4999984912574,0.));
#757=CARTESIAN_POINT('Origin',(105.499997910112,12.0000000298023,0.));
#758=CARTESIAN_POINT('',(105.499997910112,12.0000000298023,0.));
#759=CARTESIAN_POINT('',(-12.,12.0000000298023,0.));
#760=CARTESIAN_POINT('',(105.499997910112,12.0000000298023,0.));
#761=CARTESIAN_POINT('Origin',(105.499997910112,-77.4999984912574,0.));
#762=CARTESIAN_POINT('',(105.499997910112,-77.4999984912574,0.));
#763=CARTESIAN_POINT('',(105.499997910112,12.0000000298023,0.));
#764=CARTESIAN_POINT('',(105.499997910112,-77.4999984912574,0.));
#765=CARTESIAN_POINT('Origin',(-12.,-77.4999984912574,0.));
#766=CARTESIAN_POINT('',(-12.,-77.4999984912574,0.));
#767=CARTESIAN_POINT('',(105.499997910112,-77.4999984912574,0.));
#768=CARTESIAN_POINT('',(-12.,-77.4999984912574,0.));
#769=CARTESIAN_POINT('Origin',(-12.,12.0000000298023,0.));
#770=CARTESIAN_POINT('',(-12.,12.0000000298023,0.));
#771=CARTESIAN_POINT('',(-12.,-77.4999984912574,0.));
#772=CARTESIAN_POINT('',(-12.,12.0000000298023,0.));
#773=CARTESIAN_POINT('Origin',(10.899999756366,12.0000000298023,0.));
#774=CARTESIAN_POINT('',(-12.,12.0000000298023,0.));
#775=CARTESIAN_POINT('Origin',(48.0000007152557,-30.0000004470348,0.));
#776=CARTESIAN_POINT('',(46.418861821556,-30.0000004470348,0.));
#777=CARTESIAN_POINT('',(46.418861821556,-30.0000004470348,0.));
#778=CARTESIAN_POINT('Origin',(48.0000007152557,-30.0000004470348,0.));
#779=CARTESIAN_POINT('Origin',(46.7499989550561,-32.7499992307276,0.));
#780=UNCERTAINTY_MEASURE_WITH_UNIT(LENGTH_MEASURE(0.01),#784,
'DISTANCE_ACCURACY_VALUE',
'Maximum model space distance between geometric entities at asserted c
onnectivities');
#781=UNCERTAINTY_MEASURE_WITH_UNIT(LENGTH_MEASURE(0.01),#784,
'DISTANCE_ACCURACY_VALUE',
'Maximum model space distance between geometric entities at asserted c
onnectivities');
#782=(
GEOMETRIC_REPRESENTATION_CONTEXT(3)
GLOBAL_UNCERTAINTY_ASSIGNED_CONTEXT((#780))
GLOBAL_UNIT_ASSIGNED_CONTEXT((#784,#786,#787))
REPRESENTATION_CONTEXT('','3D')
);
#783=(
GEOMETRIC_REPRESENTATION_CONTEXT(3)
GLOBAL_UNCERTAINTY_ASSIGNED_CONTEXT((#781))
GLOBAL_UNIT_ASSIGNED_CONTEXT((#784,#786,#787))
REPRESENTATION_CONTEXT('','3D')
);
#784=(
LENGTH_UNIT()
NAMED_UNIT(*)
SI_UNIT(.MILLI.,.METRE.)
);
#785=(
LENGTH_UNIT()
NAMED_UNIT(*)
SI_UNIT($,.METRE.)
);
#786=(
NAMED_UNIT(*)
PLANE_ANGLE_UNIT()
SI_UNIT($,.RADIAN.)
);
#787=(
NAMED_UNIT(*)
SI_UNIT($,.STERADIAN.)
SOLID_ANGLE_UNIT()
);
#788=SHAPE_DEFINITION_REPRESENTATION(#789,#790);
#789=PRODUCT_DEFINITION_SHAPE('',$,#792);
#790=SHAPE_REPRESENTATION('',(#486),#782);
#791=PRODUCT_DEFINITION_CONTEXT('part definition',#796,'design');
#792=PRODUCT_DEFINITION('2026-09-14-17-56-22-728','Bottom',#793,#791);
#793=PRODUCT_DEFINITION_FORMATION('',$,#798);
#794=PRODUCT_RELATED_PRODUCT_CATEGORY('Bottom','Bottom',(#798));
#795=APPLICATION_PROTOCOL_DEFINITION('international standard',
'automotive_design',2009,#796);
#796=APPLICATION_CONTEXT(
'Core Data for Automotive Mechanical Design Process');
#797=PRODUCT_CONTEXT('part definition',#796,'mechanical');
#798=PRODUCT('2026-09-14-17-56-22-728','Bottom',$,(#797));
#799=PRESENTATION_STYLE_ASSIGNMENT((#801));
#800=PRESENTATION_STYLE_ASSIGNMENT((#802));
#801=SURFACE_STYLE_USAGE(.BOTH.,#803);
#802=SURFACE_STYLE_USAGE(.BOTH.,#804);
#803=SURFACE_SIDE_STYLE('',(#805));
#804=SURFACE_SIDE_STYLE('',(#806));
#805=SURFACE_STYLE_FILL_AREA(#807);
#806=SURFACE_STYLE_FILL_AREA(#808);
#807=FILL_AREA_STYLE('Steel - Satin',(#809));
#808=FILL_AREA_STYLE('Opaque(25,25,25)',(#810));
#809=FILL_AREA_STYLE_COLOUR('Steel - Satin',#811);
#810=FILL_AREA_STYLE_COLOUR('Opaque(25,25,25)',#812);
#811=COLOUR_RGB('Steel - Satin',0.627450980392157,0.627450980392157,0.627450980392157);
#812=COLOUR_RGB('Opaque(25,25,25)',0.0980392156862745,0.0980392156862745,
0.0980392156862745);
ENDSEC;
END-ISO-10303-21;
