ISO-10303-21;
HEADER;
/* Generated by software containing ST-Developer
 * from STEP Tools, Inc. (www.steptools.com) 
 */

FILE_DESCRIPTION(
/* description */ (''),
/* implementation_level */ '2;1');

FILE_NAME(
/* name */ 'Rotary Encoder.step',
/* time_stamp */ '2026-09-14T17:56:49+05:30',
/* author */ (''),
/* organization */ (''),
/* preprocessor_version */ 'ST-DEVELOPER v20.2',
/* originating_system */ 'Autodesk Translation Framework v15.15.0.0',
/* authorisation */ '');

FILE_SCHEMA (('AUTOMOTIVE_DESIGN { 1 0 10303 214 3 1 1 }'));
ENDSEC;

DATA;
#10=MECHANICAL_DESIGN_GEOMETRIC_PRESENTATION_REPRESENTATION('',(#104,#105,
#106),#1415);
#11=SHAPE_REPRESENTATION_RELATIONSHIP('SRR','None',#1422,#12);
#12=ADVANCED_BREP_SHAPE_REPRESENTATION('',(#107,#108,#109),#1414);
#13=B_SPLINE_CURVE_WITH_KNOTS('',2,(#959,#960,#961),.UNSPECIFIED.,.F.,.F.,
(3,3),(0.,1.),.UNSPECIFIED.);
#14=B_SPLINE_CURVE_WITH_KNOTS('',2,(#965,#966,#967),.UNSPECIFIED.,.F.,.F.,
(3,3),(-1.,0.),.UNSPECIFIED.);
#15=B_SPLINE_CURVE_WITH_KNOTS('',2,(#976,#977,#978),.UNSPECIFIED.,.F.,.F.,
(3,3),(0.,1.),.UNSPECIFIED.);
#16=B_SPLINE_CURVE_WITH_KNOTS('',2,(#980,#981,#982),.UNSPECIFIED.,.F.,.F.,
(3,3),(-1.,0.),.UNSPECIFIED.);
#17=B_SPLINE_CURVE_WITH_KNOTS('',2,(#997,#998,#999),.UNSPECIFIED.,.F.,.F.,
(3,3),(0.,1.),.UNSPECIFIED.);
#18=B_SPLINE_CURVE_WITH_KNOTS('',2,(#1001,#1002,#1003),.UNSPECIFIED.,.F.,
 .F.,(3,3),(-1.,0.),.UNSPECIFIED.);
#19=B_SPLINE_CURVE_WITH_KNOTS('',2,(#1011,#1012,#1013),.UNSPECIFIED.,.F.,
 .F.,(3,3),(0.,1.),.UNSPECIFIED.);
#20=B_SPLINE_CURVE_WITH_KNOTS('',2,(#1014,#1015,#1016),.UNSPECIFIED.,.F.,
 .F.,(3,3),(-1.,0.),.UNSPECIFIED.);
#21=B_SPLINE_CURVE_WITH_KNOTS('',2,(#1033,#1034,#1035),.UNSPECIFIED.,.F.,
 .F.,(3,3),(0.,1.),.UNSPECIFIED.);
#22=B_SPLINE_CURVE_WITH_KNOTS('',2,(#1037,#1038,#1039),.UNSPECIFIED.,.F.,
 .F.,(3,3),(-1.,0.),.UNSPECIFIED.);
#23=B_SPLINE_CURVE_WITH_KNOTS('',2,(#1048,#1049,#1050),.UNSPECIFIED.,.F.,
 .F.,(3,3),(0.,1.),.UNSPECIFIED.);
#24=B_SPLINE_CURVE_WITH_KNOTS('',2,(#1052,#1053,#1054),.UNSPECIFIED.,.F.,
 .F.,(3,3),(-1.,0.),.UNSPECIFIED.);
#25=B_SPLINE_CURVE_WITH_KNOTS('',2,(#1063,#1064,#1065),.UNSPECIFIED.,.F.,
 .F.,(3,3),(0.,1.),.UNSPECIFIED.);
#26=B_SPLINE_CURVE_WITH_KNOTS('',2,(#1067,#1068,#1069),.UNSPECIFIED.,.F.,
 .F.,(3,3),(-1.,0.),.UNSPECIFIED.);
#27=B_SPLINE_CURVE_WITH_KNOTS('',2,(#1078,#1079,#1080),.UNSPECIFIED.,.F.,
 .F.,(3,3),(0.,1.),.UNSPECIFIED.);
#28=B_SPLINE_CURVE_WITH_KNOTS('',2,(#1082,#1083,#1084),.UNSPECIFIED.,.F.,
 .F.,(3,3),(-1.,0.),.UNSPECIFIED.);
#29=B_SPLINE_CURVE_WITH_KNOTS('',2,(#1093,#1094,#1095),.UNSPECIFIED.,.F.,
 .F.,(3,3),(0.,1.),.UNSPECIFIED.);
#30=B_SPLINE_CURVE_WITH_KNOTS('',2,(#1097,#1098,#1099),.UNSPECIFIED.,.F.,
 .F.,(3,3),(-1.,0.),.UNSPECIFIED.);
#31=B_SPLINE_CURVE_WITH_KNOTS('',2,(#1114,#1115,#1116),.UNSPECIFIED.,.F.,
 .F.,(3,3),(0.,1.),.UNSPECIFIED.);
#32=B_SPLINE_CURVE_WITH_KNOTS('',2,(#1118,#1119,#1120),.UNSPECIFIED.,.F.,
 .F.,(3,3),(-1.,0.),.UNSPECIFIED.);
#33=B_SPLINE_CURVE_WITH_KNOTS('',2,(#1129,#1130,#1131),.UNSPECIFIED.,.F.,
 .F.,(3,3),(0.,1.),.UNSPECIFIED.);
#34=B_SPLINE_CURVE_WITH_KNOTS('',2,(#1133,#1134,#1135),.UNSPECIFIED.,.F.,
 .F.,(3,3),(-1.,0.),.UNSPECIFIED.);
#35=B_SPLINE_CURVE_WITH_KNOTS('',2,(#1144,#1145,#1146),.UNSPECIFIED.,.F.,
 .F.,(3,3),(0.,1.),.UNSPECIFIED.);
#36=B_SPLINE_CURVE_WITH_KNOTS('',2,(#1148,#1149,#1150),.UNSPECIFIED.,.F.,
 .F.,(3,3),(-1.,0.),.UNSPECIFIED.);
#37=B_SPLINE_CURVE_WITH_KNOTS('',2,(#1159,#1160,#1161),.UNSPECIFIED.,.F.,
 .F.,(3,3),(0.,1.),.UNSPECIFIED.);
#38=B_SPLINE_CURVE_WITH_KNOTS('',2,(#1163,#1164,#1165),.UNSPECIFIED.,.F.,
 .F.,(3,3),(-1.,0.),.UNSPECIFIED.);
#39=B_SPLINE_CURVE_WITH_KNOTS('',2,(#1174,#1175,#1176),.UNSPECIFIED.,.F.,
 .F.,(3,3),(0.,1.),.UNSPECIFIED.);
#40=B_SPLINE_CURVE_WITH_KNOTS('',2,(#1178,#1179,#1180),.UNSPECIFIED.,.F.,
 .F.,(3,3),(-1.,0.),.UNSPECIFIED.);
#41=B_SPLINE_CURVE_WITH_KNOTS('',2,(#1189,#1190,#1191),.UNSPECIFIED.,.F.,
 .F.,(3,3),(0.,1.),.UNSPECIFIED.);
#42=B_SPLINE_CURVE_WITH_KNOTS('',2,(#1193,#1194,#1195),.UNSPECIFIED.,.F.,
 .F.,(3,3),(-1.,0.),.UNSPECIFIED.);
#43=B_SPLINE_CURVE_WITH_KNOTS('',2,(#1204,#1205,#1206),.UNSPECIFIED.,.F.,
 .F.,(3,3),(0.,1.),.UNSPECIFIED.);
#44=B_SPLINE_CURVE_WITH_KNOTS('',2,(#1208,#1209,#1210),.UNSPECIFIED.,.F.,
 .F.,(3,3),(-1.,0.),.UNSPECIFIED.);
#45=B_SPLINE_CURVE_WITH_KNOTS('',2,(#1225,#1226,#1227),.UNSPECIFIED.,.F.,
 .F.,(3,3),(0.,1.),.UNSPECIFIED.);
#46=B_SPLINE_CURVE_WITH_KNOTS('',2,(#1229,#1230,#1231),.UNSPECIFIED.,.F.,
 .F.,(3,3),(-1.,0.),.UNSPECIFIED.);
#47=B_SPLINE_CURVE_WITH_KNOTS('',2,(#1240,#1241,#1242),.UNSPECIFIED.,.F.,
 .F.,(3,3),(0.,1.),.UNSPECIFIED.);
#48=B_SPLINE_CURVE_WITH_KNOTS('',2,(#1244,#1245,#1246),.UNSPECIFIED.,.F.,
 .F.,(3,3),(-1.,0.),.UNSPECIFIED.);
#49=B_SPLINE_CURVE_WITH_KNOTS('',2,(#1255,#1256,#1257),.UNSPECIFIED.,.F.,
 .F.,(3,3),(0.,1.),.UNSPECIFIED.);
#50=B_SPLINE_CURVE_WITH_KNOTS('',2,(#1259,#1260,#1261),.UNSPECIFIED.,.F.,
 .F.,(3,3),(-1.,0.),.UNSPECIFIED.);
#51=B_SPLINE_CURVE_WITH_KNOTS('',2,(#1270,#1271,#1272),.UNSPECIFIED.,.F.,
 .F.,(3,3),(0.,1.),.UNSPECIFIED.);
#52=B_SPLINE_CURVE_WITH_KNOTS('',2,(#1274,#1275,#1276),.UNSPECIFIED.,.F.,
 .F.,(3,3),(-1.,0.),.UNSPECIFIED.);
#53=B_SPLINE_CURVE_WITH_KNOTS('',2,(#1285,#1286,#1287),.UNSPECIFIED.,.F.,
 .F.,(3,3),(0.,1.),.UNSPECIFIED.);
#54=B_SPLINE_CURVE_WITH_KNOTS('',2,(#1289,#1290,#1291),.UNSPECIFIED.,.F.,
 .F.,(3,3),(-1.,0.),.UNSPECIFIED.);
#55=B_SPLINE_CURVE_WITH_KNOTS('',2,(#1300,#1301,#1302),.UNSPECIFIED.,.F.,
 .F.,(3,3),(0.,1.),.UNSPECIFIED.);
#56=B_SPLINE_CURVE_WITH_KNOTS('',2,(#1304,#1305,#1306),.UNSPECIFIED.,.F.,
 .F.,(3,3),(-1.,0.),.UNSPECIFIED.);
#57=B_SPLINE_CURVE_WITH_KNOTS('',2,(#1315,#1316,#1317),.UNSPECIFIED.,.F.,
 .F.,(3,3),(0.,1.),.UNSPECIFIED.);
#58=B_SPLINE_CURVE_WITH_KNOTS('',2,(#1319,#1320,#1321),.UNSPECIFIED.,.F.,
 .F.,(3,3),(-1.,0.),.UNSPECIFIED.);
#59=B_SPLINE_CURVE_WITH_KNOTS('',2,(#1330,#1331,#1332),.UNSPECIFIED.,.F.,
 .F.,(3,3),(0.,1.),.UNSPECIFIED.);
#60=B_SPLINE_CURVE_WITH_KNOTS('',2,(#1334,#1335,#1336),.UNSPECIFIED.,.F.,
 .F.,(3,3),(-1.,0.),.UNSPECIFIED.);
#61=B_SPLINE_CURVE_WITH_KNOTS('',2,(#1345,#1346,#1347),.UNSPECIFIED.,.F.,
 .F.,(3,3),(0.,1.),.UNSPECIFIED.);
#62=B_SPLINE_CURVE_WITH_KNOTS('',2,(#1349,#1350,#1351),.UNSPECIFIED.,.F.,
 .F.,(3,3),(-1.,0.),.UNSPECIFIED.);
#63=B_SPLINE_CURVE_WITH_KNOTS('',2,(#1360,#1361,#1362),.UNSPECIFIED.,.F.,
 .F.,(3,3),(0.,1.),.UNSPECIFIED.);
#64=B_SPLINE_CURVE_WITH_KNOTS('',2,(#1364,#1365,#1366),.UNSPECIFIED.,.F.,
 .F.,(3,3),(-1.,0.),.UNSPECIFIED.);
#65=B_SPLINE_CURVE_WITH_KNOTS('',2,(#1375,#1376,#1377),.UNSPECIFIED.,.F.,
 .F.,(3,3),(0.,1.),.UNSPECIFIED.);
#66=B_SPLINE_CURVE_WITH_KNOTS('',2,(#1379,#1380,#1381),.UNSPECIFIED.,.F.,
 .F.,(3,3),(-1.,0.),.UNSPECIFIED.);
#67=B_SPLINE_CURVE_WITH_KNOTS('',2,(#1390,#1391,#1392),.UNSPECIFIED.,.F.,
 .F.,(3,3),(0.,1.),.UNSPECIFIED.);
#68=B_SPLINE_CURVE_WITH_KNOTS('',2,(#1394,#1395,#1396),.UNSPECIFIED.,.F.,
 .F.,(3,3),(-1.,0.),.UNSPECIFIED.);
#69=B_SPLINE_CURVE_WITH_KNOTS('',2,(#1404,#1405,#1406),.UNSPECIFIED.,.F.,
 .F.,(3,3),(0.,1.),.UNSPECIFIED.);
#70=B_SPLINE_CURVE_WITH_KNOTS('',2,(#1407,#1408,#1409),.UNSPECIFIED.,.F.,
 .F.,(3,3),(-1.,0.),.UNSPECIFIED.);
#71=B_SPLINE_SURFACE_WITH_KNOTS('',2,1,((#951,#952),(#953,#954),(#955,#956)),
 .UNSPECIFIED.,.F.,.F.,.F.,(3,3),(2,2),(-1.,0.),(0.,0.6),.UNSPECIFIED.);
#72=B_SPLINE_SURFACE_WITH_KNOTS('',2,1,((#969,#970),(#971,#972),(#973,#974)),
 .UNSPECIFIED.,.F.,.F.,.F.,(3,3),(2,2),(-1.,0.),(0.,0.6),.UNSPECIFIED.);
#73=B_SPLINE_SURFACE_WITH_KNOTS('',2,1,((#990,#991),(#992,#993),(#994,#995)),
 .UNSPECIFIED.,.F.,.F.,.F.,(3,3),(2,2),(-1.,0.),(0.,0.6),.UNSPECIFIED.);
#74=B_SPLINE_SURFACE_WITH_KNOTS('',2,1,((#1005,#1006),(#1007,#1008),(#1009,
#1010)),.UNSPECIFIED.,.F.,.F.,.F.,(3,3),(2,2),(-1.,0.),(0.,0.6),
 .UNSPECIFIED.);
#75=B_SPLINE_SURFACE_WITH_KNOTS('',2,1,((#1026,#1027),(#1028,#1029),(#1030,
#1031)),.UNSPECIFIED.,.F.,.F.,.F.,(3,3),(2,2),(-1.,0.),(0.,0.6),
 .UNSPECIFIED.);
#76=B_SPLINE_SURFACE_WITH_KNOTS('',2,1,((#1041,#1042),(#1043,#1044),(#1045,
#1046)),.UNSPECIFIED.,.F.,.F.,.F.,(3,3),(2,2),(-1.,0.),(0.,0.6),
 .UNSPECIFIED.);
#77=B_SPLINE_SURFACE_WITH_KNOTS('',2,1,((#1056,#1057),(#1058,#1059),(#1060,
#1061)),.UNSPECIFIED.,.F.,.F.,.F.,(3,3),(2,2),(-1.,0.),(0.,0.6),
 .UNSPECIFIED.);
#78=B_SPLINE_SURFACE_WITH_KNOTS('',2,1,((#1071,#1072),(#1073,#1074),(#1075,
#1076)),.UNSPECIFIED.,.F.,.F.,.F.,(3,3),(2,2),(-1.,0.),(0.,0.6),
 .UNSPECIFIED.);
#79=B_SPLINE_SURFACE_WITH_KNOTS('',2,1,((#1086,#1087),(#1088,#1089),(#1090,
#1091)),.UNSPECIFIED.,.F.,.F.,.F.,(3,3),(2,2),(-1.,0.),(0.,0.6),
 .UNSPECIFIED.);
#80=B_SPLINE_SURFACE_WITH_KNOTS('',2,1,((#1107,#1108),(#1109,#1110),(#1111,
#1112)),.UNSPECIFIED.,.F.,.F.,.F.,(3,3),(2,2),(-1.,0.),(0.,0.6),
 .UNSPECIFIED.);
#81=B_SPLINE_SURFACE_WITH_KNOTS('',2,1,((#1122,#1123),(#1124,#1125),(#1126,
#1127)),.UNSPECIFIED.,.F.,.F.,.F.,(3,3),(2,2),(-1.,0.),(0.,0.6),
 .UNSPECIFIED.);
#82=B_SPLINE_SURFACE_WITH_KNOTS('',2,1,((#1137,#1138),(#1139,#1140),(#1141,
#1142)),.UNSPECIFIED.,.F.,.F.,.F.,(3,3),(2,2),(-1.,0.),(0.,0.6),
 .UNSPECIFIED.);
#83=B_SPLINE_SURFACE_WITH_KNOTS('',2,1,((#1152,#1153),(#1154,#1155),(#1156,
#1157)),.UNSPECIFIED.,.F.,.F.,.F.,(3,3),(2,2),(-1.,0.),(0.,0.6),
 .UNSPECIFIED.);
#84=B_SPLINE_SURFACE_WITH_KNOTS('',2,1,((#1167,#1168),(#1169,#1170),(#1171,
#1172)),.UNSPECIFIED.,.F.,.F.,.F.,(3,3),(2,2),(-1.,0.),(0.,0.6),
 .UNSPECIFIED.);
#85=B_SPLINE_SURFACE_WITH_KNOTS('',2,1,((#1182,#1183),(#1184,#1185),(#1186,
#1187)),.UNSPECIFIED.,.F.,.F.,.F.,(3,3),(2,2),(-1.,0.),(0.,0.6),
 .UNSPECIFIED.);
#86=B_SPLINE_SURFACE_WITH_KNOTS('',2,1,((#1197,#1198),(#1199,#1200),(#1201,
#1202)),.UNSPECIFIED.,.F.,.F.,.F.,(3,3),(2,2),(-1.,0.),(0.,0.6),
 .UNSPECIFIED.);
#87=B_SPLINE_SURFACE_WITH_KNOTS('',2,1,((#1218,#1219),(#1220,#1221),(#1222,
#1223)),.UNSPECIFIED.,.F.,.F.,.F.,(3,3),(2,2),(-1.,0.),(0.,0.6),
 .UNSPECIFIED.);
#88=B_SPLINE_SURFACE_WITH_KNOTS('',2,1,((#1233,#1234),(#1235,#1236),(#1237,
#1238)),.UNSPECIFIED.,.F.,.F.,.F.,(3,3),(2,2),(-1.,0.),(0.,0.6),
 .UNSPECIFIED.);
#89=B_SPLINE_SURFACE_WITH_KNOTS('',2,1,((#1248,#1249),(#1250,#1251),(#1252,
#1253)),.UNSPECIFIED.,.F.,.F.,.F.,(3,3),(2,2),(-1.,0.),(0.,0.6),
 .UNSPECIFIED.);
#90=B_SPLINE_SURFACE_WITH_KNOTS('',2,1,((#1263,#1264),(#1265,#1266),(#1267,
#1268)),.UNSPECIFIED.,.F.,.F.,.F.,(3,3),(2,2),(-1.,0.),(0.,0.6),
 .UNSPECIFIED.);
#91=B_SPLINE_SURFACE_WITH_KNOTS('',2,1,((#1278,#1279),(#1280,#1281),(#1282,
#1283)),.UNSPECIFIED.,.F.,.F.,.F.,(3,3),(2,2),(-1.,0.),(0.,0.6),
 .UNSPECIFIED.);
#92=B_SPLINE_SURFACE_WITH_KNOTS('',2,1,((#1293,#1294),(#1295,#1296),(#1297,
#1298)),.UNSPECIFIED.,.F.,.F.,.F.,(3,3),(2,2),(-1.,0.),(0.,0.6),
 .UNSPECIFIED.);
#93=B_SPLINE_SURFACE_WITH_KNOTS('',2,1,((#1308,#1309),(#1310,#1311),(#1312,
#1313)),.UNSPECIFIED.,.F.,.F.,.F.,(3,3),(2,2),(-1.,0.),(0.,0.6),
 .UNSPECIFIED.);
#94=B_SPLINE_SURFACE_WITH_KNOTS('',2,1,((#1323,#1324),(#1325,#1326),(#1327,
#1328)),.UNSPECIFIED.,.F.,.F.,.F.,(3,3),(2,2),(-1.,0.),(0.,0.6),
 .UNSPECIFIED.);
#95=B_SPLINE_SURFACE_WITH_KNOTS('',2,1,((#1338,#1339),(#1340,#1341),(#1342,
#1343)),.UNSPECIFIED.,.F.,.F.,.F.,(3,3),(2,2),(-1.,0.),(0.,0.6),
 .UNSPECIFIED.);
#96=B_SPLINE_SURFACE_WITH_KNOTS('',2,1,((#1353,#1354),(#1355,#1356),(#1357,
#1358)),.UNSPECIFIED.,.F.,.F.,.F.,(3,3),(2,2),(-1.,0.),(0.,0.6),
 .UNSPECIFIED.);
#97=B_SPLINE_SURFACE_WITH_KNOTS('',2,1,((#1368,#1369),(#1370,#1371),(#1372,
#1373)),.UNSPECIFIED.,.F.,.F.,.F.,(3,3),(2,2),(-1.,0.),(0.,0.6),
 .UNSPECIFIED.);
#98=B_SPLINE_SURFACE_WITH_KNOTS('',2,1,((#1383,#1384),(#1385,#1386),(#1387,
#1388)),.UNSPECIFIED.,.F.,.F.,.F.,(3,3),(2,2),(-1.,0.),(0.,0.6),
 .UNSPECIFIED.);
#99=B_SPLINE_SURFACE_WITH_KNOTS('',2,1,((#1398,#1399),(#1400,#1401),(#1402,
#1403)),.UNSPECIFIED.,.F.,.F.,.F.,(3,3),(2,2),(-1.,0.),(0.,0.6),
 .UNSPECIFIED.);
#100=FACE_BOUND('',#165,.T.);
#101=FACE_BOUND('',#167,.T.);
#102=FACE_BOUND('',#202,.T.);
#103=FACE_BOUND('',#204,.T.);
#104=STYLED_ITEM('',(#1432),#107);
#105=STYLED_ITEM('',(#1432),#108);
#106=STYLED_ITEM('',(#1433),#109);
#107=MANIFOLD_SOLID_BREP('Body1',#785);
#108=MANIFOLD_SOLID_BREP('Body2',#786);
#109=MANIFOLD_SOLID_BREP('Body3',#787);
#110=CYLINDRICAL_SURFACE('',#803,2.69999999999973);
#111=CYLINDRICAL_SURFACE('',#808,2.69999999999973);
#112=CYLINDRICAL_SURFACE('',#811,7.5);
#113=FACE_OUTER_BOUND('',#157,.T.);
#114=FACE_OUTER_BOUND('',#158,.T.);
#115=FACE_OUTER_BOUND('',#159,.T.);
#116=FACE_OUTER_BOUND('',#160,.T.);
#117=FACE_OUTER_BOUND('',#161,.T.);
#118=FACE_OUTER_BOUND('',#162,.T.);
#119=FACE_OUTER_BOUND('',#163,.T.);
#120=FACE_OUTER_BOUND('',#164,.T.);
#121=FACE_OUTER_BOUND('',#166,.T.);
#122=FACE_OUTER_BOUND('',#168,.T.);
#123=FACE_OUTER_BOUND('',#169,.T.);
#124=FACE_OUTER_BOUND('',#170,.T.);
#125=FACE_OUTER_BOUND('',#171,.T.);
#126=FACE_OUTER_BOUND('',#172,.T.);
#127=FACE_OUTER_BOUND('',#173,.T.);
#128=FACE_OUTER_BOUND('',#174,.T.);
#129=FACE_OUTER_BOUND('',#175,.T.);
#130=FACE_OUTER_BOUND('',#176,.T.);
#131=FACE_OUTER_BOUND('',#177,.T.);
#132=FACE_OUTER_BOUND('',#178,.T.);
#133=FACE_OUTER_BOUND('',#179,.T.);
#134=FACE_OUTER_BOUND('',#180,.T.);
#135=FACE_OUTER_BOUND('',#181,.T.);
#136=FACE_OUTER_BOUND('',#182,.T.);
#137=FACE_OUTER_BOUND('',#183,.T.);
#138=FACE_OUTER_BOUND('',#184,.T.);
#139=FACE_OUTER_BOUND('',#185,.T.);
#140=FACE_OUTER_BOUND('',#186,.T.);
#141=FACE_OUTER_BOUND('',#187,.T.);
#142=FACE_OUTER_BOUND('',#188,.T.);
#143=FACE_OUTER_BOUND('',#189,.T.);
#144=FACE_OUTER_BOUND('',#190,.T.);
#145=FACE_OUTER_BOUND('',#191,.T.);
#146=FACE_OUTER_BOUND('',#192,.T.);
#147=FACE_OUTER_BOUND('',#193,.T.);
#148=FACE_OUTER_BOUND('',#194,.T.);
#149=FACE_OUTER_BOUND('',#195,.T.);
#150=FACE_OUTER_BOUND('',#196,.T.);
#151=FACE_OUTER_BOUND('',#197,.T.);
#152=FACE_OUTER_BOUND('',#198,.T.);
#153=FACE_OUTER_BOUND('',#199,.T.);
#154=FACE_OUTER_BOUND('',#200,.T.);
#155=FACE_OUTER_BOUND('',#201,.T.);
#156=FACE_OUTER_BOUND('',#203,.T.);
#157=EDGE_LOOP('',(#501,#502));
#158=EDGE_LOOP('',(#503,#504,#505,#506));
#159=EDGE_LOOP('',(#507,#508,#509,#510));
#160=EDGE_LOOP('',(#511,#512));
#161=EDGE_LOOP('',(#513,#514,#515,#516));
#162=EDGE_LOOP('',(#517,#518,#519,#520));
#163=EDGE_LOOP('',(#521,#522,#523,#524));
#164=EDGE_LOOP('',(#525));
#165=EDGE_LOOP('',(#526,#527));
#166=EDGE_LOOP('',(#528));
#167=EDGE_LOOP('',(#529,#530));
#168=EDGE_LOOP('',(#531,#532,#533,#534));
#169=EDGE_LOOP('',(#535,#536,#537,#538));
#170=EDGE_LOOP('',(#539,#540,#541,#542));
#171=EDGE_LOOP('',(#543,#544,#545,#546));
#172=EDGE_LOOP('',(#547,#548,#549,#550));
#173=EDGE_LOOP('',(#551,#552,#553,#554));
#174=EDGE_LOOP('',(#555,#556,#557,#558));
#175=EDGE_LOOP('',(#559,#560,#561,#562));
#176=EDGE_LOOP('',(#563,#564,#565,#566));
#177=EDGE_LOOP('',(#567,#568,#569,#570));
#178=EDGE_LOOP('',(#571,#572,#573,#574));
#179=EDGE_LOOP('',(#575,#576,#577,#578));
#180=EDGE_LOOP('',(#579,#580,#581,#582));
#181=EDGE_LOOP('',(#583,#584,#585,#586));
#182=EDGE_LOOP('',(#587,#588,#589,#590));
#183=EDGE_LOOP('',(#591,#592,#593,#594));
#184=EDGE_LOOP('',(#595,#596,#597,#598));
#185=EDGE_LOOP('',(#599,#600,#601,#602));
#186=EDGE_LOOP('',(#603,#604,#605,#606));
#187=EDGE_LOOP('',(#607,#608,#609,#610));
#188=EDGE_LOOP('',(#611,#612,#613,#614));
#189=EDGE_LOOP('',(#615,#616,#617,#618));
#190=EDGE_LOOP('',(#619,#620,#621,#622));
#191=EDGE_LOOP('',(#623,#624,#625,#626));
#192=EDGE_LOOP('',(#627,#628,#629,#630));
#193=EDGE_LOOP('',(#631,#632,#633,#634));
#194=EDGE_LOOP('',(#635,#636,#637,#638));
#195=EDGE_LOOP('',(#639,#640,#641,#642));
#196=EDGE_LOOP('',(#643,#644,#645,#646));
#197=EDGE_LOOP('',(#647,#648,#649,#650));
#198=EDGE_LOOP('',(#651,#652,#653,#654));
#199=EDGE_LOOP('',(#655,#656,#657,#658));
#200=EDGE_LOOP('',(#659,#660,#661,#662));
#201=EDGE_LOOP('',(#663,#664,#665,#666,#667,#668,#669,#670,#671,#672,#673,
#674,#675,#676,#677,#678,#679,#680,#681,#682,#683,#684,#685,#686,#687,#688,
#689,#690));
#202=EDGE_LOOP('',(#691,#692,#693,#694,#695));
#203=EDGE_LOOP('',(#696,#697,#698,#699,#700,#701,#702,#703,#704,#705,#706,
#707,#708,#709,#710,#711,#712,#713,#714,#715,#716,#717,#718,#719,#720,#721,
#722,#723));
#204=EDGE_LOOP('',(#724,#725,#726,#727,#728));
#205=LINE('',#921,#255);
#206=LINE('',#924,#256);
#207=LINE('',#927,#257);
#208=LINE('',#929,#258);
#209=LINE('',#934,#259);
#210=LINE('',#936,#260);
#211=LINE('',#938,#261);
#212=LINE('',#939,#262);
#213=LINE('',#947,#263);
#214=LINE('',#963,#264);
#215=LINE('',#968,#265);
#216=LINE('',#983,#266);
#217=LINE('',#986,#267);
#218=LINE('',#988,#268);
#219=LINE('',#989,#269);
#220=LINE('',#1004,#270);
#221=LINE('',#1020,#271);
#222=LINE('',#1022,#272);
#223=LINE('',#1024,#273);
#224=LINE('',#1025,#274);
#225=LINE('',#1040,#275);
#226=LINE('',#1055,#276);
#227=LINE('',#1070,#277);
#228=LINE('',#1085,#278);
#229=LINE('',#1100,#279);
#230=LINE('',#1103,#280);
#231=LINE('',#1105,#281);
#232=LINE('',#1106,#282);
#233=LINE('',#1121,#283);
#234=LINE('',#1136,#284);
#235=LINE('',#1151,#285);
#236=LINE('',#1166,#286);
#237=LINE('',#1181,#287);
#238=LINE('',#1196,#288);
#239=LINE('',#1211,#289);
#240=LINE('',#1214,#290);
#241=LINE('',#1216,#291);
#242=LINE('',#1217,#292);
#243=LINE('',#1232,#293);
#244=LINE('',#1247,#294);
#245=LINE('',#1262,#295);
#246=LINE('',#1277,#296);
#247=LINE('',#1292,#297);
#248=LINE('',#1307,#298);
#249=LINE('',#1322,#299);
#250=LINE('',#1337,#300);
#251=LINE('',#1352,#301);
#252=LINE('',#1367,#302);
#253=LINE('',#1382,#303);
#254=LINE('',#1397,#304);
#255=VECTOR('',#828,10.);
#256=VECTOR('',#831,10.);
#257=VECTOR('',#834,10.);
#258=VECTOR('',#837,10.);
#259=VECTOR('',#842,10.);
#260=VECTOR('',#843,10.);
#261=VECTOR('',#844,10.);
#262=VECTOR('',#845,10.);
#263=VECTOR('',#856,7.5);
#264=VECTOR('',#863,10.);
#265=VECTOR('',#864,10.);
#266=VECTOR('',#865,10.);
#267=VECTOR('',#868,10.);
#268=VECTOR('',#869,10.);
#269=VECTOR('',#870,10.);
#270=VECTOR('',#871,10.);
#271=VECTOR('',#874,10.);
#272=VECTOR('',#875,10.);
#273=VECTOR('',#876,10.);
#274=VECTOR('',#877,10.);
#275=VECTOR('',#878,10.);
#276=VECTOR('',#879,10.);
#277=VECTOR('',#880,10.);
#278=VECTOR('',#881,10.);
#279=VECTOR('',#882,10.);
#280=VECTOR('',#885,10.);
#281=VECTOR('',#886,10.);
#282=VECTOR('',#887,10.);
#283=VECTOR('',#888,10.);
#284=VECTOR('',#889,10.);
#285=VECTOR('',#890,10.);
#286=VECTOR('',#891,10.);
#287=VECTOR('',#892,10.);
#288=VECTOR('',#893,10.);
#289=VECTOR('',#894,10.);
#290=VECTOR('',#897,10.);
#291=VECTOR('',#898,10.);
#292=VECTOR('',#899,10.);
#293=VECTOR('',#900,10.);
#294=VECTOR('',#901,10.);
#295=VECTOR('',#902,10.);
#296=VECTOR('',#903,10.);
#297=VECTOR('',#904,10.);
#298=VECTOR('',#905,10.);
#299=VECTOR('',#906,10.);
#300=VECTOR('',#907,10.);
#301=VECTOR('',#908,10.);
#302=VECTOR('',#909,10.);
#303=VECTOR('',#910,10.);
#304=VECTOR('',#911,10.);
#305=CIRCLE('',#802,2.69999999999973);
#306=CIRCLE('',#804,2.69999999999973);
#307=CIRCLE('',#809,2.69999999999973);
#308=CIRCLE('',#810,2.69999999999973);
#309=CIRCLE('',#812,7.5);
#310=CIRCLE('',#813,7.5);
#311=VERTEX_POINT('',#918);
#312=VERTEX_POINT('',#919);
#313=VERTEX_POINT('',#923);
#314=VERTEX_POINT('',#925);
#315=VERTEX_POINT('',#932);
#316=VERTEX_POINT('',#933);
#317=VERTEX_POINT('',#935);
#318=VERTEX_POINT('',#937);
#319=VERTEX_POINT('',#944);
#320=VERTEX_POINT('',#946);
#321=VERTEX_POINT('',#957);
#322=VERTEX_POINT('',#958);
#323=VERTEX_POINT('',#962);
#324=VERTEX_POINT('',#964);
#325=VERTEX_POINT('',#975);
#326=VERTEX_POINT('',#979);
#327=VERTEX_POINT('',#985);
#328=VERTEX_POINT('',#987);
#329=VERTEX_POINT('',#996);
#330=VERTEX_POINT('',#1000);
#331=VERTEX_POINT('',#1018);
#332=VERTEX_POINT('',#1019);
#333=VERTEX_POINT('',#1021);
#334=VERTEX_POINT('',#1023);
#335=VERTEX_POINT('',#1032);
#336=VERTEX_POINT('',#1036);
#337=VERTEX_POINT('',#1047);
#338=VERTEX_POINT('',#1051);
#339=VERTEX_POINT('',#1062);
#340=VERTEX_POINT('',#1066);
#341=VERTEX_POINT('',#1077);
#342=VERTEX_POINT('',#1081);
#343=VERTEX_POINT('',#1092);
#344=VERTEX_POINT('',#1096);
#345=VERTEX_POINT('',#1102);
#346=VERTEX_POINT('',#1104);
#347=VERTEX_POINT('',#1113);
#348=VERTEX_POINT('',#1117);
#349=VERTEX_POINT('',#1128);
#350=VERTEX_POINT('',#1132);
#351=VERTEX_POINT('',#1143);
#352=VERTEX_POINT('',#1147);
#353=VERTEX_POINT('',#1158);
#354=VERTEX_POINT('',#1162);
#355=VERTEX_POINT('',#1173);
#356=VERTEX_POINT('',#1177);
#357=VERTEX_POINT('',#1188);
#358=VERTEX_POINT('',#1192);
#359=VERTEX_POINT('',#1203);
#360=VERTEX_POINT('',#1207);
#361=VERTEX_POINT('',#1213);
#362=VERTEX_POINT('',#1215);
#363=VERTEX_POINT('',#1224);
#364=VERTEX_POINT('',#1228);
#365=VERTEX_POINT('',#1239);
#366=VERTEX_POINT('',#1243);
#367=VERTEX_POINT('',#1254);
#368=VERTEX_POINT('',#1258);
#369=VERTEX_POINT('',#1269);
#370=VERTEX_POINT('',#1273);
#371=VERTEX_POINT('',#1284);
#372=VERTEX_POINT('',#1288);
#373=VERTEX_POINT('',#1299);
#374=VERTEX_POINT('',#1303);
#375=VERTEX_POINT('',#1314);
#376=VERTEX_POINT('',#1318);
#377=VERTEX_POINT('',#1329);
#378=VERTEX_POINT('',#1333);
#379=VERTEX_POINT('',#1344);
#380=VERTEX_POINT('',#1348);
#381=VERTEX_POINT('',#1359);
#382=VERTEX_POINT('',#1363);
#383=VERTEX_POINT('',#1374);
#384=VERTEX_POINT('',#1378);
#385=VERTEX_POINT('',#1389);
#386=VERTEX_POINT('',#1393);
#387=EDGE_CURVE('',#311,#312,#305,.T.);
#388=EDGE_CURVE('',#312,#311,#205,.T.);
#389=EDGE_CURVE('',#312,#313,#206,.T.);
#390=EDGE_CURVE('',#314,#313,#306,.T.);
#391=EDGE_CURVE('',#311,#314,#207,.T.);
#392=EDGE_CURVE('',#313,#314,#208,.T.);
#393=EDGE_CURVE('',#315,#316,#209,.T.);
#394=EDGE_CURVE('',#316,#317,#210,.T.);
#395=EDGE_CURVE('',#318,#317,#211,.T.);
#396=EDGE_CURVE('',#315,#318,#212,.T.);
#397=EDGE_CURVE('',#316,#315,#307,.T.);
#398=EDGE_CURVE('',#317,#318,#308,.T.);
#399=EDGE_CURVE('',#319,#319,#309,.T.);
#400=EDGE_CURVE('',#319,#320,#213,.T.);
#401=EDGE_CURVE('',#320,#320,#310,.T.);
#402=EDGE_CURVE('',#321,#322,#13,.T.);
#403=EDGE_CURVE('',#321,#323,#214,.T.);
#404=EDGE_CURVE('',#324,#323,#14,.T.);
#405=EDGE_CURVE('',#322,#324,#215,.T.);
#406=EDGE_CURVE('',#322,#325,#15,.T.);
#407=EDGE_CURVE('',#326,#324,#16,.T.);
#408=EDGE_CURVE('',#325,#326,#216,.T.);
#409=EDGE_CURVE('',#325,#327,#217,.T.);
#410=EDGE_CURVE('',#328,#326,#218,.T.);
#411=EDGE_CURVE('',#327,#328,#219,.T.);
#412=EDGE_CURVE('',#327,#329,#17,.T.);
#413=EDGE_CURVE('',#330,#328,#18,.T.);
#414=EDGE_CURVE('',#329,#330,#220,.T.);
#415=EDGE_CURVE('',#329,#321,#19,.T.);
#416=EDGE_CURVE('',#323,#330,#20,.T.);
#417=EDGE_CURVE('',#331,#332,#221,.T.);
#418=EDGE_CURVE('',#331,#333,#222,.T.);
#419=EDGE_CURVE('',#334,#333,#223,.T.);
#420=EDGE_CURVE('',#332,#334,#224,.T.);
#421=EDGE_CURVE('',#332,#335,#21,.T.);
#422=EDGE_CURVE('',#336,#334,#22,.T.);
#423=EDGE_CURVE('',#335,#336,#225,.T.);
#424=EDGE_CURVE('',#335,#337,#23,.T.);
#425=EDGE_CURVE('',#338,#336,#24,.T.);
#426=EDGE_CURVE('',#337,#338,#226,.T.);
#427=EDGE_CURVE('',#337,#339,#25,.T.);
#428=EDGE_CURVE('',#340,#338,#26,.T.);
#429=EDGE_CURVE('',#339,#340,#227,.T.);
#430=EDGE_CURVE('',#339,#341,#27,.T.);
#431=EDGE_CURVE('',#342,#340,#28,.T.);
#432=EDGE_CURVE('',#341,#342,#228,.T.);
#433=EDGE_CURVE('',#341,#343,#29,.T.);
#434=EDGE_CURVE('',#344,#342,#30,.T.);
#435=EDGE_CURVE('',#343,#344,#229,.T.);
#436=EDGE_CURVE('',#343,#345,#230,.T.);
#437=EDGE_CURVE('',#346,#344,#231,.T.);
#438=EDGE_CURVE('',#345,#346,#232,.T.);
#439=EDGE_CURVE('',#345,#347,#31,.T.);
#440=EDGE_CURVE('',#348,#346,#32,.T.);
#441=EDGE_CURVE('',#347,#348,#233,.T.);
#442=EDGE_CURVE('',#347,#349,#33,.T.);
#443=EDGE_CURVE('',#350,#348,#34,.T.);
#444=EDGE_CURVE('',#349,#350,#234,.T.);
#445=EDGE_CURVE('',#349,#351,#35,.T.);
#446=EDGE_CURVE('',#352,#350,#36,.T.);
#447=EDGE_CURVE('',#351,#352,#235,.T.);
#448=EDGE_CURVE('',#351,#353,#37,.T.);
#449=EDGE_CURVE('',#354,#352,#38,.T.);
#450=EDGE_CURVE('',#353,#354,#236,.T.);
#451=EDGE_CURVE('',#353,#355,#39,.T.);
#452=EDGE_CURVE('',#356,#354,#40,.T.);
#453=EDGE_CURVE('',#355,#356,#237,.T.);
#454=EDGE_CURVE('',#355,#357,#41,.T.);
#455=EDGE_CURVE('',#358,#356,#42,.T.);
#456=EDGE_CURVE('',#357,#358,#238,.T.);
#457=EDGE_CURVE('',#357,#359,#43,.T.);
#458=EDGE_CURVE('',#360,#358,#44,.T.);
#459=EDGE_CURVE('',#359,#360,#239,.T.);
#460=EDGE_CURVE('',#359,#361,#240,.T.);
#461=EDGE_CURVE('',#362,#360,#241,.T.);
#462=EDGE_CURVE('',#361,#362,#242,.T.);
#463=EDGE_CURVE('',#361,#363,#45,.T.);
#464=EDGE_CURVE('',#364,#362,#46,.T.);
#465=EDGE_CURVE('',#363,#364,#243,.T.);
#466=EDGE_CURVE('',#363,#365,#47,.T.);
#467=EDGE_CURVE('',#366,#364,#48,.T.);
#468=EDGE_CURVE('',#365,#366,#244,.T.);
#469=EDGE_CURVE('',#365,#367,#49,.T.);
#470=EDGE_CURVE('',#368,#366,#50,.T.);
#471=EDGE_CURVE('',#367,#368,#245,.T.);
#472=EDGE_CURVE('',#367,#369,#51,.T.);
#473=EDGE_CURVE('',#370,#368,#52,.T.);
#474=EDGE_CURVE('',#369,#370,#246,.T.);
#475=EDGE_CURVE('',#369,#371,#53,.T.);
#476=EDGE_CURVE('',#372,#370,#54,.T.);
#477=EDGE_CURVE('',#371,#372,#247,.T.);
#478=EDGE_CURVE('',#371,#373,#55,.T.);
#479=EDGE_CURVE('',#374,#372,#56,.T.);
#480=EDGE_CURVE('',#373,#374,#248,.T.);
#481=EDGE_CURVE('',#373,#375,#57,.T.);
#482=EDGE_CURVE('',#376,#374,#58,.T.);
#483=EDGE_CURVE('',#375,#376,#249,.T.);
#484=EDGE_CURVE('',#375,#377,#59,.T.);
#485=EDGE_CURVE('',#378,#376,#60,.T.);
#486=EDGE_CURVE('',#377,#378,#250,.T.);
#487=EDGE_CURVE('',#377,#379,#61,.T.);
#488=EDGE_CURVE('',#380,#378,#62,.T.);
#489=EDGE_CURVE('',#379,#380,#251,.T.);
#490=EDGE_CURVE('',#379,#381,#63,.T.);
#491=EDGE_CURVE('',#382,#380,#64,.T.);
#492=EDGE_CURVE('',#381,#382,#252,.T.);
#493=EDGE_CURVE('',#381,#383,#65,.T.);
#494=EDGE_CURVE('',#384,#382,#66,.T.);
#495=EDGE_CURVE('',#383,#384,#253,.T.);
#496=EDGE_CURVE('',#383,#385,#67,.T.);
#497=EDGE_CURVE('',#386,#384,#68,.T.);
#498=EDGE_CURVE('',#385,#386,#254,.T.);
#499=EDGE_CURVE('',#385,#331,#69,.T.);
#500=EDGE_CURVE('',#333,#386,#70,.T.);
#501=ORIENTED_EDGE('',*,*,#387,.F.);
#502=ORIENTED_EDGE('',*,*,#388,.F.);
#503=ORIENTED_EDGE('',*,*,#387,.T.);
#504=ORIENTED_EDGE('',*,*,#389,.T.);
#505=ORIENTED_EDGE('',*,*,#390,.F.);
#506=ORIENTED_EDGE('',*,*,#391,.F.);
#507=ORIENTED_EDGE('',*,*,#388,.T.);
#508=ORIENTED_EDGE('',*,*,#391,.T.);
#509=ORIENTED_EDGE('',*,*,#392,.F.);
#510=ORIENTED_EDGE('',*,*,#389,.F.);
#511=ORIENTED_EDGE('',*,*,#390,.T.);
#512=ORIENTED_EDGE('',*,*,#392,.T.);
#513=ORIENTED_EDGE('',*,*,#393,.T.);
#514=ORIENTED_EDGE('',*,*,#394,.T.);
#515=ORIENTED_EDGE('',*,*,#395,.F.);
#516=ORIENTED_EDGE('',*,*,#396,.F.);
#517=ORIENTED_EDGE('',*,*,#397,.T.);
#518=ORIENTED_EDGE('',*,*,#396,.T.);
#519=ORIENTED_EDGE('',*,*,#398,.F.);
#520=ORIENTED_EDGE('',*,*,#394,.F.);
#521=ORIENTED_EDGE('',*,*,#399,.F.);
#522=ORIENTED_EDGE('',*,*,#400,.T.);
#523=ORIENTED_EDGE('',*,*,#401,.T.);
#524=ORIENTED_EDGE('',*,*,#400,.F.);
#525=ORIENTED_EDGE('',*,*,#399,.T.);
#526=ORIENTED_EDGE('',*,*,#398,.T.);
#527=ORIENTED_EDGE('',*,*,#395,.T.);
#528=ORIENTED_EDGE('',*,*,#401,.F.);
#529=ORIENTED_EDGE('',*,*,#397,.F.);
#530=ORIENTED_EDGE('',*,*,#393,.F.);
#531=ORIENTED_EDGE('',*,*,#402,.F.);
#532=ORIENTED_EDGE('',*,*,#403,.T.);
#533=ORIENTED_EDGE('',*,*,#404,.F.);
#534=ORIENTED_EDGE('',*,*,#405,.F.);
#535=ORIENTED_EDGE('',*,*,#406,.F.);
#536=ORIENTED_EDGE('',*,*,#405,.T.);
#537=ORIENTED_EDGE('',*,*,#407,.F.);
#538=ORIENTED_EDGE('',*,*,#408,.F.);
#539=ORIENTED_EDGE('',*,*,#409,.F.);
#540=ORIENTED_EDGE('',*,*,#408,.T.);
#541=ORIENTED_EDGE('',*,*,#410,.F.);
#542=ORIENTED_EDGE('',*,*,#411,.F.);
#543=ORIENTED_EDGE('',*,*,#412,.F.);
#544=ORIENTED_EDGE('',*,*,#411,.T.);
#545=ORIENTED_EDGE('',*,*,#413,.F.);
#546=ORIENTED_EDGE('',*,*,#414,.F.);
#547=ORIENTED_EDGE('',*,*,#415,.F.);
#548=ORIENTED_EDGE('',*,*,#414,.T.);
#549=ORIENTED_EDGE('',*,*,#416,.F.);
#550=ORIENTED_EDGE('',*,*,#403,.F.);
#551=ORIENTED_EDGE('',*,*,#417,.F.);
#552=ORIENTED_EDGE('',*,*,#418,.T.);
#553=ORIENTED_EDGE('',*,*,#419,.F.);
#554=ORIENTED_EDGE('',*,*,#420,.F.);
#555=ORIENTED_EDGE('',*,*,#421,.F.);
#556=ORIENTED_EDGE('',*,*,#420,.T.);
#557=ORIENTED_EDGE('',*,*,#422,.F.);
#558=ORIENTED_EDGE('',*,*,#423,.F.);
#559=ORIENTED_EDGE('',*,*,#424,.F.);
#560=ORIENTED_EDGE('',*,*,#423,.T.);
#561=ORIENTED_EDGE('',*,*,#425,.F.);
#562=ORIENTED_EDGE('',*,*,#426,.F.);
#563=ORIENTED_EDGE('',*,*,#427,.F.);
#564=ORIENTED_EDGE('',*,*,#426,.T.);
#565=ORIENTED_EDGE('',*,*,#428,.F.);
#566=ORIENTED_EDGE('',*,*,#429,.F.);
#567=ORIENTED_EDGE('',*,*,#430,.F.);
#568=ORIENTED_EDGE('',*,*,#429,.T.);
#569=ORIENTED_EDGE('',*,*,#431,.F.);
#570=ORIENTED_EDGE('',*,*,#432,.F.);
#571=ORIENTED_EDGE('',*,*,#433,.F.);
#572=ORIENTED_EDGE('',*,*,#432,.T.);
#573=ORIENTED_EDGE('',*,*,#434,.F.);
#574=ORIENTED_EDGE('',*,*,#435,.F.);
#575=ORIENTED_EDGE('',*,*,#436,.F.);
#576=ORIENTED_EDGE('',*,*,#435,.T.);
#577=ORIENTED_EDGE('',*,*,#437,.F.);
#578=ORIENTED_EDGE('',*,*,#438,.F.);
#579=ORIENTED_EDGE('',*,*,#439,.F.);
#580=ORIENTED_EDGE('',*,*,#438,.T.);
#581=ORIENTED_EDGE('',*,*,#440,.F.);
#582=ORIENTED_EDGE('',*,*,#441,.F.);
#583=ORIENTED_EDGE('',*,*,#442,.F.);
#584=ORIENTED_EDGE('',*,*,#441,.T.);
#585=ORIENTED_EDGE('',*,*,#443,.F.);
#586=ORIENTED_EDGE('',*,*,#444,.F.);
#587=ORIENTED_EDGE('',*,*,#445,.F.);
#588=ORIENTED_EDGE('',*,*,#444,.T.);
#589=ORIENTED_EDGE('',*,*,#446,.F.);
#590=ORIENTED_EDGE('',*,*,#447,.F.);
#591=ORIENTED_EDGE('',*,*,#448,.F.);
#592=ORIENTED_EDGE('',*,*,#447,.T.);
#593=ORIENTED_EDGE('',*,*,#449,.F.);
#594=ORIENTED_EDGE('',*,*,#450,.F.);
#595=ORIENTED_EDGE('',*,*,#451,.F.);
#596=ORIENTED_EDGE('',*,*,#450,.T.);
#597=ORIENTED_EDGE('',*,*,#452,.F.);
#598=ORIENTED_EDGE('',*,*,#453,.F.);
#599=ORIENTED_EDGE('',*,*,#454,.F.);
#600=ORIENTED_EDGE('',*,*,#453,.T.);
#601=ORIENTED_EDGE('',*,*,#455,.F.);
#602=ORIENTED_EDGE('',*,*,#456,.F.);
#603=ORIENTED_EDGE('',*,*,#457,.F.);
#604=ORIENTED_EDGE('',*,*,#456,.T.);
#605=ORIENTED_EDGE('',*,*,#458,.F.);
#606=ORIENTED_EDGE('',*,*,#459,.F.);
#607=ORIENTED_EDGE('',*,*,#460,.F.);
#608=ORIENTED_EDGE('',*,*,#459,.T.);
#609=ORIENTED_EDGE('',*,*,#461,.F.);
#610=ORIENTED_EDGE('',*,*,#462,.F.);
#611=ORIENTED_EDGE('',*,*,#463,.F.);
#612=ORIENTED_EDGE('',*,*,#462,.T.);
#613=ORIENTED_EDGE('',*,*,#464,.F.);
#614=ORIENTED_EDGE('',*,*,#465,.F.);
#615=ORIENTED_EDGE('',*,*,#466,.F.);
#616=ORIENTED_EDGE('',*,*,#465,.T.);
#617=ORIENTED_EDGE('',*,*,#467,.F.);
#618=ORIENTED_EDGE('',*,*,#468,.F.);
#619=ORIENTED_EDGE('',*,*,#469,.F.);
#620=ORIENTED_EDGE('',*,*,#468,.T.);
#621=ORIENTED_EDGE('',*,*,#470,.F.);
#622=ORIENTED_EDGE('',*,*,#471,.F.);
#623=ORIENTED_EDGE('',*,*,#472,.F.);
#624=ORIENTED_EDGE('',*,*,#471,.T.);
#625=ORIENTED_EDGE('',*,*,#473,.F.);
#626=ORIENTED_EDGE('',*,*,#474,.F.);
#627=ORIENTED_EDGE('',*,*,#475,.F.);
#628=ORIENTED_EDGE('',*,*,#474,.T.);
#629=ORIENTED_EDGE('',*,*,#476,.F.);
#630=ORIENTED_EDGE('',*,*,#477,.F.);
#631=ORIENTED_EDGE('',*,*,#478,.F.);
#632=ORIENTED_EDGE('',*,*,#477,.T.);
#633=ORIENTED_EDGE('',*,*,#479,.F.);
#634=ORIENTED_EDGE('',*,*,#480,.F.);
#635=ORIENTED_EDGE('',*,*,#481,.F.);
#636=ORIENTED_EDGE('',*,*,#480,.T.);
#637=ORIENTED_EDGE('',*,*,#482,.F.);
#638=ORIENTED_EDGE('',*,*,#483,.F.);
#639=ORIENTED_EDGE('',*,*,#484,.F.);
#640=ORIENTED_EDGE('',*,*,#483,.T.);
#641=ORIENTED_EDGE('',*,*,#485,.F.);
#642=ORIENTED_EDGE('',*,*,#486,.F.);
#643=ORIENTED_EDGE('',*,*,#487,.F.);
#644=ORIENTED_EDGE('',*,*,#486,.T.);
#645=ORIENTED_EDGE('',*,*,#488,.F.);
#646=ORIENTED_EDGE('',*,*,#489,.F.);
#647=ORIENTED_EDGE('',*,*,#490,.F.);
#648=ORIENTED_EDGE('',*,*,#489,.T.);
#649=ORIENTED_EDGE('',*,*,#491,.F.);
#650=ORIENTED_EDGE('',*,*,#492,.F.);
#651=ORIENTED_EDGE('',*,*,#493,.F.);
#652=ORIENTED_EDGE('',*,*,#492,.T.);
#653=ORIENTED_EDGE('',*,*,#494,.F.);
#654=ORIENTED_EDGE('',*,*,#495,.F.);
#655=ORIENTED_EDGE('',*,*,#496,.F.);
#656=ORIENTED_EDGE('',*,*,#495,.T.);
#657=ORIENTED_EDGE('',*,*,#497,.F.);
#658=ORIENTED_EDGE('',*,*,#498,.F.);
#659=ORIENTED_EDGE('',*,*,#499,.F.);
#660=ORIENTED_EDGE('',*,*,#498,.T.);
#661=ORIENTED_EDGE('',*,*,#500,.F.);
#662=ORIENTED_EDGE('',*,*,#418,.F.);
#663=ORIENTED_EDGE('',*,*,#500,.T.);
#664=ORIENTED_EDGE('',*,*,#497,.T.);
#665=ORIENTED_EDGE('',*,*,#494,.T.);
#666=ORIENTED_EDGE('',*,*,#491,.T.);
#667=ORIENTED_EDGE('',*,*,#488,.T.);
#668=ORIENTED_EDGE('',*,*,#485,.T.);
#669=ORIENTED_EDGE('',*,*,#482,.T.);
#670=ORIENTED_EDGE('',*,*,#479,.T.);
#671=ORIENTED_EDGE('',*,*,#476,.T.);
#672=ORIENTED_EDGE('',*,*,#473,.T.);
#673=ORIENTED_EDGE('',*,*,#470,.T.);
#674=ORIENTED_EDGE('',*,*,#467,.T.);
#675=ORIENTED_EDGE('',*,*,#464,.T.);
#676=ORIENTED_EDGE('',*,*,#461,.T.);
#677=ORIENTED_EDGE('',*,*,#458,.T.);
#678=ORIENTED_EDGE('',*,*,#455,.T.);
#679=ORIENTED_EDGE('',*,*,#452,.T.);
#680=ORIENTED_EDGE('',*,*,#449,.T.);
#681=ORIENTED_EDGE('',*,*,#446,.T.);
#682=ORIENTED_EDGE('',*,*,#443,.T.);
#683=ORIENTED_EDGE('',*,*,#440,.T.);
#684=ORIENTED_EDGE('',*,*,#437,.T.);
#685=ORIENTED_EDGE('',*,*,#434,.T.);
#686=ORIENTED_EDGE('',*,*,#431,.T.);
#687=ORIENTED_EDGE('',*,*,#428,.T.);
#688=ORIENTED_EDGE('',*,*,#425,.T.);
#689=ORIENTED_EDGE('',*,*,#422,.T.);
#690=ORIENTED_EDGE('',*,*,#419,.T.);
#691=ORIENTED_EDGE('',*,*,#416,.T.);
#692=ORIENTED_EDGE('',*,*,#413,.T.);
#693=ORIENTED_EDGE('',*,*,#410,.T.);
#694=ORIENTED_EDGE('',*,*,#407,.T.);
#695=ORIENTED_EDGE('',*,*,#404,.T.);
#696=ORIENTED_EDGE('',*,*,#499,.T.);
#697=ORIENTED_EDGE('',*,*,#417,.T.);
#698=ORIENTED_EDGE('',*,*,#421,.T.);
#699=ORIENTED_EDGE('',*,*,#424,.T.);
#700=ORIENTED_EDGE('',*,*,#427,.T.);
#701=ORIENTED_EDGE('',*,*,#430,.T.);
#702=ORIENTED_EDGE('',*,*,#433,.T.);
#703=ORIENTED_EDGE('',*,*,#436,.T.);
#704=ORIENTED_EDGE('',*,*,#439,.T.);
#705=ORIENTED_EDGE('',*,*,#442,.T.);
#706=ORIENTED_EDGE('',*,*,#445,.T.);
#707=ORIENTED_EDGE('',*,*,#448,.T.);
#708=ORIENTED_EDGE('',*,*,#451,.T.);
#709=ORIENTED_EDGE('',*,*,#454,.T.);
#710=ORIENTED_EDGE('',*,*,#457,.T.);
#711=ORIENTED_EDGE('',*,*,#460,.T.);
#712=ORIENTED_EDGE('',*,*,#463,.T.);
#713=ORIENTED_EDGE('',*,*,#466,.T.);
#714=ORIENTED_EDGE('',*,*,#469,.T.);
#715=ORIENTED_EDGE('',*,*,#472,.T.);
#716=ORIENTED_EDGE('',*,*,#475,.T.);
#717=ORIENTED_EDGE('',*,*,#478,.T.);
#718=ORIENTED_EDGE('',*,*,#481,.T.);
#719=ORIENTED_EDGE('',*,*,#484,.T.);
#720=ORIENTED_EDGE('',*,*,#487,.T.);
#721=ORIENTED_EDGE('',*,*,#490,.T.);
#722=ORIENTED_EDGE('',*,*,#493,.T.);
#723=ORIENTED_EDGE('',*,*,#496,.T.);
#724=ORIENTED_EDGE('',*,*,#415,.T.);
#725=ORIENTED_EDGE('',*,*,#402,.T.);
#726=ORIENTED_EDGE('',*,*,#406,.T.);
#727=ORIENTED_EDGE('',*,*,#409,.T.);
#728=ORIENTED_EDGE('',*,*,#412,.T.);
#729=PLANE('',#801);
#730=PLANE('',#805);
#731=PLANE('',#806);
#732=PLANE('',#807);
#733=PLANE('',#814);
#734=PLANE('',#815);
#735=PLANE('',#816);
#736=PLANE('',#817);
#737=PLANE('',#818);
#738=PLANE('',#819);
#739=PLANE('',#820);
#740=PLANE('',#821);
#741=ADVANCED_FACE('',(#113),#729,.F.);
#742=ADVANCED_FACE('',(#114),#110,.T.);
#743=ADVANCED_FACE('',(#115),#730,.T.);
#744=ADVANCED_FACE('',(#116),#731,.T.);
#745=ADVANCED_FACE('',(#117),#732,.T.);
#746=ADVANCED_FACE('',(#118),#111,.F.);
#747=ADVANCED_FACE('',(#119),#112,.T.);
#748=ADVANCED_FACE('',(#120,#100),#733,.T.);
#749=ADVANCED_FACE('',(#121,#101),#734,.F.);
#750=ADVANCED_FACE('',(#122),#71,.T.);
#751=ADVANCED_FACE('',(#123),#72,.T.);
#752=ADVANCED_FACE('',(#124),#735,.T.);
#753=ADVANCED_FACE('',(#125),#73,.T.);
#754=ADVANCED_FACE('',(#126),#74,.T.);
#755=ADVANCED_FACE('',(#127),#736,.T.);
#756=ADVANCED_FACE('',(#128),#75,.T.);
#757=ADVANCED_FACE('',(#129),#76,.T.);
#758=ADVANCED_FACE('',(#130),#77,.T.);
#759=ADVANCED_FACE('',(#131),#78,.T.);
#760=ADVANCED_FACE('',(#132),#79,.T.);
#761=ADVANCED_FACE('',(#133),#737,.T.);
#762=ADVANCED_FACE('',(#134),#80,.T.);
#763=ADVANCED_FACE('',(#135),#81,.T.);
#764=ADVANCED_FACE('',(#136),#82,.T.);
#765=ADVANCED_FACE('',(#137),#83,.T.);
#766=ADVANCED_FACE('',(#138),#84,.T.);
#767=ADVANCED_FACE('',(#139),#85,.T.);
#768=ADVANCED_FACE('',(#140),#86,.T.);
#769=ADVANCED_FACE('',(#141),#738,.T.);
#770=ADVANCED_FACE('',(#142),#87,.T.);
#771=ADVANCED_FACE('',(#143),#88,.T.);
#772=ADVANCED_FACE('',(#144),#89,.T.);
#773=ADVANCED_FACE('',(#145),#90,.T.);
#774=ADVANCED_FACE('',(#146),#91,.T.);
#775=ADVANCED_FACE('',(#147),#92,.T.);
#776=ADVANCED_FACE('',(#148),#93,.T.);
#777=ADVANCED_FACE('',(#149),#94,.T.);
#778=ADVANCED_FACE('',(#150),#95,.T.);
#779=ADVANCED_FACE('',(#151),#96,.T.);
#780=ADVANCED_FACE('',(#152),#97,.T.);
#781=ADVANCED_FACE('',(#153),#98,.T.);
#782=ADVANCED_FACE('',(#154),#99,.T.);
#783=ADVANCED_FACE('',(#155,#102),#739,.T.);
#784=ADVANCED_FACE('',(#156,#103),#740,.F.);
#785=CLOSED_SHELL('',(#741,#742,#743,#744));
#786=CLOSED_SHELL('',(#745,#746,#747,#748,#749));
#787=CLOSED_SHELL('',(#750,#751,#752,#753,#754,#755,#756,#757,#758,#759,
#760,#761,#762,#763,#764,#765,#766,#767,#768,#769,#770,#771,#772,#773,#774,
#775,#776,#777,#778,#779,#780,#781,#782,#783,#784));
#788=DERIVED_UNIT_ELEMENT(#790,1.);
#789=DERIVED_UNIT_ELEMENT(#1417,-3.);
#790=(
MASS_UNIT()
NAMED_UNIT(*)
SI_UNIT(.KILO.,.GRAM.)
);
#791=DERIVED_UNIT((#788,#789));
#792=MEASURE_REPRESENTATION_ITEM('density measure',
POSITIVE_RATIO_MEASURE(7850.),#791);
#793=PROPERTY_DEFINITION_REPRESENTATION(#798,#795);
#794=PROPERTY_DEFINITION_REPRESENTATION(#799,#796);
#795=REPRESENTATION('material name',(#797),#1414);
#796=REPRESENTATION('density',(#792),#1414);
#797=DESCRIPTIVE_REPRESENTATION_ITEM('Steel','Steel');
#798=PROPERTY_DEFINITION('material property','material name',#1424);
#799=PROPERTY_DEFINITION('material property','density of part',#1424);
#800=AXIS2_PLACEMENT_3D('',#916,#822,#823);
#801=AXIS2_PLACEMENT_3D('',#917,#824,#825);
#802=AXIS2_PLACEMENT_3D('',#920,#826,#827);
#803=AXIS2_PLACEMENT_3D('',#922,#829,#830);
#804=AXIS2_PLACEMENT_3D('',#926,#832,#833);
#805=AXIS2_PLACEMENT_3D('',#928,#835,#836);
#806=AXIS2_PLACEMENT_3D('',#930,#838,#839);
#807=AXIS2_PLACEMENT_3D('',#931,#840,#841);
#808=AXIS2_PLACEMENT_3D('',#940,#846,#847);
#809=AXIS2_PLACEMENT_3D('',#941,#848,#849);
#810=AXIS2_PLACEMENT_3D('',#942,#850,#851);
#811=AXIS2_PLACEMENT_3D('',#943,#852,#853);
#812=AXIS2_PLACEMENT_3D('',#945,#854,#855);
#813=AXIS2_PLACEMENT_3D('',#948,#857,#858);
#814=AXIS2_PLACEMENT_3D('',#949,#859,#860);
#815=AXIS2_PLACEMENT_3D('',#950,#861,#862);
#816=AXIS2_PLACEMENT_3D('',#984,#866,#867);
#817=AXIS2_PLACEMENT_3D('',#1017,#872,#873);
#818=AXIS2_PLACEMENT_3D('',#1101,#883,#884);
#819=AXIS2_PLACEMENT_3D('',#1212,#895,#896);
#820=AXIS2_PLACEMENT_3D('',#1410,#912,#913);
#821=AXIS2_PLACEMENT_3D('',#1411,#914,#915);
#822=DIRECTION('axis',(0.,0.,1.));
#823=DIRECTION('refdir',(1.,0.,0.));
#824=DIRECTION('center_axis',(-1.11976400374288E-16,5.0306980803327E-18,
1.));
#825=DIRECTION('ref_axis',(-1.,-4.50812699915326E-49,-1.11976400374288E-16));
#826=DIRECTION('center_axis',(-1.11976400374288E-16,5.0306980803327E-18,
1.));
#827=DIRECTION('ref_axis',(0.831479419283058,-0.555555555555615,0.));
#828=DIRECTION('',(1.,9.89065281203777E-16,1.11976400374288E-16));
#829=DIRECTION('center_axis',(0.,0.,1.));
#830=DIRECTION('ref_axis',(-1.95317013591483E-15,1.,0.));
#831=DIRECTION('',(0.,0.,1.));
#832=DIRECTION('center_axis',(-1.11976400374288E-16,5.0306980803327E-18,
1.));
#833=DIRECTION('ref_axis',(0.831479419283058,-0.555555555555615,9.59009046234718E-17));
#834=DIRECTION('',(0.,0.,1.));
#835=DIRECTION('center_axis',(9.89065281203777E-16,-1.,0.));
#836=DIRECTION('ref_axis',(1.,9.89065281203777E-16,1.11976400374288E-16));
#837=DIRECTION('',(1.,9.89065281203777E-16,1.11976400374288E-16));
#838=DIRECTION('center_axis',(-1.11976400374288E-16,5.0306980803327E-18,
1.));
#839=DIRECTION('ref_axis',(-1.,-4.50812699915326E-49,-1.11976400374288E-16));
#840=DIRECTION('center_axis',(-9.89065281203777E-16,1.,0.));
#841=DIRECTION('ref_axis',(-1.,-9.89065281203777E-16,-1.11976400374288E-16));
#842=DIRECTION('',(-1.,-9.89065281203777E-16,-1.11976400374288E-16));
#843=DIRECTION('',(0.,0.,1.));
#844=DIRECTION('',(-1.,-9.89065281203777E-16,-1.11976400374288E-16));
#845=DIRECTION('',(0.,0.,1.));
#846=DIRECTION('center_axis',(0.,0.,1.));
#847=DIRECTION('ref_axis',(-1.95317013591483E-15,1.,0.));
#848=DIRECTION('center_axis',(1.11976400374288E-16,-5.0306980803327E-18,
-1.));
#849=DIRECTION('ref_axis',(0.831479419283058,-0.555555555555615,9.59009046234718E-17));
#850=DIRECTION('center_axis',(1.11976400374288E-16,-5.0306980803327E-18,
-1.));
#851=DIRECTION('ref_axis',(0.831479419283058,-0.555555555555615,9.59009046234718E-17));
#852=DIRECTION('center_axis',(0.,0.,1.));
#853=DIRECTION('ref_axis',(-1.,0.,0.));
#854=DIRECTION('center_axis',(-1.11976400374288E-16,5.03069808033267E-18,
1.));
#855=DIRECTION('ref_axis',(-1.,0.,-1.11976400374288E-16));
#856=DIRECTION('',(0.,0.,-1.));
#857=DIRECTION('center_axis',(-1.11976400374288E-16,5.03069808033267E-18,
1.));
#858=DIRECTION('ref_axis',(-1.,0.,-1.11976400374288E-16));
#859=DIRECTION('center_axis',(-1.11976400374288E-16,5.03069808033267E-18,
1.));
#860=DIRECTION('ref_axis',(-1.,0.,-1.11976400374288E-16));
#861=DIRECTION('center_axis',(-1.11976400374288E-16,5.03069808033267E-18,
1.));
#862=DIRECTION('ref_axis',(-1.,0.,-1.11976400374288E-16));
#863=DIRECTION('',(0.,0.,1.));
#864=DIRECTION('',(0.,0.,1.));
#865=DIRECTION('',(0.,0.,1.));
#866=DIRECTION('center_axis',(0.0177897845331841,0.999841749261483,0.));
#867=DIRECTION('ref_axis',(-0.999841749261483,0.0177897845331841,-1.12048175061133E-16));
#868=DIRECTION('',(0.999841749261483,-0.0177897845331841,1.12048175061133E-16));
#869=DIRECTION('',(-0.999841749261483,0.0177897845331841,-1.12048175061133E-16));
#870=DIRECTION('',(0.,0.,1.));
#871=DIRECTION('',(0.,0.,1.));
#872=DIRECTION('center_axis',(0.,1.,0.));
#873=DIRECTION('ref_axis',(-1.,0.,-1.11976400374288E-16));
#874=DIRECTION('',(1.,0.,1.11976400374288E-16));
#875=DIRECTION('',(0.,0.,1.));
#876=DIRECTION('',(-1.,0.,-1.11976400374288E-16));
#877=DIRECTION('',(0.,0.,1.));
#878=DIRECTION('',(0.,0.,1.));
#879=DIRECTION('',(0.,0.,1.));
#880=DIRECTION('',(0.,0.,1.));
#881=DIRECTION('',(0.,0.,1.));
#882=DIRECTION('',(0.,0.,1.));
#883=DIRECTION('center_axis',(-0.0712454384249604,-0.997458814941066,0.));
#884=DIRECTION('ref_axis',(0.997458814941066,-0.0712454384249603,1.1205026190902E-16));
#885=DIRECTION('',(-0.997458814941066,0.0712454384249603,-1.1205026190902E-16));
#886=DIRECTION('',(0.997458814941066,-0.0712454384249603,1.1205026190902E-16));
#887=DIRECTION('',(0.,0.,1.));
#888=DIRECTION('',(0.,0.,1.));
#889=DIRECTION('',(0.,0.,1.));
#890=DIRECTION('',(0.,0.,1.));
#891=DIRECTION('',(0.,0.,1.));
#892=DIRECTION('',(0.,0.,1.));
#893=DIRECTION('',(0.,0.,1.));
#894=DIRECTION('',(0.,0.,1.));
#895=DIRECTION('center_axis',(-0.946029557884617,-0.324080353629522,0.));
#896=DIRECTION('ref_axis',(0.324080353629522,-0.946029557884617,4.10485405122481E-17));
#897=DIRECTION('',(-0.324080353629522,0.946029557884617,-4.10485405122481E-17));
#898=DIRECTION('',(0.324080353629522,-0.946029557884617,4.10485405122481E-17));
#899=DIRECTION('',(0.,0.,1.));
#900=DIRECTION('',(0.,0.,1.));
#901=DIRECTION('',(0.,0.,1.));
#902=DIRECTION('',(0.,0.,1.));
#903=DIRECTION('',(0.,0.,1.));
#904=DIRECTION('',(0.,0.,1.));
#905=DIRECTION('',(0.,0.,1.));
#906=DIRECTION('',(0.,0.,1.));
#907=DIRECTION('',(0.,0.,1.));
#908=DIRECTION('',(0.,0.,1.));
#909=DIRECTION('',(0.,0.,1.));
#910=DIRECTION('',(0.,0.,1.));
#911=DIRECTION('',(0.,0.,1.));
#912=DIRECTION('center_axis',(-1.11976400374288E-16,5.03069808033267E-18,
1.));
#913=DIRECTION('ref_axis',(-1.,0.,-1.11976400374288E-16));
#914=DIRECTION('center_axis',(-1.11976400374288E-16,5.03069808033267E-18,
1.));
#915=DIRECTION('ref_axis',(-1.,0.,-1.11976400374288E-16));
#916=CARTESIAN_POINT('',(0.,0.,0.));
#917=CARTESIAN_POINT('Origin',(79.9188618215564,-34.5000004470349,29.2));
#918=CARTESIAN_POINT('',(82.1638562536204,-36.6000004470348,29.2));
#919=CARTESIAN_POINT('',(77.6738673894924,-36.6000004470348,29.2));
#920=CARTESIAN_POINT('Origin',(79.9188618215564,-35.1000004470348,29.2));
#921=CARTESIAN_POINT('',(78.7963646055244,-36.6000004470348,29.2));
#922=CARTESIAN_POINT('Origin',(79.9188618215564,-35.1000004470348,24.2));
#923=CARTESIAN_POINT('',(77.6738673894924,-36.6000004470348,34.2));
#924=CARTESIAN_POINT('',(77.6738673894924,-36.6000004470348,24.2));
#925=CARTESIAN_POINT('',(82.1638562536204,-36.6000004470348,34.2));
#926=CARTESIAN_POINT('Origin',(79.9188618215564,-35.1000004470348,34.2));
#927=CARTESIAN_POINT('',(82.1638562536204,-36.6000004470348,24.2));
#928=CARTESIAN_POINT('Origin',(77.6738673894924,-36.6000004470348,24.2));
#929=CARTESIAN_POINT('',(77.6738673894924,-36.6000004470348,34.2));
#930=CARTESIAN_POINT('Origin',(79.9188618215564,-34.5000004470349,34.2));
#931=CARTESIAN_POINT('Origin',(82.1638562536204,-36.6000004470348,24.2));
#932=CARTESIAN_POINT('',(82.1638562536204,-36.6000004470348,24.2));
#933=CARTESIAN_POINT('',(77.6738673894924,-36.6000004470348,24.2));
#934=CARTESIAN_POINT('',(77.6738673894924,-36.6000004470348,24.2));
#935=CARTESIAN_POINT('',(77.6738673894924,-36.6000004470348,34.2));
#936=CARTESIAN_POINT('',(77.6738673894924,-36.6000004470348,24.2));
#937=CARTESIAN_POINT('',(82.1638562536204,-36.6000004470348,34.2));
#938=CARTESIAN_POINT('',(77.6738673894924,-36.6000004470348,34.2));
#939=CARTESIAN_POINT('',(82.1638562536204,-36.6000004470348,24.2));
#940=CARTESIAN_POINT('Origin',(79.9188618215564,-35.1000004470348,24.2));
#941=CARTESIAN_POINT('Origin',(79.9188618215564,-35.1000004470348,24.2));
#942=CARTESIAN_POINT('Origin',(79.9188618215564,-35.1000004470348,34.2));
#943=CARTESIAN_POINT('Origin',(79.9188618215564,-35.1000004470348,24.2));
#944=CARTESIAN_POINT('',(87.4188618215564,-35.1000004470348,34.2));
#945=CARTESIAN_POINT('Origin',(79.9188618215564,-35.1000004470348,34.2));
#946=CARTESIAN_POINT('',(87.4188618215564,-35.1000004470348,24.2));
#947=CARTESIAN_POINT('',(87.4188618215564,-35.1000004470348,24.2));
#948=CARTESIAN_POINT('Origin',(79.9188618215564,-35.1000004470348,24.2));
#949=CARTESIAN_POINT('Origin',(79.9188618215564,-35.1000004470348,34.2));
#950=CARTESIAN_POINT('Origin',(79.9188618215564,-35.1000004470348,24.2));
#951=CARTESIAN_POINT('Ctrl Pts',(77.7317424863577,-35.1498137414455,29.2));
#952=CARTESIAN_POINT('Ctrl Pts',(77.7317424863577,-35.1498137414455,35.2));
#953=CARTESIAN_POINT('Ctrl Pts',(78.6618690937757,-32.4382035434246,29.2));
#954=CARTESIAN_POINT('Ctrl Pts',(78.6618690937757,-32.4382035434246,35.2));
#955=CARTESIAN_POINT('Ctrl Pts',(79.3595515936613,-31.0149823129177,29.2));
#956=CARTESIAN_POINT('Ctrl Pts',(79.3595515936613,-31.0149823129177,35.2));
#957=CARTESIAN_POINT('',(79.3595515936613,-31.0149823129177,29.2));
#958=CARTESIAN_POINT('',(77.7317424863577,-35.1498137414455,29.2));
#959=CARTESIAN_POINT('Ctrl Pts',(79.3595515936613,-31.0149823129177,29.2));
#960=CARTESIAN_POINT('Ctrl Pts',(78.6618690937757,-32.4382035434246,29.2));
#961=CARTESIAN_POINT('Ctrl Pts',(77.7317424863577,-35.1498137414455,29.2));
#962=CARTESIAN_POINT('',(79.3595515936613,-31.0149823129177,35.2));
#963=CARTESIAN_POINT('',(79.3595515936613,-31.0149823129177,29.2));
#964=CARTESIAN_POINT('',(77.7317424863577,-35.1498137414455,35.2));
#965=CARTESIAN_POINT('Ctrl Pts',(77.7317424863577,-35.1498137414455,35.2));
#966=CARTESIAN_POINT('Ctrl Pts',(78.6618690937757,-32.4382035434246,35.2));
#967=CARTESIAN_POINT('Ctrl Pts',(79.3595515936613,-31.0149823129177,35.2));
#968=CARTESIAN_POINT('',(77.7317424863577,-35.1498137414455,29.2));
#969=CARTESIAN_POINT('Ctrl Pts',(78.8403566926717,-35.1123605668545,29.2));
#970=CARTESIAN_POINT('Ctrl Pts',(78.8403566926717,-35.1123605668545,35.2));
#971=CARTESIAN_POINT('Ctrl Pts',(78.5032781213522,-35.1123605668545,29.2));
#972=CARTESIAN_POINT('Ctrl Pts',(78.5032781213522,-35.1123605668545,35.2));
#973=CARTESIAN_POINT('Ctrl Pts',(77.7317424863577,-35.1498137414455,29.2));
#974=CARTESIAN_POINT('Ctrl Pts',(77.7317424863577,-35.1498137414455,35.2));
#975=CARTESIAN_POINT('',(78.8403566926717,-35.1123605668545,29.2));
#976=CARTESIAN_POINT('Ctrl Pts',(77.7317424863577,-35.1498137414455,29.2));
#977=CARTESIAN_POINT('Ctrl Pts',(78.5032781213522,-35.1123605668545,29.2));
#978=CARTESIAN_POINT('Ctrl Pts',(78.8403566926717,-35.1123605668545,29.2));
#979=CARTESIAN_POINT('',(78.8403566926717,-35.1123605668545,35.2));
#980=CARTESIAN_POINT('Ctrl Pts',(78.8403566926717,-35.1123605668545,35.2));
#981=CARTESIAN_POINT('Ctrl Pts',(78.5032781213522,-35.1123605668545,35.2));
#982=CARTESIAN_POINT('Ctrl Pts',(77.7317424863577,-35.1498137414455,35.2));
#983=CARTESIAN_POINT('',(78.8403566926717,-35.1123605668545,29.2));
#984=CARTESIAN_POINT('Origin',(80.9453427046537,-35.1498137414455,29.2));
#985=CARTESIAN_POINT('',(80.9453427046537,-35.1498137414455,29.2));
#986=CARTESIAN_POINT('',(78.8403566926717,-35.1123605668545,29.2));
#987=CARTESIAN_POINT('',(80.9453427046537,-35.1498137414455,35.2));
#988=CARTESIAN_POINT('',(78.8403566926717,-35.1123605668545,35.2));
#989=CARTESIAN_POINT('',(80.9453427046537,-35.1498137414455,29.2));
#990=CARTESIAN_POINT('Ctrl Pts',(80.1673697680235,-33.0823980271816,29.2));
#991=CARTESIAN_POINT('Ctrl Pts',(80.1673697680235,-33.0823980271816,35.2));
#992=CARTESIAN_POINT('Ctrl Pts',(80.6685405224561,-34.3707875907421,29.2));
#993=CARTESIAN_POINT('Ctrl Pts',(80.6685405224561,-34.3707875907421,35.2));
#994=CARTESIAN_POINT('Ctrl Pts',(80.9453427046537,-35.1498137414455,29.2));
#995=CARTESIAN_POINT('Ctrl Pts',(80.9453427046537,-35.1498137414455,35.2));
#996=CARTESIAN_POINT('',(80.1673697680235,-33.0823980271816,29.2));
#997=CARTESIAN_POINT('Ctrl Pts',(80.9453427046537,-35.1498137414455,29.2));
#998=CARTESIAN_POINT('Ctrl Pts',(80.6685405224561,-34.3707875907421,29.2));
#999=CARTESIAN_POINT('Ctrl Pts',(80.1673697680235,-33.0823980271816,29.2));
#1000=CARTESIAN_POINT('',(80.1673697680235,-33.0823980271816,35.2));
#1001=CARTESIAN_POINT('Ctrl Pts',(80.1673697680235,-33.0823980271816,35.2));
#1002=CARTESIAN_POINT('Ctrl Pts',(80.6685405224561,-34.3707875907421,35.2));
#1003=CARTESIAN_POINT('Ctrl Pts',(80.9453427046537,-35.1498137414455,35.2));
#1004=CARTESIAN_POINT('',(80.1673697680235,-33.0823980271816,29.2));
#1005=CARTESIAN_POINT('Ctrl Pts',(79.3595515936613,-31.0149823129177,29.2));
#1006=CARTESIAN_POINT('Ctrl Pts',(79.3595515936613,-31.0149823129177,35.2));
#1007=CARTESIAN_POINT('Ctrl Pts',(79.5540740340948,-31.546817868948,29.2));
#1008=CARTESIAN_POINT('Ctrl Pts',(79.5540740340948,-31.546817868948,35.2));
#1009=CARTESIAN_POINT('Ctrl Pts',(80.1673697680235,-33.0823980271816,29.2));
#1010=CARTESIAN_POINT('Ctrl Pts',(80.1673697680235,-33.0823980271816,35.2));
#1011=CARTESIAN_POINT('Ctrl Pts',(80.1673697680235,-33.0823980271816,29.2));
#1012=CARTESIAN_POINT('Ctrl Pts',(79.5540740340948,-31.546817868948,29.2));
#1013=CARTESIAN_POINT('Ctrl Pts',(79.3595515936613,-31.0149823129177,29.2));
#1014=CARTESIAN_POINT('Ctrl Pts',(79.3595515936613,-31.0149823129177,35.2));
#1015=CARTESIAN_POINT('Ctrl Pts',(79.5540740340948,-31.546817868948,35.2));
#1016=CARTESIAN_POINT('Ctrl Pts',(80.1673697680235,-33.0823980271816,35.2));
#1017=CARTESIAN_POINT('Origin',(80.0047998875379,-29.3820236623287,29.2));
#1018=CARTESIAN_POINT('',(79.6583577245474,-29.3820236623287,29.2));
#1019=CARTESIAN_POINT('',(80.0047998875379,-29.3820236623287,29.2));
#1020=CARTESIAN_POINT('',(79.6583577245474,-29.3820236623287,29.2));
#1021=CARTESIAN_POINT('',(79.6583577245474,-29.3820236623287,35.2));
#1022=CARTESIAN_POINT('',(79.6583577245474,-29.3820236623287,29.2));
#1023=CARTESIAN_POINT('',(80.0047998875379,-29.3820236623287,35.2));
#1024=CARTESIAN_POINT('',(79.6583577245474,-29.3820236623287,35.2));
#1025=CARTESIAN_POINT('',(80.0047998875379,-29.3820236623287,29.2));
#1026=CARTESIAN_POINT('Ctrl Pts',(82.3129688948393,-35.2471916377544,29.2));
#1027=CARTESIAN_POINT('Ctrl Pts',(82.3129688948393,-35.2471916377544,35.2));
#1028=CARTESIAN_POINT('Ctrl Pts',(80.8414100855589,-31.0973797738552,29.2));
#1029=CARTESIAN_POINT('Ctrl Pts',(80.8414100855589,-31.0973797738552,35.2));
#1030=CARTESIAN_POINT('Ctrl Pts',(80.0047998875379,-29.3820236623287,29.2));
#1031=CARTESIAN_POINT('Ctrl Pts',(80.0047998875379,-29.3820236623287,35.2));
#1032=CARTESIAN_POINT('',(82.3129688948393,-35.2471916377544,29.2));
#1033=CARTESIAN_POINT('Ctrl Pts',(80.0047998875379,-29.3820236623287,29.2));
#1034=CARTESIAN_POINT('Ctrl Pts',(80.8414100855589,-31.0973797738552,29.2));
#1035=CARTESIAN_POINT('Ctrl Pts',(82.3129688948393,-35.2471916377544,29.2));
#1036=CARTESIAN_POINT('',(82.3129688948393,-35.2471916377544,35.2));
#1037=CARTESIAN_POINT('Ctrl Pts',(82.3129688948393,-35.2471916377544,35.2));
#1038=CARTESIAN_POINT('Ctrl Pts',(80.8414100855589,-31.0973797738552,35.2));
#1039=CARTESIAN_POINT('Ctrl Pts',(80.0047998875379,-29.3820236623287,35.2));
#1040=CARTESIAN_POINT('',(82.3129688948393,-35.2471916377544,29.2));
#1041=CARTESIAN_POINT('Ctrl Pts',(83.6146431416273,-38.5093639791012,29.2));
#1042=CARTESIAN_POINT('Ctrl Pts',(83.6146431416273,-38.5093639791012,35.2));
#1043=CARTESIAN_POINT('Ctrl Pts',(83.2617049664259,-37.9063676297665,29.2));
#1044=CARTESIAN_POINT('Ctrl Pts',(83.2617049664259,-37.9063676297665,35.2));
#1045=CARTESIAN_POINT('Ctrl Pts',(82.3129688948393,-35.2471916377544,29.2));
#1046=CARTESIAN_POINT('Ctrl Pts',(82.3129688948393,-35.2471916377544,35.2));
#1047=CARTESIAN_POINT('',(83.6146431416273,-38.5093639791012,29.2));
#1048=CARTESIAN_POINT('Ctrl Pts',(82.3129688948393,-35.2471916377544,29.2));
#1049=CARTESIAN_POINT('Ctrl Pts',(83.2617049664259,-37.9063676297665,29.2));
#1050=CARTESIAN_POINT('Ctrl Pts',(83.6146431416273,-38.5093639791012,29.2));
#1051=CARTESIAN_POINT('',(83.6146431416273,-38.5093639791012,35.2));
#1052=CARTESIAN_POINT('Ctrl Pts',(83.6146431416273,-38.5093639791012,35.2));
#1053=CARTESIAN_POINT('Ctrl Pts',(83.2617049664259,-37.9063676297665,35.2));
#1054=CARTESIAN_POINT('Ctrl Pts',(82.3129688948393,-35.2471916377544,35.2));
#1055=CARTESIAN_POINT('',(83.6146431416273,-38.5093639791012,29.2));
#1056=CARTESIAN_POINT('Ctrl Pts',(84.7484796494245,-39.1797761619091,29.2));
#1057=CARTESIAN_POINT('Ctrl Pts',(84.7484796494245,-39.1797761619091,35.2));
#1058=CARTESIAN_POINT('Ctrl Pts',(83.9675807207823,-39.1123603284359,29.2));
#1059=CARTESIAN_POINT('Ctrl Pts',(83.9675807207823,-39.1123603284359,35.2));
#1060=CARTESIAN_POINT('Ctrl Pts',(83.6146431416273,-38.5093639791012,29.2));
#1061=CARTESIAN_POINT('Ctrl Pts',(83.6146431416273,-38.5093639791012,35.2));
#1062=CARTESIAN_POINT('',(84.7484796494245,-39.1797761619091,29.2));
#1063=CARTESIAN_POINT('Ctrl Pts',(83.6146431416273,-38.5093639791012,29.2));
#1064=CARTESIAN_POINT('Ctrl Pts',(83.9675807207823,-39.1123603284359,29.2));
#1065=CARTESIAN_POINT('Ctrl Pts',(84.7484796494245,-39.1797761619091,29.2));
#1066=CARTESIAN_POINT('',(84.7484796494245,-39.1797761619091,35.2));
#1067=CARTESIAN_POINT('Ctrl Pts',(84.7484796494245,-39.1797761619091,35.2));
#1068=CARTESIAN_POINT('Ctrl Pts',(83.9675807207823,-39.1123603284359,35.2));
#1069=CARTESIAN_POINT('Ctrl Pts',(83.6146431416273,-38.5093639791012,35.2));
#1070=CARTESIAN_POINT('',(84.7484796494245,-39.1797761619091,29.2));
#1071=CARTESIAN_POINT('Ctrl Pts',(84.9962561577558,-39.3445698916912,29.2));
#1072=CARTESIAN_POINT('Ctrl Pts',(84.9962561577558,-39.3445698916912,35.2));
#1073=CARTESIAN_POINT('Ctrl Pts',(84.9962561577558,-39.2022477090359,29.2));
#1074=CARTESIAN_POINT('Ctrl Pts',(84.9962561577558,-39.2022477090359,35.2));
#1075=CARTESIAN_POINT('Ctrl Pts',(84.7484796494245,-39.1797761619091,29.2));
#1076=CARTESIAN_POINT('Ctrl Pts',(84.7484796494245,-39.1797761619091,35.2));
#1077=CARTESIAN_POINT('',(84.9962561577558,-39.3445698916912,29.2));
#1078=CARTESIAN_POINT('Ctrl Pts',(84.7484796494245,-39.1797761619091,29.2));
#1079=CARTESIAN_POINT('Ctrl Pts',(84.9962561577558,-39.2022477090359,29.2));
#1080=CARTESIAN_POINT('Ctrl Pts',(84.9962561577558,-39.3445698916912,29.2));
#1081=CARTESIAN_POINT('',(84.9962561577558,-39.3445698916912,35.2));
#1082=CARTESIAN_POINT('Ctrl Pts',(84.9962561577558,-39.3445698916912,35.2));
#1083=CARTESIAN_POINT('Ctrl Pts',(84.9962561577558,-39.2022477090359,35.2));
#1084=CARTESIAN_POINT('Ctrl Pts',(84.7484796494245,-39.1797761619091,35.2));
#1085=CARTESIAN_POINT('',(84.9962561577558,-39.3445698916912,29.2));
#1086=CARTESIAN_POINT('Ctrl Pts',(84.8689156025648,-39.4494388997555,29.2));
#1087=CARTESIAN_POINT('Ctrl Pts',(84.8689156025648,-39.4494388997555,35.2));
#1088=CARTESIAN_POINT('Ctrl Pts',(84.9962561577558,-39.4494388997555,29.2));
#1089=CARTESIAN_POINT('Ctrl Pts',(84.9962561577558,-39.4494388997555,35.2));
#1090=CARTESIAN_POINT('Ctrl Pts',(84.9962561577558,-39.3445698916912,29.2));
#1091=CARTESIAN_POINT('Ctrl Pts',(84.9962561577558,-39.3445698916912,35.2));
#1092=CARTESIAN_POINT('',(84.8689156025648,-39.4494388997555,29.2));
#1093=CARTESIAN_POINT('Ctrl Pts',(84.9962561577558,-39.3445698916912,29.2));
#1094=CARTESIAN_POINT('Ctrl Pts',(84.9962561577558,-39.4494388997555,29.2));
#1095=CARTESIAN_POINT('Ctrl Pts',(84.8689156025648,-39.4494388997555,29.2));
#1096=CARTESIAN_POINT('',(84.8689156025648,-39.4494388997555,35.2));
#1097=CARTESIAN_POINT('Ctrl Pts',(84.8689156025648,-39.4494388997555,35.2));
#1098=CARTESIAN_POINT('Ctrl Pts',(84.9962561577558,-39.4494388997555,35.2));
#1099=CARTESIAN_POINT('Ctrl Pts',(84.9962561577558,-39.3445698916912,35.2));
#1100=CARTESIAN_POINT('',(84.8689156025648,-39.4494388997555,29.2));
#1101=CARTESIAN_POINT('Origin',(84.7640459984541,-39.4419483840466,29.2));
#1102=CARTESIAN_POINT('',(84.7640459984541,-39.4419483840466,29.2));
#1103=CARTESIAN_POINT('',(84.8689156025648,-39.4494388997555,29.2));
#1104=CARTESIAN_POINT('',(84.7640459984541,-39.4419483840466,35.2));
#1105=CARTESIAN_POINT('',(84.8689156025648,-39.4494388997555,35.2));
#1106=CARTESIAN_POINT('',(84.7640459984541,-39.4419483840466,29.2));
#1107=CARTESIAN_POINT('Ctrl Pts',(83.0112367123365,-39.3820230662823,29.2));
#1108=CARTESIAN_POINT('Ctrl Pts',(83.0112367123365,-39.3820230662823,35.2));
#1109=CARTESIAN_POINT('Ctrl Pts',(84.0749072283506,-39.3820230662823,29.2));
#1110=CARTESIAN_POINT('Ctrl Pts',(84.0749072283506,-39.3820230662823,35.2));
#1111=CARTESIAN_POINT('Ctrl Pts',(84.7640459984541,-39.4419483840466,29.2));
#1112=CARTESIAN_POINT('Ctrl Pts',(84.7640459984541,-39.4419483840466,35.2));
#1113=CARTESIAN_POINT('',(83.0112367123365,-39.3820230662823,29.2));
#1114=CARTESIAN_POINT('Ctrl Pts',(84.7640459984541,-39.4419483840466,29.2));
#1115=CARTESIAN_POINT('Ctrl Pts',(84.0749072283506,-39.3820230662823,29.2));
#1116=CARTESIAN_POINT('Ctrl Pts',(83.0112367123365,-39.3820230662823,29.2));
#1117=CARTESIAN_POINT('',(83.0112367123365,-39.3820230662823,35.2));
#1118=CARTESIAN_POINT('Ctrl Pts',(83.0112367123365,-39.3820230662823,35.2));
#1119=CARTESIAN_POINT('Ctrl Pts',(84.0749072283506,-39.3820230662823,35.2));
#1120=CARTESIAN_POINT('Ctrl Pts',(84.7640459984541,-39.4419483840466,35.2));
#1121=CARTESIAN_POINT('',(83.0112367123365,-39.3820230662823,29.2));
#1122=CARTESIAN_POINT('Ctrl Pts',(80.9138589352369,-39.4344572722912,29.2));
#1123=CARTESIAN_POINT('Ctrl Pts',(80.9138589352369,-39.4344572722912,35.2));
#1124=CARTESIAN_POINT('Ctrl Pts',(81.3782780617475,-39.3820230662823,29.2));
#1125=CARTESIAN_POINT('Ctrl Pts',(81.3782780617475,-39.3820230662823,35.2));
#1126=CARTESIAN_POINT('Ctrl Pts',(83.0112367123365,-39.3820230662823,29.2));
#1127=CARTESIAN_POINT('Ctrl Pts',(83.0112367123365,-39.3820230662823,35.2));
#1128=CARTESIAN_POINT('',(80.9138589352369,-39.4344572722912,29.2));
#1129=CARTESIAN_POINT('Ctrl Pts',(83.0112367123365,-39.3820230662823,29.2));
#1130=CARTESIAN_POINT('Ctrl Pts',(81.3782780617475,-39.3820230662823,29.2));
#1131=CARTESIAN_POINT('Ctrl Pts',(80.9138589352369,-39.4344572722912,29.2));
#1132=CARTESIAN_POINT('',(80.9138589352369,-39.4344572722912,35.2));
#1133=CARTESIAN_POINT('Ctrl Pts',(80.9138589352369,-39.4344572722912,35.2));
#1134=CARTESIAN_POINT('Ctrl Pts',(81.3782780617475,-39.3820230662823,35.2));
#1135=CARTESIAN_POINT('Ctrl Pts',(83.0112367123365,-39.3820230662823,35.2));
#1136=CARTESIAN_POINT('',(80.9138589352369,-39.4344572722912,29.2));
#1137=CARTESIAN_POINT('Ctrl Pts',(80.6816487759351,-39.2996262013912,29.2));
#1138=CARTESIAN_POINT('Ctrl Pts',(80.6816487759351,-39.2996262013912,35.2));
#1139=CARTESIAN_POINT('Ctrl Pts',(80.6816487759351,-39.4344572722912,29.2));
#1140=CARTESIAN_POINT('Ctrl Pts',(80.6816487759351,-39.4344572722912,35.2));
#1141=CARTESIAN_POINT('Ctrl Pts',(80.9138589352369,-39.4344572722912,29.2));
#1142=CARTESIAN_POINT('Ctrl Pts',(80.9138589352369,-39.4344572722912,35.2));
#1143=CARTESIAN_POINT('',(80.6816487759351,-39.2996262013912,29.2));
#1144=CARTESIAN_POINT('Ctrl Pts',(80.9138589352369,-39.4344572722912,29.2));
#1145=CARTESIAN_POINT('Ctrl Pts',(80.6816487759351,-39.4344572722912,29.2));
#1146=CARTESIAN_POINT('Ctrl Pts',(80.6816487759351,-39.2996262013912,29.2));
#1147=CARTESIAN_POINT('',(80.6816487759351,-39.2996262013912,35.2));
#1148=CARTESIAN_POINT('Ctrl Pts',(80.6816487759351,-39.2996262013912,35.2));
#1149=CARTESIAN_POINT('Ctrl Pts',(80.6816487759351,-39.4344572722912,35.2));
#1150=CARTESIAN_POINT('Ctrl Pts',(80.9138589352369,-39.4344572722912,35.2));
#1151=CARTESIAN_POINT('',(80.6816487759351,-39.2996262013912,29.2));
#1152=CARTESIAN_POINT('Ctrl Pts',(80.8539336174726,-39.1797761619091,29.2));
#1153=CARTESIAN_POINT('Ctrl Pts',(80.8539336174726,-39.1797761619091,35.2));
#1154=CARTESIAN_POINT('Ctrl Pts',(80.6816487759351,-39.2022477090359,29.2));
#1155=CARTESIAN_POINT('Ctrl Pts',(80.6816487759351,-39.2022477090359,35.2));
#1156=CARTESIAN_POINT('Ctrl Pts',(80.6816487759351,-39.2996262013912,29.2));
#1157=CARTESIAN_POINT('Ctrl Pts',(80.6816487759351,-39.2996262013912,35.2));
#1158=CARTESIAN_POINT('',(80.8539336174726,-39.1797761619091,29.2));
#1159=CARTESIAN_POINT('Ctrl Pts',(80.6816487759351,-39.2996262013912,29.2));
#1160=CARTESIAN_POINT('Ctrl Pts',(80.6816487759351,-39.2022477090359,29.2));
#1161=CARTESIAN_POINT('Ctrl Pts',(80.8539336174726,-39.1797761619091,29.2));
#1162=CARTESIAN_POINT('',(80.8539336174726,-39.1797761619091,35.2));
#1163=CARTESIAN_POINT('Ctrl Pts',(80.8539336174726,-39.1797761619091,35.2));
#1164=CARTESIAN_POINT('Ctrl Pts',(80.6816487759351,-39.2022477090359,35.2));
#1165=CARTESIAN_POINT('Ctrl Pts',(80.6816487759351,-39.2996262013912,35.2));
#1166=CARTESIAN_POINT('',(80.8539336174726,-39.1797761619091,29.2));
#1167=CARTESIAN_POINT('Ctrl Pts',(81.7340832203626,-38.9625476300716,29.2));
#1168=CARTESIAN_POINT('Ctrl Pts',(81.7340832203626,-38.9625476300716,35.2));
#1169=CARTESIAN_POINT('Ctrl Pts',(81.4906375855207,-39.1198508441448,29.2));
#1170=CARTESIAN_POINT('Ctrl Pts',(81.4906375855207,-39.1198508441448,35.2));
#1171=CARTESIAN_POINT('Ctrl Pts',(80.8539336174726,-39.1797761619091,29.2));
#1172=CARTESIAN_POINT('Ctrl Pts',(80.8539336174726,-39.1797761619091,35.2));
#1173=CARTESIAN_POINT('',(81.7340832203626,-38.9625476300716,29.2));
#1174=CARTESIAN_POINT('Ctrl Pts',(80.8539336174726,-39.1797761619091,29.2));
#1175=CARTESIAN_POINT('Ctrl Pts',(81.4906375855207,-39.1198508441448,29.2));
#1176=CARTESIAN_POINT('Ctrl Pts',(81.7340832203626,-38.9625476300716,29.2));
#1177=CARTESIAN_POINT('',(81.7340832203626,-38.9625476300716,35.2));
#1178=CARTESIAN_POINT('Ctrl Pts',(81.7340832203626,-38.9625476300716,35.2));
#1179=CARTESIAN_POINT('Ctrl Pts',(81.4906375855207,-39.1198508441448,35.2));
#1180=CARTESIAN_POINT('Ctrl Pts',(80.8539336174726,-39.1797761619091,35.2));
#1181=CARTESIAN_POINT('',(81.7340832203626,-38.9625476300716,29.2));
#1182=CARTESIAN_POINT('Ctrl Pts',(81.9775288552046,-38.4681652486324,29.2));
#1183=CARTESIAN_POINT('Ctrl Pts',(81.9775288552046,-38.4681652486324,35.2));
#1184=CARTESIAN_POINT('Ctrl Pts',(81.9775288552046,-38.805243819952,29.2));
#1185=CARTESIAN_POINT('Ctrl Pts',(81.9775288552046,-38.805243819952,35.2));
#1186=CARTESIAN_POINT('Ctrl Pts',(81.7340832203626,-38.9625476300716,29.2));
#1187=CARTESIAN_POINT('Ctrl Pts',(81.7340832203626,-38.9625476300716,35.2));
#1188=CARTESIAN_POINT('',(81.9775288552046,-38.4681652486324,29.2));
#1189=CARTESIAN_POINT('Ctrl Pts',(81.7340832203626,-38.9625476300716,29.2));
#1190=CARTESIAN_POINT('Ctrl Pts',(81.9775288552046,-38.805243819952,29.2));
#1191=CARTESIAN_POINT('Ctrl Pts',(81.9775288552046,-38.4681652486324,29.2));
#1192=CARTESIAN_POINT('',(81.9775288552046,-38.4681652486324,35.2));
#1193=CARTESIAN_POINT('Ctrl Pts',(81.9775288552046,-38.4681652486324,35.2));
#1194=CARTESIAN_POINT('Ctrl Pts',(81.9775288552046,-38.805243819952,35.2));
#1195=CARTESIAN_POINT('Ctrl Pts',(81.7340832203626,-38.9625476300716,35.2));
#1196=CARTESIAN_POINT('',(81.9775288552046,-38.4681652486324,29.2));
#1197=CARTESIAN_POINT('Ctrl Pts',(81.5213023871183,-36.8576787412167,29.2));
#1198=CARTESIAN_POINT('Ctrl Pts',(81.5213023871183,-36.8576787412167,35.2));
#1199=CARTESIAN_POINT('Ctrl Pts',(81.9775288552046,-38.1460683047771,29.2));
#1200=CARTESIAN_POINT('Ctrl Pts',(81.9775288552046,-38.1460683047771,35.2));
#1201=CARTESIAN_POINT('Ctrl Pts',(81.9775288552046,-38.4681652486324,29.2));
#1202=CARTESIAN_POINT('Ctrl Pts',(81.9775288552046,-38.4681652486324,35.2));
#1203=CARTESIAN_POINT('',(81.5213023871183,-36.8576787412167,29.2));
#1204=CARTESIAN_POINT('Ctrl Pts',(81.9775288552046,-38.4681652486324,29.2));
#1205=CARTESIAN_POINT('Ctrl Pts',(81.9775288552046,-38.1460683047771,29.2));
#1206=CARTESIAN_POINT('Ctrl Pts',(81.5213023871183,-36.8576787412167,29.2));
#1207=CARTESIAN_POINT('',(81.5213023871183,-36.8576787412167,35.2));
#1208=CARTESIAN_POINT('Ctrl Pts',(81.5213023871183,-36.8576787412167,35.2));
#1209=CARTESIAN_POINT('Ctrl Pts',(81.9775288552046,-38.1460683047771,35.2));
#1210=CARTESIAN_POINT('Ctrl Pts',(81.9775288552046,-38.4681652486324,35.2));
#1211=CARTESIAN_POINT('',(81.5213023871183,-36.8576787412167,29.2));
#1212=CARTESIAN_POINT('Origin',(81.0799401253462,-35.5692891776562,29.2));
#1213=CARTESIAN_POINT('',(81.0799401253462,-35.5692891776562,29.2));
#1214=CARTESIAN_POINT('',(81.5213023871183,-36.8576787412167,29.2));
#1215=CARTESIAN_POINT('',(81.0799401253462,-35.5692891776562,35.2));
#1216=CARTESIAN_POINT('',(81.5213023871183,-36.8576787412167,35.2));
#1217=CARTESIAN_POINT('',(81.0799401253462,-35.5692891776562,29.2));
#1218=CARTESIAN_POINT('Ctrl Pts',(77.5966768711805,-35.6142334640026,29.2));
#1219=CARTESIAN_POINT('Ctrl Pts',(77.5966768711805,-35.6142334640026,35.2));
#1220=CARTESIAN_POINT('Ctrl Pts',(80.6904267519712,-35.5692891776562,29.2));
#1221=CARTESIAN_POINT('Ctrl Pts',(80.6904267519712,-35.5692891776562,35.2));
#1222=CARTESIAN_POINT('Ctrl Pts',(81.0799401253462,-35.5692891776562,29.2));
#1223=CARTESIAN_POINT('Ctrl Pts',(81.0799401253462,-35.5692891776562,35.2));
#1224=CARTESIAN_POINT('',(77.5966768711805,-35.6142334640026,29.2));
#1225=CARTESIAN_POINT('Ctrl Pts',(81.0799401253462,-35.5692891776562,29.2));
#1226=CARTESIAN_POINT('Ctrl Pts',(80.6904267519712,-35.5692891776562,29.2));
#1227=CARTESIAN_POINT('Ctrl Pts',(77.5966768711805,-35.6142334640026,29.2));
#1228=CARTESIAN_POINT('',(77.5966768711805,-35.6142334640026,35.2));
#1229=CARTESIAN_POINT('Ctrl Pts',(77.5966768711805,-35.6142334640026,35.2));
#1230=CARTESIAN_POINT('Ctrl Pts',(80.6904267519712,-35.5692891776562,35.2));
#1231=CARTESIAN_POINT('Ctrl Pts',(81.0799401253462,-35.5692891776562,35.2));
#1232=CARTESIAN_POINT('',(77.5966768711805,-35.6142334640026,29.2));
#1233=CARTESIAN_POINT('Ctrl Pts',(76.8164805322885,-38.23127374053,29.2));
#1234=CARTESIAN_POINT('Ctrl Pts',(76.8164805322885,-38.23127374053,35.2));
#1235=CARTESIAN_POINT('Ctrl Pts',(76.8164805322885,-37.689139097929,29.2));
#1236=CARTESIAN_POINT('Ctrl Pts',(76.8164805322885,-37.689139097929,35.2));
#1237=CARTESIAN_POINT('Ctrl Pts',(77.5966768711805,-35.6142334640026,29.2));
#1238=CARTESIAN_POINT('Ctrl Pts',(77.5966768711805,-35.6142334640026,35.2));
#1239=CARTESIAN_POINT('',(76.8164805322885,-38.23127374053,29.2));
#1240=CARTESIAN_POINT('Ctrl Pts',(77.5966768711805,-35.6142334640026,29.2));
#1241=CARTESIAN_POINT('Ctrl Pts',(76.8164805322885,-37.689139097929,29.2));
#1242=CARTESIAN_POINT('Ctrl Pts',(76.8164805322885,-38.23127374053,29.2));
#1243=CARTESIAN_POINT('',(76.8164805322885,-38.23127374053,35.2));
#1244=CARTESIAN_POINT('Ctrl Pts',(76.8164805322885,-38.23127374053,35.2));
#1245=CARTESIAN_POINT('Ctrl Pts',(76.8164805322885,-37.689139097929,35.2));
#1246=CARTESIAN_POINT('Ctrl Pts',(77.5966768711805,-35.6142334640026,35.2));
#1247=CARTESIAN_POINT('',(76.8164805322885,-38.23127374053,29.2));
#1248=CARTESIAN_POINT('Ctrl Pts',(77.2022483497858,-38.9126293361187,29.2));
#1249=CARTESIAN_POINT('Ctrl Pts',(77.2022483497858,-38.9126293361187,35.2));
#1250=CARTESIAN_POINT('Ctrl Pts',(76.8164805322885,-38.6905436217785,29.2));
#1251=CARTESIAN_POINT('Ctrl Pts',(76.8164805322885,-38.6905436217785,35.2));
#1252=CARTESIAN_POINT('Ctrl Pts',(76.8164805322885,-38.23127374053,29.2));
#1253=CARTESIAN_POINT('Ctrl Pts',(76.8164805322885,-38.23127374053,35.2));
#1254=CARTESIAN_POINT('',(77.2022483497858,-38.9126293361187,29.2));
#1255=CARTESIAN_POINT('Ctrl Pts',(76.8164805322885,-38.23127374053,29.2));
#1256=CARTESIAN_POINT('Ctrl Pts',(76.8164805322885,-38.6905436217785,29.2));
#1257=CARTESIAN_POINT('Ctrl Pts',(77.2022483497858,-38.9126293361187,29.2));
#1258=CARTESIAN_POINT('',(77.2022483497858,-38.9126293361187,35.2));
#1259=CARTESIAN_POINT('Ctrl Pts',(77.2022483497858,-38.9126293361187,35.2));
#1260=CARTESIAN_POINT('Ctrl Pts',(76.8164805322885,-38.6905436217785,35.2));
#1261=CARTESIAN_POINT('Ctrl Pts',(76.8164805322885,-38.23127374053,35.2));
#1262=CARTESIAN_POINT('',(77.2022483497858,-38.9126293361187,29.2));
#1263=CARTESIAN_POINT('Ctrl Pts',(77.9625477641821,-39.1573040187359,29.2));
#1264=CARTESIAN_POINT('Ctrl Pts',(77.9625477641821,-39.1573040187359,35.2));
#1265=CARTESIAN_POINT('Ctrl Pts',(77.5880160182714,-39.1347150504589,29.2));
#1266=CARTESIAN_POINT('Ctrl Pts',(77.5880160182714,-39.1347150504589,35.2));
#1267=CARTESIAN_POINT('Ctrl Pts',(77.2022483497858,-38.9126293361187,29.2));
#1268=CARTESIAN_POINT('Ctrl Pts',(77.2022483497858,-38.9126293361187,35.2));
#1269=CARTESIAN_POINT('',(77.9625477641821,-39.1573040187359,29.2));
#1270=CARTESIAN_POINT('Ctrl Pts',(77.2022483497858,-38.9126293361187,29.2));
#1271=CARTESIAN_POINT('Ctrl Pts',(77.5880160182714,-39.1347150504589,29.2));
#1272=CARTESIAN_POINT('Ctrl Pts',(77.9625477641821,-39.1573040187359,29.2));
#1273=CARTESIAN_POINT('',(77.9625477641821,-39.1573040187359,35.2));
#1274=CARTESIAN_POINT('Ctrl Pts',(77.9625477641821,-39.1573040187359,35.2));
#1275=CARTESIAN_POINT('Ctrl Pts',(77.5880160182714,-39.1347150504589,35.2));
#1276=CARTESIAN_POINT('Ctrl Pts',(77.2022483497858,-38.9126293361187,35.2));
#1277=CARTESIAN_POINT('',(77.9625477641821,-39.1573040187359,29.2));
#1278=CARTESIAN_POINT('Ctrl Pts',(78.2397013157606,-39.32502374053,29.2));
#1279=CARTESIAN_POINT('Ctrl Pts',(78.2397013157606,-39.32502374053,35.2));
#1280=CARTESIAN_POINT('Ctrl Pts',(78.2397013157606,-39.1791908442974,29.2));
#1281=CARTESIAN_POINT('Ctrl Pts',(78.2397013157606,-39.1791908442974,35.2));
#1282=CARTESIAN_POINT('Ctrl Pts',(77.9625477641821,-39.1573040187359,29.2));
#1283=CARTESIAN_POINT('Ctrl Pts',(77.9625477641821,-39.1573040187359,35.2));
#1284=CARTESIAN_POINT('',(78.2397013157606,-39.32502374053,29.2));
#1285=CARTESIAN_POINT('Ctrl Pts',(77.9625477641821,-39.1573040187359,29.2));
#1286=CARTESIAN_POINT('Ctrl Pts',(78.2397013157606,-39.1791908442974,29.2));
#1287=CARTESIAN_POINT('Ctrl Pts',(78.2397013157606,-39.32502374053,29.2));
#1288=CARTESIAN_POINT('',(78.2397013157606,-39.32502374053,35.2));
#1289=CARTESIAN_POINT('Ctrl Pts',(78.2397013157606,-39.32502374053,35.2));
#1290=CARTESIAN_POINT('Ctrl Pts',(78.2397013157606,-39.1791908442974,35.2));
#1291=CARTESIAN_POINT('Ctrl Pts',(77.9625477641821,-39.1573040187359,35.2));
#1292=CARTESIAN_POINT('',(78.2397013157606,-39.32502374053,29.2));
#1293=CARTESIAN_POINT('Ctrl Pts',(78.1498136371374,-39.4344572722912,29.2));
#1294=CARTESIAN_POINT('Ctrl Pts',(78.1498136371374,-39.4344572722912,35.2));
#1295=CARTESIAN_POINT('Ctrl Pts',(78.2397013157606,-39.3834273517132,29.2));
#1296=CARTESIAN_POINT('Ctrl Pts',(78.2397013157606,-39.3834273517132,35.2));
#1297=CARTESIAN_POINT('Ctrl Pts',(78.2397013157606,-39.32502374053,29.2));
#1298=CARTESIAN_POINT('Ctrl Pts',(78.2397013157606,-39.32502374053,35.2));
#1299=CARTESIAN_POINT('',(78.1498136371374,-39.4344572722912,29.2));
#1300=CARTESIAN_POINT('Ctrl Pts',(78.2397013157606,-39.32502374053,29.2));
#1301=CARTESIAN_POINT('Ctrl Pts',(78.2397013157606,-39.3834273517132,29.2));
#1302=CARTESIAN_POINT('Ctrl Pts',(78.1498136371374,-39.4344572722912,29.2));
#1303=CARTESIAN_POINT('',(78.1498136371374,-39.4344572722912,35.2));
#1304=CARTESIAN_POINT('Ctrl Pts',(78.1498136371374,-39.4344572722912,35.2));
#1305=CARTESIAN_POINT('Ctrl Pts',(78.2397013157606,-39.3834273517132,35.2));
#1306=CARTESIAN_POINT('Ctrl Pts',(78.2397013157606,-39.32502374053,35.2));
#1307=CARTESIAN_POINT('',(78.1498136371374,-39.4344572722912,29.2));
#1308=CARTESIAN_POINT('Ctrl Pts',(76.7041210085153,-39.3820230662823,29.2));
#1309=CARTESIAN_POINT('Ctrl Pts',(76.7041210085153,-39.3820230662823,35.2));
#1310=CARTESIAN_POINT('Ctrl Pts',(76.9513119012117,-39.3820230662823,29.2));
#1311=CARTESIAN_POINT('Ctrl Pts',(76.9513119012117,-39.3820230662823,35.2));
#1312=CARTESIAN_POINT('Ctrl Pts',(78.1498136371374,-39.4344572722912,29.2));
#1313=CARTESIAN_POINT('Ctrl Pts',(78.1498136371374,-39.4344572722912,35.2));
#1314=CARTESIAN_POINT('',(76.7041210085153,-39.3820230662823,29.2));
#1315=CARTESIAN_POINT('Ctrl Pts',(78.1498136371374,-39.4344572722912,29.2));
#1316=CARTESIAN_POINT('Ctrl Pts',(76.9513119012117,-39.3820230662823,29.2));
#1317=CARTESIAN_POINT('Ctrl Pts',(76.7041210085153,-39.3820230662823,29.2));
#1318=CARTESIAN_POINT('',(76.7041210085153,-39.3820230662823,35.2));
#1319=CARTESIAN_POINT('Ctrl Pts',(76.7041210085153,-39.3820230662823,35.2));
#1320=CARTESIAN_POINT('Ctrl Pts',(76.9513119012117,-39.3820230662823,35.2));
#1321=CARTESIAN_POINT('Ctrl Pts',(78.1498136371374,-39.4344572722912,35.2));
#1322=CARTESIAN_POINT('',(76.7041210085153,-39.3820230662823,29.2));
#1323=CARTESIAN_POINT('Ctrl Pts',(75.0112370215356,-39.4119857251644,29.2));
#1324=CARTESIAN_POINT('Ctrl Pts',(75.0112370215356,-39.4119857251644,35.2));
#1325=CARTESIAN_POINT('Ctrl Pts',(75.4456939548254,-39.3820230662823,29.2));
#1326=CARTESIAN_POINT('Ctrl Pts',(75.4456939548254,-39.3820230662823,35.2));
#1327=CARTESIAN_POINT('Ctrl Pts',(76.7041210085153,-39.3820230662823,29.2));
#1328=CARTESIAN_POINT('Ctrl Pts',(76.7041210085153,-39.3820230662823,35.2));
#1329=CARTESIAN_POINT('',(75.0112370215356,-39.4119857251644,29.2));
#1330=CARTESIAN_POINT('Ctrl Pts',(76.7041210085153,-39.3820230662823,29.2));
#1331=CARTESIAN_POINT('Ctrl Pts',(75.4456939548254,-39.3820230662823,29.2));
#1332=CARTESIAN_POINT('Ctrl Pts',(75.0112370215356,-39.4119857251644,29.2));
#1333=CARTESIAN_POINT('',(75.0112370215356,-39.4119857251644,35.2));
#1334=CARTESIAN_POINT('Ctrl Pts',(75.0112370215356,-39.4119857251644,35.2));
#1335=CARTESIAN_POINT('Ctrl Pts',(75.4456939548254,-39.3820230662823,35.2));
#1336=CARTESIAN_POINT('Ctrl Pts',(76.7041210085153,-39.3820230662823,35.2));
#1337=CARTESIAN_POINT('',(75.0112370215356,-39.4119857251644,29.2));
#1338=CARTESIAN_POINT('Ctrl Pts',(74.7715366445481,-39.277154058218,29.2));
#1339=CARTESIAN_POINT('Ctrl Pts',(74.7715366445481,-39.277154058218,35.2));
#1340=CARTESIAN_POINT('Ctrl Pts',(74.7715366445481,-39.4119857251644,29.2));
#1341=CARTESIAN_POINT('Ctrl Pts',(74.7715366445481,-39.4119857251644,35.2));
#1342=CARTESIAN_POINT('Ctrl Pts',(75.0112370215356,-39.4119857251644,29.2));
#1343=CARTESIAN_POINT('Ctrl Pts',(75.0112370215356,-39.4119857251644,35.2));
#1344=CARTESIAN_POINT('',(74.7715366445481,-39.277154058218,29.2));
#1345=CARTESIAN_POINT('Ctrl Pts',(75.0112370215356,-39.4119857251644,29.2));
#1346=CARTESIAN_POINT('Ctrl Pts',(74.7715366445481,-39.4119857251644,29.2));
#1347=CARTESIAN_POINT('Ctrl Pts',(74.7715366445481,-39.277154058218,29.2));
#1348=CARTESIAN_POINT('',(74.7715366445481,-39.277154058218,35.2));
#1349=CARTESIAN_POINT('Ctrl Pts',(74.7715366445481,-39.277154058218,35.2));
#1350=CARTESIAN_POINT('Ctrl Pts',(74.7715366445481,-39.4119857251644,35.2));
#1351=CARTESIAN_POINT('Ctrl Pts',(75.0112370215356,-39.4119857251644,35.2));
#1352=CARTESIAN_POINT('',(74.7715366445481,-39.277154058218,29.2));
#1353=CARTESIAN_POINT('Ctrl Pts',(74.9812744744122,-39.1273413598537,29.2));
#1354=CARTESIAN_POINT('Ctrl Pts',(74.9812744744122,-39.1273413598537,35.2));
#1355=CARTESIAN_POINT('Ctrl Pts',(74.7715366445481,-39.1573040187359,29.2));
#1356=CARTESIAN_POINT('Ctrl Pts',(74.7715366445481,-39.1573040187359,35.2));
#1357=CARTESIAN_POINT('Ctrl Pts',(74.7715366445481,-39.277154058218,29.2));
#1358=CARTESIAN_POINT('Ctrl Pts',(74.7715366445481,-39.277154058218,35.2));
#1359=CARTESIAN_POINT('',(74.9812744744122,-39.1273413598537,29.2));
#1360=CARTESIAN_POINT('Ctrl Pts',(74.7715366445481,-39.277154058218,29.2));
#1361=CARTESIAN_POINT('Ctrl Pts',(74.7715366445481,-39.1573040187359,29.2));
#1362=CARTESIAN_POINT('Ctrl Pts',(74.9812744744122,-39.1273413598537,29.2));
#1363=CARTESIAN_POINT('',(74.9812744744122,-39.1273413598537,35.2));
#1364=CARTESIAN_POINT('Ctrl Pts',(74.9812744744122,-39.1273413598537,35.2));
#1365=CARTESIAN_POINT('Ctrl Pts',(74.7715366445481,-39.1573040187359,35.2));
#1366=CARTESIAN_POINT('Ctrl Pts',(74.7715366445481,-39.277154058218,35.2));
#1367=CARTESIAN_POINT('',(74.9812744744122,-39.1273413598537,29.2));
#1368=CARTESIAN_POINT('Ctrl Pts',(76.2996266037225,-37.9588024318218,29.2));
#1369=CARTESIAN_POINT('Ctrl Pts',(76.2996266037225,-37.9588024318218,35.2));
#1370=CARTESIAN_POINT('Ctrl Pts',(75.8426976948976,-39.0149818360806,29.2));
#1371=CARTESIAN_POINT('Ctrl Pts',(75.8426976948976,-39.0149818360806,35.2));
#1372=CARTESIAN_POINT('Ctrl Pts',(74.9812744744122,-39.1273413598537,29.2));
#1373=CARTESIAN_POINT('Ctrl Pts',(74.9812744744122,-39.1273413598537,35.2));
#1374=CARTESIAN_POINT('',(76.2996266037225,-37.9588024318218,29.2));
#1375=CARTESIAN_POINT('Ctrl Pts',(74.9812744744122,-39.1273413598537,29.2));
#1376=CARTESIAN_POINT('Ctrl Pts',(75.8426976948976,-39.0149818360806,29.2));
#1377=CARTESIAN_POINT('Ctrl Pts',(76.2996266037225,-37.9588024318218,29.2));
#1378=CARTESIAN_POINT('',(76.2996266037225,-37.9588024318218,35.2));
#1379=CARTESIAN_POINT('Ctrl Pts',(76.2996266037225,-37.9588024318218,35.2));
#1380=CARTESIAN_POINT('Ctrl Pts',(75.8426976948976,-39.0149818360806,35.2));
#1381=CARTESIAN_POINT('Ctrl Pts',(74.9812744744122,-39.1273413598537,35.2));
#1382=CARTESIAN_POINT('',(76.2996266037225,-37.9588024318218,29.2));
#1383=CARTESIAN_POINT('Ctrl Pts',(77.723783776164,-34.1610495746136,29.2));
#1384=CARTESIAN_POINT('Ctrl Pts',(77.723783776164,-34.1610495746136,35.2));
#1385=CARTESIAN_POINT('Ctrl Pts',(76.7565553635359,-36.9026224315166,29.2));
#1386=CARTESIAN_POINT('Ctrl Pts',(76.7565553635359,-36.9026224315166,35.2));
#1387=CARTESIAN_POINT('Ctrl Pts',(76.2996266037225,-37.9588024318218,29.2));
#1388=CARTESIAN_POINT('Ctrl Pts',(76.2996266037225,-37.9588024318218,35.2));
#1389=CARTESIAN_POINT('',(77.723783776164,-34.1610495746136,29.2));
#1390=CARTESIAN_POINT('Ctrl Pts',(76.2996266037225,-37.9588024318218,29.2));
#1391=CARTESIAN_POINT('Ctrl Pts',(76.7565553635359,-36.9026224315166,29.2));
#1392=CARTESIAN_POINT('Ctrl Pts',(77.723783776164,-34.1610495746136,29.2));
#1393=CARTESIAN_POINT('',(77.723783776164,-34.1610495746136,35.2));
#1394=CARTESIAN_POINT('Ctrl Pts',(77.723783776164,-34.1610495746136,35.2));
#1395=CARTESIAN_POINT('Ctrl Pts',(76.7565553635359,-36.9026224315166,35.2));
#1396=CARTESIAN_POINT('Ctrl Pts',(76.2996266037225,-37.9588024318218,35.2));
#1397=CARTESIAN_POINT('',(77.723783776164,-34.1610495746136,29.2));
#1398=CARTESIAN_POINT('Ctrl Pts',(79.6583577245474,-29.3820236623287,29.2));
#1399=CARTESIAN_POINT('Ctrl Pts',(79.6583577245474,-29.3820236623287,35.2));
#1400=CARTESIAN_POINT('Ctrl Pts',(78.6086153239011,-31.6666679084301,29.2));
#1401=CARTESIAN_POINT('Ctrl Pts',(78.6086153239011,-31.6666679084301,35.2));
#1402=CARTESIAN_POINT('Ctrl Pts',(77.723783776164,-34.1610495746136,29.2));
#1403=CARTESIAN_POINT('Ctrl Pts',(77.723783776164,-34.1610495746136,35.2));
#1404=CARTESIAN_POINT('Ctrl Pts',(77.723783776164,-34.1610495746136,29.2));
#1405=CARTESIAN_POINT('Ctrl Pts',(78.6086153239011,-31.6666679084301,29.2));
#1406=CARTESIAN_POINT('Ctrl Pts',(79.6583577245474,-29.3820236623287,29.2));
#1407=CARTESIAN_POINT('Ctrl Pts',(79.6583577245474,-29.3820236623287,35.2));
#1408=CARTESIAN_POINT('Ctrl Pts',(78.6086153239011,-31.6666679084301,35.2));
#1409=CARTESIAN_POINT('Ctrl Pts',(77.723783776164,-34.1610495746136,35.2));
#1410=CARTESIAN_POINT('Origin',(79.883896401152,-34.4157312810421,35.2));
#1411=CARTESIAN_POINT('Origin',(79.883896401152,-34.4157312810421,29.2));
#1412=UNCERTAINTY_MEASURE_WITH_UNIT(LENGTH_MEASURE(0.01),#1416,
'DISTANCE_ACCURACY_VALUE',
'Maximum model space distance between geometric entities at asserted c
onnectivities');
#1413=UNCERTAINTY_MEASURE_WITH_UNIT(LENGTH_MEASURE(0.01),#1416,
'DISTANCE_ACCURACY_VALUE',
'Maximum model space distance between geometric entities at asserted c
onnectivities');
#1414=(
GEOMETRIC_REPRESENTATION_CONTEXT(3)
GLOBAL_UNCERTAINTY_ASSIGNED_CONTEXT((#1412))
GLOBAL_UNIT_ASSIGNED_CONTEXT((#1416,#1418,#1419))
REPRESENTATION_CONTEXT('','3D')
);
#1415=(
GEOMETRIC_REPRESENTATION_CONTEXT(3)
GLOBAL_UNCERTAINTY_ASSIGNED_CONTEXT((#1413))
GLOBAL_UNIT_ASSIGNED_CONTEXT((#1416,#1418,#1419))
REPRESENTATION_CONTEXT('','3D')
);
#1416=(
LENGTH_UNIT()
NAMED_UNIT(*)
SI_UNIT(.MILLI.,.METRE.)
);
#1417=(
LENGTH_UNIT()
NAMED_UNIT(*)
SI_UNIT($,.METRE.)
);
#1418=(
NAMED_UNIT(*)
PLANE_ANGLE_UNIT()
SI_UNIT($,.RADIAN.)
);
#1419=(
NAMED_UNIT(*)
SI_UNIT($,.STERADIAN.)
SOLID_ANGLE_UNIT()
);
#1420=SHAPE_DEFINITION_REPRESENTATION(#1421,#1422);
#1421=PRODUCT_DEFINITION_SHAPE('',$,#1424);
#1422=SHAPE_REPRESENTATION('',(#800),#1414);
#1423=PRODUCT_DEFINITION_CONTEXT('part definition',#1428,'design');
#1424=PRODUCT_DEFINITION('2026-09-14-17-56-48-993','Rotary Encoder',#1425,
#1423);
#1425=PRODUCT_DEFINITION_FORMATION('',$,#1430);
#1426=PRODUCT_RELATED_PRODUCT_CATEGORY('Rotary Encoder',
'Rotary Encoder',(#1430));
#1427=APPLICATION_PROTOCOL_DEFINITION('international standard',
'automotive_design',2009,#1428);
#1428=APPLICATION_CONTEXT(
'Core Data for Automotive Mechanical Design Process');
#1429=PRODUCT_CONTEXT('part definition',#1428,'mechanical');
#1430=PRODUCT('2026-09-14-17-56-48-993','Rotary Encoder',$,(#1429));
#1431=PRESENTATION_STYLE_ASSIGNMENT((#1434));
#1432=PRESENTATION_STYLE_ASSIGNMENT((#1435));
#1433=PRESENTATION_STYLE_ASSIGNMENT((#1436));
#1434=SURFACE_STYLE_USAGE(.BOTH.,#1437);
#1435=SURFACE_STYLE_USAGE(.BOTH.,#1438);
#1436=SURFACE_STYLE_USAGE(.BOTH.,#1439);
#1437=SURFACE_SIDE_STYLE('',(#1440));
#1438=SURFACE_SIDE_STYLE('',(#1441));
#1439=SURFACE_SIDE_STYLE('',(#1442));
#1440=SURFACE_STYLE_FILL_AREA(#1443);
#1441=SURFACE_STYLE_FILL_AREA(#1444);
#1442=SURFACE_STYLE_FILL_AREA(#1445);
#1443=FILL_AREA_STYLE('Steel - Satin',(#1446));
#1444=FILL_AREA_STYLE('Opaque(38,37,37)',(#1447));
#1445=FILL_AREA_STYLE('Opaque(246,246,243)',(#1448));
#1446=FILL_AREA_STYLE_COLOUR('Steel - Satin',#1449);
#1447=FILL_AREA_STYLE_COLOUR('Opaque(38,37,37)',#1450);
#1448=FILL_AREA_STYLE_COLOUR('Opaque(246,246,243)',#1451);
#1449=COLOUR_RGB('Steel - Satin',0.627450980392157,0.627450980392157,0.627450980392157);
#1450=COLOUR_RGB('Opaque(38,37,37)',0.149019607843137,0.145098039215686,
0.145098039215686);
#1451=COLOUR_RGB('Opaque(246,246,243)',0.964705882352941,0.964705882352941,
0.952941176470588);
ENDSEC;
END-ISO-10303-21;
