%TF.GenerationSoftware,KiCad,Pcbnew,9.0.7*%
%TF.CreationDate,2026-09-14T17:17:26+05:30*%
%TF.ProjectId,auraPad,61757261-5061-4642-9e6b-696361645f70,rev?*%
%TF.SameCoordinates,Original*%
%TF.FileFunction,Soldermask,Bot*%
%TF.FilePolarity,Negative*%
%FSLAX46Y46*%
G04 Gerber Fmt 4.6, Leading zero omitted, Abs format (unit mm)*
G04 Created by KiCad (PCBNEW 9.0.7) date 2026-09-14 17:17:26*
%MOMM*%
%LPD*%
G01*
G04 APERTURE LIST*
G04 Aperture macros list*
%AMRoundRect*
0 Rectangle with rounded corners*
0 $1 Rounding radius*
0 $2 $3 $4 $5 $6 $7 $8 $9 X,Y pos of 4 corners*
0 Add a 4 corners polygon primitive as box body*
4,1,4,$2,$3,$4,$5,$6,$7,$8,$9,$2,$3,0*
0 Add four circle primitives for the rounded corners*
1,1,$1+$1,$2,$3*
1,1,$1+$1,$4,$5*
1,1,$1+$1,$6,$7*
1,1,$1+$1,$8,$9*
0 Add four rect primitives between the rounded corners*
20,1,$1+$1,$2,$3,$4,$5,0*
20,1,$1+$1,$4,$5,$6,$7,0*
20,1,$1+$1,$6,$7,$8,$9,0*
20,1,$1+$1,$8,$9,$2,$3,0*%
G04 Aperture macros list end*
%ADD10R,1.700000X1.700000*%
%ADD11C,1.700000*%
%ADD12C,4.000000*%
%ADD13C,2.200000*%
%ADD14RoundRect,0.250000X-0.550000X0.550000X-0.550000X-0.550000X0.550000X-0.550000X0.550000X0.550000X0*%
%ADD15C,1.600000*%
%ADD16RoundRect,0.082000X-0.718000X0.328000X-0.718000X-0.328000X0.718000X-0.328000X0.718000X0.328000X0*%
%ADD17R,3.500000X1.700000*%
%ADD18O,3.600000X1.700000*%
%ADD19O,3.700000X1.700000*%
%ADD20C,3.200000*%
%ADD21R,2.000000X2.000000*%
%ADD22C,2.000000*%
%ADD23R,3.200000X2.000000*%
G04 APERTURE END LIST*
D10*
%TO.C,J1*%
X225500000Y-44880000D03*
D11*
X225500000Y-47420000D03*
X225500000Y-49960000D03*
X225500000Y-52500000D03*
%TD*%
%TO.C,SW2*%
X223420000Y-97000000D03*
D12*
X228500000Y-97000000D03*
D11*
X233580000Y-97000000D03*
D13*
X231040000Y-91920000D03*
X224690000Y-94460000D03*
%TD*%
D14*
%TO.C,D2*%
X183500000Y-74190000D03*
D15*
X183500000Y-81810000D03*
%TD*%
D14*
%TO.C,D1*%
X180000000Y-74190000D03*
D15*
X180000000Y-81810000D03*
%TD*%
D14*
%TO.C,D5*%
X194000000Y-74190000D03*
D15*
X194000000Y-81810000D03*
%TD*%
D16*
%TO.C,D6*%
X207900001Y-48647158D03*
X207900001Y-50147158D03*
X213100001Y-50147158D03*
X213100001Y-48647158D03*
%TD*%
D17*
%TO.C,U1*%
X178375000Y-46380000D03*
D18*
X178375000Y-48920000D03*
X178375000Y-51460000D03*
X178375000Y-54000000D03*
X178375000Y-56540000D03*
X178375000Y-59080000D03*
X178375000Y-61620000D03*
X195625000Y-61620000D03*
X195625000Y-59080000D03*
X195625000Y-56540000D03*
D19*
X195625000Y-54000000D03*
X195625000Y-51460000D03*
X195625000Y-48920000D03*
X195625000Y-46380000D03*
%TD*%
D16*
%TO.C,D7*%
X174900001Y-91647158D03*
X174900001Y-93147158D03*
X180100001Y-93147158D03*
X180100001Y-91647158D03*
%TD*%
D11*
%TO.C,SW4*%
X223260000Y-78000000D03*
D12*
X228340000Y-78000000D03*
D11*
X233420000Y-78000000D03*
D13*
X230880000Y-72920000D03*
X224530000Y-75460000D03*
%TD*%
D20*
%TO.C,REF\u002A\u002A*%
X216500000Y-72000000D03*
%TD*%
D11*
%TO.C,SW1*%
X204260000Y-97000000D03*
D12*
X209340000Y-97000000D03*
D11*
X214420000Y-97000000D03*
D13*
X211880000Y-91920000D03*
X205530000Y-94460000D03*
%TD*%
D21*
%TO.C,SW5*%
X240920000Y-74600000D03*
D22*
X240920000Y-79600000D03*
X240920000Y-77100000D03*
D23*
X248420000Y-71500000D03*
X248420000Y-82700000D03*
D22*
X255420000Y-79600000D03*
X255420000Y-74600000D03*
%TD*%
D14*
%TO.C,D3*%
X187000000Y-74190000D03*
D15*
X187000000Y-81810000D03*
%TD*%
D14*
%TO.C,D4*%
X190500000Y-74190000D03*
D15*
X190500000Y-81810000D03*
%TD*%
D11*
%TO.C,SW3*%
X242340000Y-97000000D03*
D12*
X247420000Y-97000000D03*
D11*
X252500000Y-97000000D03*
D13*
X249960000Y-91920000D03*
X243610000Y-94460000D03*
%TD*%
M02*
