M48
; DRILL file {KiCad 9.0.7} date 2026-09-14T17:17:14+0530
; FORMAT={-:-/ absolute / metric / decimal}
; #@! TF.CreationDate,2026-09-14T17:17:14+05:30
; #@! TF.GenerationSoftware,Kicad,Pcbnew,9.0.7
; #@! TF.FileFunction,Plated,1,2,PTH
FMAT,2
METRIC
; #@! TA.AperFunction,Plated,PTH,ComponentDrill
T1C0.800
; #@! TA.AperFunction,Plated,PTH,ComponentDrill
T2C1.000
; #@! TA.AperFunction,Plated,PTH,ComponentDrill
T3C1.500
%
G90
G05
T1
X180.0Y-74.19
X180.0Y-81.81
X183.5Y-74.19
X183.5Y-81.81
X187.0Y-74.19
X187.0Y-81.81
X190.5Y-74.19
X190.5Y-81.81
X194.0Y-74.19
X194.0Y-81.81
T2
X179.375Y-46.38
X179.375Y-48.92
X179.375Y-51.46
X179.375Y-54.0
X179.375Y-56.54
X179.375Y-59.08
X179.375Y-61.62
X194.625Y-46.38
X194.625Y-48.92
X194.625Y-51.46
X194.625Y-54.0
X194.625Y-56.54
X194.625Y-59.08
X194.625Y-61.62
X225.5Y-44.88
X225.5Y-47.42
X225.5Y-49.96
X225.5Y-52.5
X240.92Y-74.6
X240.92Y-77.1
X240.92Y-79.6
X255.42Y-74.6
X255.42Y-79.6
T3
X205.53Y-94.46
X211.88Y-91.92
X224.53Y-75.46
X224.69Y-94.46
X230.88Y-72.92
X231.04Y-91.92
X243.61Y-94.46
X249.96Y-91.92
T3
G00X247.77Y-71.5
M15
G01X249.07Y-71.5
M16
G05
G00X247.77Y-82.7
M15
G01X249.07Y-82.7
M16
G05
M30
