%TF.GenerationSoftware,KiCad,Pcbnew,9.0.7*%
%TF.CreationDate,2026-09-14T17:17:26+05:30*%
%TF.ProjectId,auraPad,61757261-5061-4642-9e6b-696361645f70,rev?*%
%TF.SameCoordinates,Original*%
%TF.FileFunction,Copper,L2,Bot*%
%TF.FilePolarity,Positive*%
%FSLAX46Y46*%
G04 Gerber Fmt 4.6, Leading zero omitted, Abs format (unit mm)*
G04 Created by KiCad (PCBNEW 9.0.7) date 2026-09-14 17:17:26*
%MOMM*%
%LPD*%
G01*
G04 APERTURE LIST*
G04 Aperture macros list*
%AMRoundRect*
0 Rectangle with rounded corners*
0 $1 Rounding radius*
0 $2 $3 $4 $5 $6 $7 $8 $9 X,Y pos of 4 corners*
0 Add a 4 corners polygon primitive as box body*
4,1,4,$2,$3,$4,$5,$6,$7,$8,$9,$2,$3,0*
0 Add four circle primitives for the rounded corners*
1,1,$1+$1,$2,$3*
1,1,$1+$1,$4,$5*
1,1,$1+$1,$6,$7*
1,1,$1+$1,$8,$9*
0 Add four rect primitives between the rounded corners*
20,1,$1+$1,$2,$3,$4,$5,0*
20,1,$1+$1,$4,$5,$6,$7,0*
20,1,$1+$1,$6,$7,$8,$9,0*
20,1,$1+$1,$8,$9,$2,$3,0*%
G04 Aperture macros list end*
%TA.AperFunction,ComponentPad*%
%ADD10R,1.700000X1.700000*%
%TD*%
%TA.AperFunction,ComponentPad*%
%ADD11C,1.700000*%
%TD*%
%TA.AperFunction,ComponentPad*%
%ADD12C,2.200000*%
%TD*%
%TA.AperFunction,ComponentPad*%
%ADD13RoundRect,0.250000X-0.550000X0.550000X-0.550000X-0.550000X0.550000X-0.550000X0.550000X0.550000X0*%
%TD*%
%TA.AperFunction,ComponentPad*%
%ADD14C,1.600000*%
%TD*%
%TA.AperFunction,SMDPad,CuDef*%
%ADD15RoundRect,0.082000X-0.718000X0.328000X-0.718000X-0.328000X0.718000X-0.328000X0.718000X0.328000X0*%
%TD*%
%TA.AperFunction,ComponentPad*%
%ADD16R,3.500000X1.700000*%
%TD*%
%TA.AperFunction,ComponentPad*%
%ADD17O,3.600000X1.700000*%
%TD*%
%TA.AperFunction,ComponentPad*%
%ADD18O,3.700000X1.700000*%
%TD*%
%TA.AperFunction,ComponentPad*%
%ADD19R,2.000000X2.000000*%
%TD*%
%TA.AperFunction,ComponentPad*%
%ADD20C,2.000000*%
%TD*%
%TA.AperFunction,ComponentPad*%
%ADD21R,3.200000X2.000000*%
%TD*%
%TA.AperFunction,Conductor*%
%ADD22C,0.200000*%
%TD*%
G04 APERTURE END LIST*
D10*
%TO.P,J1,1,Pin_1*%
%TO.N,SDA*%
X225500000Y-44880000D03*
D11*
%TO.P,J1,2,Pin_2*%
%TO.N,SCL*%
X225500000Y-47420000D03*
%TO.P,J1,3,Pin_3*%
%TO.N,VCC*%
X225500000Y-49960000D03*
%TO.P,J1,4,Pin_4*%
%TO.N,GND*%
X225500000Y-52500000D03*
%TD*%
D12*
%TO.P,SW2,1,1*%
%TO.N,Col1*%
X231040000Y-91920000D03*
%TO.P,SW2,2,2*%
%TO.N,Net-(D2-A)*%
X224690000Y-94460000D03*
%TD*%
D13*
%TO.P,D2,1,K*%
%TO.N,Row0*%
X183500000Y-74190000D03*
D14*
%TO.P,D2,2,A*%
%TO.N,Net-(D2-A)*%
X183500000Y-81810000D03*
%TD*%
D13*
%TO.P,D1,1,K*%
%TO.N,Row0*%
X180000000Y-74190000D03*
D14*
%TO.P,D1,2,A*%
%TO.N,Net-(D1-A)*%
X180000000Y-81810000D03*
%TD*%
D13*
%TO.P,D5,1,K*%
%TO.N,Row1*%
X194000000Y-74190000D03*
D14*
%TO.P,D5,2,A*%
%TO.N,Net-(D5-A)*%
X194000000Y-81810000D03*
%TD*%
D15*
%TO.P,D6,1,VDD*%
%TO.N,VCC*%
X207900001Y-48647158D03*
%TO.P,D6,2,DOUT*%
%TO.N,Net-(D6-DOUT)*%
X207900001Y-50147158D03*
%TO.P,D6,3,VSS*%
%TO.N,GND*%
X213100001Y-50147158D03*
%TO.P,D6,4,DIN*%
%TO.N,LED-IN*%
X213100001Y-48647158D03*
%TD*%
D16*
%TO.P,U1,1,PA02_A0_D0*%
%TO.N,Col1*%
X178375000Y-46380000D03*
D17*
%TO.P,U1,2,PA4_A1_D1*%
%TO.N,Col0*%
X178375000Y-48920000D03*
%TO.P,U1,3,PA10_A2_D2*%
%TO.N,Row0*%
X178375000Y-51460000D03*
%TO.P,U1,4,PA11_A3_D3*%
%TO.N,Row1*%
X178375000Y-54000000D03*
%TO.P,U1,5,PA8_A4_D4_SDA*%
%TO.N,SDA*%
X178375000Y-56540000D03*
%TO.P,U1,6,PA9_A5_D5_SCL*%
%TO.N,SCL*%
X178375000Y-59080000D03*
%TO.P,U1,7,PB08_A6_D6_TX*%
%TO.N,unconnected-(U1-PB08_A6_D6_TX-Pad7)*%
X178375000Y-61620000D03*
%TO.P,U1,8,PB09_A7_D7_RX*%
%TO.N,EC11B*%
X195625000Y-61620000D03*
%TO.P,U1,9,PA7_A8_D8_SCK*%
%TO.N,EC11A*%
X195625000Y-59080000D03*
%TO.P,U1,10,PA5_A9_D9_MISO*%
%TO.N,Col2*%
X195625000Y-56540000D03*
D18*
%TO.P,U1,11,PA6_A10_D10_MOSI*%
%TO.N,LED-IN*%
X195625000Y-54000000D03*
%TO.P,U1,12,3V3*%
%TO.N,unconnected-(U1-3V3-Pad12)*%
X195625000Y-51460000D03*
%TO.P,U1,13,GND*%
%TO.N,GND*%
X195625000Y-48920000D03*
%TO.P,U1,14,5V*%
%TO.N,VCC*%
X195625000Y-46380000D03*
%TD*%
D15*
%TO.P,D7,1,VDD*%
%TO.N,VCC*%
X174900001Y-91647158D03*
%TO.P,D7,2,DOUT*%
%TO.N,unconnected-(D7-DOUT-Pad2)*%
X174900001Y-93147158D03*
%TO.P,D7,3,VSS*%
%TO.N,GND*%
X180100001Y-93147158D03*
%TO.P,D7,4,DIN*%
%TO.N,Net-(D6-DOUT)*%
X180100001Y-91647158D03*
%TD*%
D12*
%TO.P,SW4,1,1*%
%TO.N,Col1*%
X230880000Y-72920000D03*
%TO.P,SW4,2,2*%
%TO.N,Net-(D5-A)*%
X224530000Y-75460000D03*
%TD*%
%TO.P,SW1,1,1*%
%TO.N,Col0*%
X211880000Y-91920000D03*
%TO.P,SW1,2,2*%
%TO.N,Net-(D1-A)*%
X205530000Y-94460000D03*
%TD*%
D19*
%TO.P,SW5,A,A*%
%TO.N,EC11A*%
X240920000Y-74600000D03*
D20*
%TO.P,SW5,B,B*%
%TO.N,EC11B*%
X240920000Y-79600000D03*
%TO.P,SW5,C,C*%
%TO.N,GND*%
X240920000Y-77100000D03*
D21*
%TO.P,SW5,MP*%
%TO.N,N/C*%
X248420000Y-71500000D03*
X248420000Y-82700000D03*
D20*
%TO.P,SW5,S1,S1*%
%TO.N,Col2*%
X255420000Y-79600000D03*
%TO.P,SW5,S2,S2*%
%TO.N,EC11SWA*%
X255420000Y-74600000D03*
%TD*%
D13*
%TO.P,D3,1,K*%
%TO.N,Row0*%
X187000000Y-74190000D03*
D14*
%TO.P,D3,2,A*%
%TO.N,EC11SWA*%
X187000000Y-81810000D03*
%TD*%
D13*
%TO.P,D4,1,K*%
%TO.N,Row1*%
X190500000Y-74190000D03*
D14*
%TO.P,D4,2,A*%
%TO.N,Net-(D4-A)*%
X190500000Y-81810000D03*
%TD*%
D12*
%TO.P,SW3,1,1*%
%TO.N,Col0*%
X249960000Y-91920000D03*
%TO.P,SW3,2,2*%
%TO.N,Net-(D4-A)*%
X243610000Y-94460000D03*
%TD*%
D22*
%TO.N,GND*%
X185600001Y-97147158D02*
X181647158Y-93194315D01*
X189647158Y-97147158D02*
X185600001Y-97147158D01*
X194625000Y-48920000D02*
X198920000Y-48920000D01*
X197726000Y-56139000D02*
X247639000Y-56139000D01*
X194625000Y-48920000D02*
X193545000Y-50000000D01*
X213000000Y-52000000D02*
X213100001Y-51899999D01*
X193000000Y-100500000D02*
X189647158Y-97147158D01*
X213700002Y-52500000D02*
X213100001Y-51899999D01*
X193809240Y-55000000D02*
X194198240Y-55389000D01*
X225500000Y-52500000D02*
X213700002Y-52500000D01*
X213100001Y-51899999D02*
X213100001Y-50147158D01*
X206000000Y-50000000D02*
X206000000Y-52000000D01*
X199245893Y-48594107D02*
X204594107Y-48594107D01*
X259000000Y-67500000D02*
X259000000Y-97000000D01*
X192000000Y-50000000D02*
X192000000Y-53500000D01*
X259000000Y-97000000D02*
X255500000Y-100500000D01*
X206000000Y-52000000D02*
X213000000Y-52000000D01*
X255500000Y-100500000D02*
X193000000Y-100500000D01*
X194198240Y-55389000D02*
X197051760Y-55389000D01*
X247639000Y-56139000D02*
X259000000Y-67500000D01*
X197726000Y-56063240D02*
X197726000Y-56139000D01*
X204594107Y-48594107D02*
X206000000Y-50000000D01*
X197051760Y-55389000D02*
X197726000Y-56063240D01*
X181647158Y-93194315D02*
X181647158Y-93147158D01*
X181647158Y-93147158D02*
X180100001Y-93147158D01*
X193500000Y-55000000D02*
X193809240Y-55000000D01*
X192000000Y-53500000D02*
X193500000Y-55000000D01*
X193545000Y-50000000D02*
X192000000Y-50000000D01*
X198920000Y-48920000D02*
X199245893Y-48594107D01*
%TO.N,Net-(D1-A)*%
X180000000Y-85500000D02*
X188960000Y-94460000D01*
X180000000Y-81810000D02*
X180000000Y-85500000D01*
X188960000Y-94460000D02*
X205530000Y-94460000D01*
%TO.N,Net-(D2-A)*%
X189500000Y-89500000D02*
X219730000Y-89500000D01*
X183500000Y-83500000D02*
X189500000Y-89500000D01*
X183500000Y-81810000D02*
X183500000Y-83500000D01*
X219730000Y-89500000D02*
X224690000Y-94460000D01*
%TO.N,EC11SWA*%
X248000000Y-89000000D02*
X191500000Y-89000000D01*
X253520000Y-76500000D02*
X253500000Y-76500000D01*
X253500000Y-76500000D02*
X253500000Y-83500000D01*
X187000000Y-84500000D02*
X187000000Y-81810000D01*
X191500000Y-89000000D02*
X187000000Y-84500000D01*
X255420000Y-74600000D02*
X253520000Y-76500000D01*
X253500000Y-83500000D02*
X248000000Y-89000000D01*
%TO.N,Net-(D4-A)*%
X190500000Y-80000000D02*
X189000000Y-78500000D01*
X176500000Y-83000000D02*
X193500000Y-100000000D01*
X241038470Y-100000000D02*
X243610000Y-97428470D01*
X178000000Y-78500000D02*
X176500000Y-80000000D01*
X193500000Y-100000000D02*
X241038470Y-100000000D01*
X243610000Y-97428470D02*
X243610000Y-94460000D01*
X176500000Y-80000000D02*
X176500000Y-83000000D01*
X190500000Y-81810000D02*
X190500000Y-80000000D01*
X189000000Y-78500000D02*
X178000000Y-78500000D01*
%TO.N,Net-(D5-A)*%
X198810000Y-77000000D02*
X222561530Y-77000000D01*
X222561530Y-77000000D02*
X222762530Y-76799000D01*
X222762530Y-76799000D02*
X223191000Y-76799000D01*
X223191000Y-76799000D02*
X224530000Y-75460000D01*
X194000000Y-81810000D02*
X198810000Y-77000000D01*
%TO.N,LED-IN*%
X214500000Y-48647158D02*
X213100001Y-48647158D01*
X227500000Y-52500000D02*
X227500000Y-54500000D01*
X195125000Y-54500000D02*
X194625000Y-54000000D01*
X217201842Y-51349000D02*
X214500000Y-48647158D01*
X227500000Y-54500000D02*
X195125000Y-54500000D01*
X217201842Y-51349000D02*
X226349000Y-51349000D01*
X226349000Y-51349000D02*
X227500000Y-52500000D01*
%TO.N,Net-(D6-DOUT)*%
X191000000Y-48170000D02*
X191000000Y-55500000D01*
X193747240Y-48170000D02*
X191000000Y-48170000D01*
X194270082Y-47647158D02*
X193747240Y-48170000D01*
X191000000Y-55500000D02*
X174000000Y-72500000D01*
X207100001Y-50147158D02*
X204600001Y-47647158D01*
X174000000Y-72500000D02*
X174000000Y-83000000D01*
X180100001Y-89100001D02*
X180100001Y-91647158D01*
X207647158Y-50147158D02*
X207500000Y-50000000D01*
X207900001Y-50147158D02*
X207100001Y-50147158D01*
X174000000Y-83000000D02*
X180100001Y-89100001D01*
X204600001Y-47647158D02*
X194270082Y-47647158D01*
%TO.N,VCC*%
X207900001Y-48647158D02*
X207900001Y-44599999D01*
X172500000Y-51000000D02*
X172500000Y-91000000D01*
X173147158Y-91647158D02*
X174900001Y-91647158D01*
X192500000Y-44000000D02*
X193000000Y-43500000D01*
X175731000Y-47769000D02*
X172500000Y-51000000D01*
X193380000Y-46380000D02*
X192500000Y-45500000D01*
X193000000Y-43500000D02*
X205000000Y-43500000D01*
X205000000Y-43500000D02*
X206000000Y-44500000D01*
X192500000Y-45500000D02*
X192500000Y-44000000D01*
X218960000Y-49960000D02*
X213500000Y-44500000D01*
X208000000Y-44500000D02*
X207500000Y-44500000D01*
X218960000Y-49960000D02*
X225500000Y-49960000D01*
X194625000Y-46380000D02*
X193380000Y-46380000D01*
X213500000Y-44500000D02*
X208000000Y-44500000D01*
X172500000Y-91000000D02*
X173147158Y-91647158D01*
X193236000Y-47769000D02*
X175731000Y-47769000D01*
X207500000Y-44500000D02*
X206000000Y-44500000D01*
X194625000Y-46380000D02*
X193236000Y-47769000D01*
X207900001Y-44599999D02*
X208000000Y-44500000D01*
%TO.N,EC11A*%
X240920000Y-69420000D02*
X239401000Y-67901000D01*
X239401000Y-67828204D02*
X232671796Y-61099000D01*
X232599000Y-61099000D02*
X230580000Y-59080000D01*
X239401000Y-67901000D02*
X239401000Y-67828204D01*
X230580000Y-59080000D02*
X194625000Y-59080000D01*
X240920000Y-74600000D02*
X240920000Y-69420000D01*
X232671796Y-61099000D02*
X232599000Y-61099000D01*
%TO.N,EC11B*%
X232505696Y-61500000D02*
X239000000Y-67994304D01*
X194625000Y-61620000D02*
X194745000Y-61500000D01*
X239000000Y-77680000D02*
X240920000Y-79600000D01*
X194745000Y-61500000D02*
X232505696Y-61500000D01*
X239000000Y-67994304D02*
X239000000Y-77680000D01*
%TO.N,Col2*%
X258500000Y-76520000D02*
X255420000Y-79600000D01*
X194625000Y-56540000D02*
X247472900Y-56540000D01*
X258500000Y-67567100D02*
X258500000Y-76520000D01*
X247472900Y-56540000D02*
X258500000Y-67567100D01*
%TD*%
M02*
